<?xml version="1.0" encoding="UTF-8" standalone="no"?>
<svg
   width="2160pt"
   height="360pt"
   viewBox="0 0 2160 360"
   version="1.1"
   id="svg328556"
   sodipodi:docname="dyn_TE_compete.svg"
   inkscape:version="1.1.2 (b8e25be833, 2022-02-05)"
   xmlns:inkscape="http://www.inkscape.org/namespaces/inkscape"
   xmlns:sodipodi="http://sodipodi.sourceforge.net/DTD/sodipodi-0.dtd"
   xmlns:xlink="http://www.w3.org/1999/xlink"
   xmlns="http://www.w3.org/2000/svg"
   xmlns:svg="http://www.w3.org/2000/svg"
   xmlns:rdf="http://www.w3.org/1999/02/22-rdf-syntax-ns#"
   xmlns:cc="http://creativecommons.org/ns#"
   xmlns:dc="http://purl.org/dc/elements/1.1/">
  <sodipodi:namedview
     id="namedview328558"
     pagecolor="#ffffff"
     bordercolor="#666666"
     borderopacity="1.0"
     inkscape:pageshadow="2"
     inkscape:pageopacity="0.0"
     inkscape:pagecheckerboard="0"
     inkscape:document-units="pt"
     showgrid="false"
     inkscape:zoom="1.0506944"
     inkscape:cx="584.85129"
     inkscape:cy="-94.223397"
     inkscape:window-width="2880"
     inkscape:window-height="1586"
     inkscape:window-x="2869"
     inkscape:window-y="-11"
     inkscape:window-maximized="1"
     inkscape:current-layer="svg328556" />
  <metadata
     id="metadata328217">
    <rdf:RDF>
      <cc:Work>
        <dc:type
           rdf:resource="http://purl.org/dc/dcmitype/StillImage" />
        <dc:date>2023-03-21T14:15:46.019262</dc:date>
        <dc:format>image/svg+xml</dc:format>
        <dc:creator>
          <cc:Agent>
            <dc:title>Matplotlib v3.5.2, https://matplotlib.org/</dc:title>
          </cc:Agent>
        </dc:creator>
      </cc:Work>
    </rdf:RDF>
  </metadata>
  <defs
     id="defs328221">
    <style
       type="text/css"
       id="style328219">*{stroke-linejoin: round; stroke-linecap: butt}</style>
  </defs>
  <path
     d="M 0,360 H 2160 V 0 H 0 Z"
     style="fill:none"
     id="path328223" />
  <g
     id="matplotlib.axis_1">
    <g
       id="xtick_1">
      <g
         id="line2d_1">
        <defs
           id="defs328230">
          <path
             id="mca881ee176"
             d="M 0,0 V 3.5"
             style="stroke:#000000;stroke-width:0.8" />
        </defs>
        <g
           id="g328234">
          <use
             xlink:href="#mca881ee176"
             x="49.779999"
             y="320.72"
             style="stroke:#000000;stroke-width:0.8"
             id="use328232"
             width="100%"
             height="100%" />
        </g>
      </g>
      <g
         id="text_1">
        <text
           style="font-style:normal;font-variant:normal;font-weight:normal;font-stretch:normal;font-size:16px;line-height:normal;font-family:Arial;text-anchor:middle"
           x="49.779999"
           y="339.8775"
           id="text328237">0.0</text>
      </g>
    </g>
    <g
       id="xtick_2">
      <g
         id="line2d_2">
        <g
           id="g328243">
          <use
             xlink:href="#mca881ee176"
             x="212.49146"
             y="320.72"
             style="stroke:#000000;stroke-width:0.8"
             id="use328241"
             width="100%"
             height="100%" />
        </g>
      </g>
      <g
         id="text_2">
        <text
           style="font-style:normal;font-variant:normal;font-weight:normal;font-stretch:normal;font-size:16px;line-height:normal;font-family:Arial;text-anchor:middle"
           x="212.49146"
           y="339.8775"
           id="text328246">0.1</text>
      </g>
    </g>
    <g
       id="xtick_3">
      <g
         id="line2d_3">
        <g
           id="g328252">
          <use
             xlink:href="#mca881ee176"
             x="375.20291"
             y="320.72"
             style="stroke:#000000;stroke-width:0.8"
             id="use328250"
             width="100%"
             height="100%" />
        </g>
      </g>
      <g
         id="text_3">
        <text
           style="font-style:normal;font-variant:normal;font-weight:normal;font-stretch:normal;font-size:16px;line-height:normal;font-family:Arial;text-anchor:middle"
           x="375.20291"
           y="339.8775"
           id="text328255">0.2</text>
      </g>
    </g>
    <g
       id="xtick_4">
      <g
         id="line2d_4">
        <g
           id="g328261">
          <use
             xlink:href="#mca881ee176"
             x="537.91437"
             y="320.72"
             style="stroke:#000000;stroke-width:0.8"
             id="use328259"
             width="100%"
             height="100%" />
        </g>
      </g>
      <g
         id="text_4">
        <text
           style="font-style:normal;font-variant:normal;font-weight:normal;font-stretch:normal;font-size:16px;line-height:normal;font-family:Arial;text-anchor:middle"
           x="537.91437"
           y="339.8775"
           id="text328264">0.3</text>
      </g>
    </g>
  </g>
  <g
     id="matplotlib.axis_2">
    <g
       id="ytick_1">
      <g
         id="line2d_5">
        <defs
           id="defs328270">
          <path
             id="m030b1c9c06"
             d="M 0,0 H -3.5"
             style="stroke:#000000;stroke-width:0.8" />
        </defs>
        <g
           id="g328274">
          <use
             xlink:href="#m030b1c9c06"
             x="49.779999"
             y="320.72"
             style="stroke:#000000;stroke-width:0.8"
             id="use328272"
             width="100%"
             height="100%" />
        </g>
      </g>
      <g
         id="text_5">
        <text
           style="font-style:normal;font-variant:normal;font-weight:normal;font-stretch:normal;font-size:16px;line-height:normal;font-family:Arial;text-anchor:end"
           x="42.779999"
           y="326.79874"
           id="text328277">0.0</text>
      </g>
    </g>
    <g
       id="ytick_2">
      <g
         id="line2d_6">
        <g
           id="g328283">
          <use
             xlink:href="#m030b1c9c06"
             x="49.779999"
             y="194.28667"
             style="stroke:#000000;stroke-width:0.8"
             id="use328281"
             width="100%"
             height="100%" />
        </g>
      </g>
      <g
         id="text_6">
        <text
           style="font-style:normal;font-variant:normal;font-weight:normal;font-stretch:normal;font-size:16px;line-height:normal;font-family:Arial;text-anchor:end"
           x="42.779999"
           y="200.36542"
           id="text328286">0.5</text>
      </g>
    </g>
    <g
       id="ytick_3">
      <g
         id="line2d_7">
        <g
           id="g328292">
          <use
             xlink:href="#m030b1c9c06"
             x="49.779999"
             y="67.853333"
             style="stroke:#000000;stroke-width:0.8"
             id="use328290"
             width="100%"
             height="100%" />
        </g>
      </g>
      <g
         id="text_7">
        <text
           style="font-style:normal;font-variant:normal;font-weight:normal;font-stretch:normal;font-size:16px;line-height:normal;font-family:Arial;text-anchor:end"
           x="42.779999"
           y="73.932083"
           id="text328295">1.0</text>
      </g>
    </g>
  </g>
  <g
     id="g329054">
    <g
       id="patch_2">
      <path
         d="M 49.78,320.72 H 537.91437 V 17.28 H 49.78 Z"
         style="fill:#ffffff"
         id="path328226" />
    </g>
    <g
       id="line2d_8">
      <path
         d="m 49.78,42.566667 h 976.2688 v 0"
         clip-path="url(#p935c7a92ec)"
         style="fill:none;stroke:#1f77b4;stroke-width:1.5;stroke-linecap:square"
         id="path328300" />
    </g>
    <g
       id="line2d_9">
      <path
         d="m 49.78,93.14 h 976.2688 v 0"
         clip-path="url(#p935c7a92ec)"
         style="fill:none;stroke:#ff7f0e;stroke-width:1.5;stroke-linecap:square"
         id="path328303" />
    </g>
    <g
       id="patch_3">
      <path
         d="M 49.78,320.72 V 17.28"
         style="fill:none;stroke:#000000;stroke-width:0.8;stroke-linecap:square;stroke-linejoin:miter"
         id="path328306" />
    </g>
    <g
       id="patch_4">
      <path
         d="M 49.78,320.72 H 537.91437"
         style="fill:none;stroke:#000000;stroke-width:0.8;stroke-linecap:square;stroke-linejoin:miter"
         id="path328309" />
    </g>
  </g>
  <g
     id="patch_5">
    <path
       d="M 580.50688,320.72 H 1068.6413 V 17.28 H 580.50688 Z"
       style="fill:#ffffff"
       id="path328313" />
  </g>
  <g
     id="matplotlib.axis_3">
    <g
       id="xtick_5">
      <g
         id="line2d_10">
        <g
           id="g328318">
          <use
             xlink:href="#mca881ee176"
             x="580.5069"
             y="320.72"
             style="stroke:#000000;stroke-width:0.8"
             id="use328316"
             width="100%"
             height="100%" />
        </g>
      </g>
      <g
         id="text_8">
        <text
           style="font-style:normal;font-variant:normal;font-weight:normal;font-stretch:normal;font-size:16px;line-height:normal;font-family:Arial;text-anchor:middle"
           x="580.5069"
           y="339.8775"
           id="text328321">0.0</text>
      </g>
    </g>
    <g
       id="xtick_6">
      <g
         id="line2d_11">
        <g
           id="g328327">
          <use
             xlink:href="#mca881ee176"
             x="743.21832"
             y="320.72"
             style="stroke:#000000;stroke-width:0.8"
             id="use328325"
             width="100%"
             height="100%" />
        </g>
      </g>
      <g
         id="text_9">
        <text
           style="font-style:normal;font-variant:normal;font-weight:normal;font-stretch:normal;font-size:16px;line-height:normal;font-family:Arial;text-anchor:middle"
           x="743.21832"
           y="339.8775"
           id="text328330">0.1</text>
      </g>
    </g>
    <g
       id="xtick_7">
      <g
         id="line2d_12">
        <g
           id="g328336">
          <use
             xlink:href="#mca881ee176"
             x="905.92981"
             y="320.72"
             style="stroke:#000000;stroke-width:0.8"
             id="use328334"
             width="100%"
             height="100%" />
        </g>
      </g>
      <g
         id="text_10">
        <text
           style="font-style:normal;font-variant:normal;font-weight:normal;font-stretch:normal;font-size:16px;line-height:normal;font-family:Arial;text-anchor:middle"
           x="905.92981"
           y="339.8775"
           id="text328339">0.2</text>
      </g>
    </g>
    <g
       id="xtick_8">
      <g
         id="line2d_13">
        <g
           id="g328345">
          <use
             xlink:href="#mca881ee176"
             x="1068.6412"
             y="320.72"
             style="stroke:#000000;stroke-width:0.8"
             id="use328343"
             width="100%"
             height="100%" />
        </g>
      </g>
      <g
         id="text_11">
        <text
           style="font-style:normal;font-variant:normal;font-weight:normal;font-stretch:normal;font-size:16px;line-height:normal;font-family:Arial;text-anchor:middle"
           x="1068.6412"
           y="339.8775"
           id="text328348">0.3</text>
      </g>
    </g>
  </g>
  <g
     id="matplotlib.axis_4">
    <g
       id="ytick_4">
      <g
         id="line2d_14">
        <g
           id="g328355">
          <use
             xlink:href="#m030b1c9c06"
             x="580.5069"
             y="320.72"
             style="stroke:#000000;stroke-width:0.8"
             id="use328353"
             width="100%"
             height="100%" />
        </g>
      </g>
    </g>
    <g
       id="ytick_5">
      <g
         id="line2d_15">
        <g
           id="g328361">
          <use
             xlink:href="#m030b1c9c06"
             x="580.5069"
             y="194.28667"
             style="stroke:#000000;stroke-width:0.8"
             id="use328359"
             width="100%"
             height="100%" />
        </g>
      </g>
    </g>
    <g
       id="ytick_6">
      <g
         id="line2d_16">
        <g
           id="g328367">
          <use
             xlink:href="#m030b1c9c06"
             x="580.5069"
             y="67.853333"
             style="stroke:#000000;stroke-width:0.8"
             id="use328365"
             width="100%"
             height="100%" />
        </g>
      </g>
    </g>
  </g>
  <g
     id="line2d_17">
    <path
       d="m 580.50688,320.72 1.611,-67.29245 1.611,13.23775 1.61101,10.3361 1.611,8.00888 1.61101,6.19005 1.611,4.79321 1.61101,3.72448 1.611,2.91089 1.61101,2.28344 1.611,1.79255 1.61101,1.42504 1.611,1.1327 1.611,0.88531 3.22201,1.32318 3.22201,0.95113 3.22201,0.68363 3.22201,0.45688 4.83301,0.46885 6.44402,0.40898 9.66603,0.34684 12.88804,0.21513 22.55406,0.12137 37.0531,-0.0284 19.33206,-0.15725 43.49712,-0.0601 488.13439,-0.004 h 298.0358 v 0"
       clip-path="url(#pd7ec2ed18e)"
       style="fill:none;stroke:#1f77b4;stroke-width:1.5;stroke-linecap:square"
       id="path328372" />
  </g>
  <g
     id="line2d_18">
    <path
       d="m 580.50688,320.72 1.611,-85.81306 1.611,0.7325 1.61101,1.99765 1.611,2.6486 3.22201,5.74408 3.22201,5.10056 1.61101,2.18581 1.611,1.85606 3.22201,3.23037 3.22201,2.9436 3.22201,2.40644 3.22201,1.89962 1.611,0.77323 3.22201,1.17613 3.22201,0.8902 4.83301,1.0219 4.83302,0.74134 4.83301,0.53913 6.44402,0.49871 8.05502,0.3912 11.27703,0.2985 17.72105,0.19995 28.99808,0.25818 4.83302,0.41869 6.44402,0.49052 8.05502,0.38218 11.27703,0.28753 17.72105,0.18155 35.4421,0.0756 233.59564,0.008 h 534.8535 v 0"
       clip-path="url(#pd7ec2ed18e)"
       style="fill:none;stroke:#ff7f0e;stroke-width:1.5;stroke-linecap:square"
       id="path328375" />
  </g>
  <g
     id="line2d_19">
    <path
       d="m 580.50688,320.72 1.611,-99.76116 1.611,-13.97027 1.61101,-12.33373 1.611,-10.65749 1.61101,-9.08706 1.611,-7.64026 1.61101,-6.37231 1.611,-5.36362 1.61101,-4.46925 1.611,-3.6486 1.61101,-3.08489 1.611,-2.70324 1.611,-2.41012 1.61101,-2.13681 1.611,-1.87705 1.61101,-1.64833 1.611,-1.4461 1.61101,-1.26254 1.611,-1.08518 1.61101,-0.89718 3.22201,-1.38161 3.222,-1.09109 3.22201,-0.87288 4.83302,-0.99697 4.83301,-0.71992 6.44402,-0.66184 6.44402,-0.43329 9.66602,-0.38883 12.88804,-0.25658 22.55406,-0.17507 14.49904,-0.16458 4.83302,-0.36227 6.44402,-0.423 9.66602,-0.37605 12.88804,-0.24249 20.94306,-0.13723 53.16315,-0.0459 744.28407,-0.002 v 0"
       clip-path="url(#pd7ec2ed18e)"
       style="fill:none;stroke:#2ca02c;stroke-width:1.5;stroke-linecap:square"
       id="path328378" />
  </g>
  <g
     id="patch_6">
    <path
       d="M 580.50688,320.72 V 17.28"
       style="fill:none;stroke:#000000;stroke-width:0.8;stroke-linecap:square;stroke-linejoin:miter"
       id="path328381" />
  </g>
  <g
     id="patch_7">
    <path
       d="M 580.50688,320.72 H 1068.6413"
       style="fill:none;stroke:#000000;stroke-width:0.8;stroke-linecap:square;stroke-linejoin:miter"
       id="path328384" />
  </g>
  <g
     id="patch_8">
    <path
       d="m 1111.2338,320.72 h 488.1343 V 17.28 h -488.1343 z"
       style="fill:#ffffff"
       id="path328388" />
  </g>
  <g
     id="matplotlib.axis_5">
    <g
       id="xtick_9">
      <g
         id="line2d_20">
        <g
           id="g328393">
          <use
             xlink:href="#mca881ee176"
             x="1111.2338"
             y="320.72"
             style="stroke:#000000;stroke-width:0.8"
             id="use328391"
             width="100%"
             height="100%" />
        </g>
      </g>
      <g
         id="text_12">
        <text
           style="font-style:normal;font-variant:normal;font-weight:normal;font-stretch:normal;font-size:16px;line-height:normal;font-family:Arial;text-anchor:middle"
           x="1111.2338"
           y="339.8775"
           id="text328396">0.0</text>
      </g>
    </g>
    <g
       id="xtick_10">
      <g
         id="line2d_21">
        <g
           id="g328402">
          <use
             xlink:href="#mca881ee176"
             x="1273.9452"
             y="320.72"
             style="stroke:#000000;stroke-width:0.8"
             id="use328400"
             width="100%"
             height="100%" />
        </g>
      </g>
      <g
         id="text_13">
        <text
           style="font-style:normal;font-variant:normal;font-weight:normal;font-stretch:normal;font-size:16px;line-height:normal;font-family:Arial;text-anchor:middle"
           x="1273.9452"
           y="339.8775"
           id="text328405">0.1</text>
      </g>
    </g>
    <g
       id="xtick_11">
      <g
         id="line2d_22">
        <g
           id="g328411">
          <use
             xlink:href="#mca881ee176"
             x="1436.6566"
             y="320.72"
             style="stroke:#000000;stroke-width:0.8"
             id="use328409"
             width="100%"
             height="100%" />
        </g>
      </g>
      <g
         id="text_14">
        <text
           style="font-style:normal;font-variant:normal;font-weight:normal;font-stretch:normal;font-size:16px;line-height:normal;font-family:Arial;text-anchor:middle"
           x="1436.6566"
           y="339.8775"
           id="text328414">0.2</text>
      </g>
    </g>
    <g
       id="xtick_12">
      <g
         id="line2d_23">
        <g
           id="g328420">
          <use
             xlink:href="#mca881ee176"
             x="1599.3682"
             y="320.72"
             style="stroke:#000000;stroke-width:0.8"
             id="use328418"
             width="100%"
             height="100%" />
        </g>
      </g>
      <g
         id="text_15">
        <text
           style="font-style:normal;font-variant:normal;font-weight:normal;font-stretch:normal;font-size:16px;line-height:normal;font-family:Arial;text-anchor:middle"
           x="1599.3682"
           y="339.8775"
           id="text328423">0.3</text>
      </g>
    </g>
  </g>
  <g
     id="matplotlib.axis_6">
    <g
       id="ytick_7">
      <g
         id="line2d_24">
        <g
           id="g328430">
          <use
             xlink:href="#m030b1c9c06"
             x="1111.2338"
             y="320.72"
             style="stroke:#000000;stroke-width:0.8"
             id="use328428"
             width="100%"
             height="100%" />
        </g>
      </g>
    </g>
    <g
       id="ytick_8">
      <g
         id="line2d_25">
        <g
           id="g328436">
          <use
             xlink:href="#m030b1c9c06"
             x="1111.2338"
             y="194.28667"
             style="stroke:#000000;stroke-width:0.8"
             id="use328434"
             width="100%"
             height="100%" />
        </g>
      </g>
    </g>
    <g
       id="ytick_9">
      <g
         id="line2d_26">
        <g
           id="g328442">
          <use
             xlink:href="#m030b1c9c06"
             x="1111.2338"
             y="67.853333"
             style="stroke:#000000;stroke-width:0.8"
             id="use328440"
             width="100%"
             height="100%" />
        </g>
      </g>
    </g>
  </g>
  <g
     id="line2d_27">
    <path
       d="m 1111.2338,320.72 1.6083,-84.26551 1.6084,2.566 1.6083,3.1542 1.6084,2.79119 1.6083,2.46797 1.6084,2.0734 3.2167,-2.33483 3.2167,-1.96386 3.2167,-1.61467 3.2167,-1.32244 1.6083,-0.41784 1.6084,2.62314 1.6083,5.1261 1.6084,5.84607 1.6083,6.94263 1.6084,3.47456 1.6083,1.97234 1.6084,1.26613 3.2167,1.504 1.6083,-1.70278 1.6084,-1.37903 1.6083,0.42652 1.6084,2.45048 1.6083,4.14883 1.6084,2.68661 1.6083,2.08615 3.2167,-1.56623 1.6084,-0.18155 1.6083,-2.06313 1.6084,-2.95976 3.2167,-8.05051 1.6083,-1.71775 1.6084,-1.4684 1.6083,-2.24054 1.6084,-3.69217 1.6083,-4.3133 1.6084,-3.94136 1.6083,-1.52555 1.6084,-0.27054 1.6083,1.33073 1.6084,2.28347 4.825,12.46792 3.2167,3.84726 3.2167,2.70206 1.6084,-0.0511 1.6083,-0.31271 1.6084,0.40064 1.6083,1.49264 1.6084,2.76517 1.6083,3.16542 1.6084,2.24196 1.6083,1.34908 1.6084,-1.08513 3.2167,-6.22461 1.6083,-2.43032 1.6084,-1.39464 1.6083,-0.76569 1.6084,-1.87375 1.6083,-3.41008 1.6084,-4.18017 1.6083,-2.3461 1.6084,-1.68577 1.6083,0.29022 1.6084,0.4963 1.6083,0.66379 1.6084,-0.4263 1.6083,1.37034 1.6084,2.55361 1.6083,0.0144 1.6084,-0.76563 1.6083,2.60421 1.6084,4.75977 1.6083,3.94429 1.6084,2.63366 1.6083,-1.0413 1.6084,-1.86281 1.6083,-0.98684 1.6084,-0.48365 1.6083,0.43745 1.6084,2.27775 1.6083,2.52865 1.6084,2.22162 1.6083,-1.33242 4.8251,-8.89734 1.6083,-2.30721 1.6084,-1.37847 1.6084,-0.79454 1.6083,-1.79449 1.6084,-1.39163 1.6083,-0.96386 1.6084,1.50187 3.2167,1.1008 3.2167,7.08425 1.6083,0.14481 3.2167,-3.32539 1.6084,0.55397 1.6083,1.4449 1.6084,0.885 1.6083,-0.30656 1.6084,-1.63619 1.6083,-2.47888 1.6084,-1.51295 1.6083,1.06279 1.6084,2.167 1.6083,3.27259 1.6084,2.37243 1.6083,3.02367 1.6084,0.62004 1.6083,-1.69911 3.2167,-5.89054 1.6084,-2.63079 1.6083,-1.42407 1.6084,0.96124 1.6083,1.5424 1.6084,2.5267 1.6083,-0.14312 1.6084,0.38869 1.6083,1.60526 1.6084,2.30971 1.6083,-0.0367 1.6084,-0.95359 1.6083,-2.55746 3.2167,-4.24183 1.6084,-1.53755 1.6083,-1.07486 1.6084,0.77905 3.2167,-2.18803 1.6083,-1.97022 1.6084,-1.53955 1.6083,0.25464 1.6084,1.35346 1.6083,2.97262 3.2167,7.67206 1.6084,2.8504 1.6083,-0.71387 1.6084,-1.17946 1.6083,-0.14662 3.2167,3.58351 1.6084,1.53511 1.6083,-1.58097 1.6084,0.19428 1.6083,0.76096 1.6084,0.38215 1.6083,-2.08146 1.6084,-3.2508 1.6083,-2.20229 1.6084,-2.46765 1.6083,-1.62635 1.6084,-0.59912 3.2167,1.43048 1.6083,-1.01827 1.6084,-2.95687 1.6083,-3.27837 1.6084,-1.13969 1.6083,-1.5427 1.6084,-1.10118 1.6083,0.72222 1.6084,1.5062 1.6083,1.68767 1.6084,3.82495 3.2167,12.44301 1.6083,4.63456 1.6084,0.48274 1.6083,-0.064 1.6084,-1.33188 1.6083,-2.61328 1.6084,-1.29438 1.6083,-0.3274 1.6084,0.33417 1.6083,0.11854 1.6084,-0.49118 1.6083,-0.92985 1.6084,-2.49155 1.6083,-4.62118 1.6084,-4.19276 1.6083,-1.0061 1.6084,1.50326 1.6084,1.89487 1.6083,1.1499 3.2167,-3.02291 1.6084,-2.5164 1.6083,-3.24169 1.6084,-1.53545 1.6083,2.07796 3.2167,7.2518 1.6084,0.31767 1.6083,-1.513 1.6084,1.93937 3.2167,9.59179 1.6083,2.90632 1.6084,-0.3252 1.6083,-0.9633 1.6084,-1.09302 1.6083,-0.54745 1.6084,-0.13268 1.6083,-1.33182 1.6084,-0.89266 1.6083,-0.29437 1.6084,-0.52656 1.6083,-2.03913 3.2167,-6.51803 1.6084,-0.75106 1.6083,0.77282 1.6084,1.47734 1.6083,0.78053 3.2167,2.84246 1.6084,0.58483 1.6083,-2.37889 1.6084,-4.0824 1.6083,-3.7254 1.6084,-0.985 3.2167,3.2773 1.6083,0.50928 1.6084,1.58658 1.6083,3.6264 1.6084,2.26553 3.2167,5.1111 1.6083,2.59912 1.6084,1.25215 1.6083,-2.60998 1.6084,-2.38659 1.6083,-1.10285 3.2167,-1.47983 1.6084,-1.97361 1.6083,-1.44522 1.6084,1.18943 1.6083,2.82274 1.6084,1.5132 1.6083,0.69246 1.6084,-3.85244 1.6083,-2.6512 1.6084,-1.85283 1.6083,-0.63127 1.6084,-0.14284 1.6083,-0.38151 3.2167,-3.86475 1.6084,-0.33848 1.6083,0.819 1.6084,0.97678 1.6083,0.43342 1.6084,-1.42627 1.6083,1.84299 1.6084,4.89617 1.6083,4.48062 1.6084,1.58737 1.6083,-0.22923 1.6084,0.23026 1.6083,0.58716 1.6084,-1.06089 1.6083,0.50076 1.6084,0.75695 1.6083,-0.58395 1.6084,-0.24526 1.6083,-1.17969 1.6084,1.18679 1.6083,1.41198 1.6084,0.32611 1.6083,-2.98347 3.2167,-7.50589 1.6084,-2.59458 1.6083,-1.22671 1.6084,-0.89917 1.6083,-0.48935 1.6084,-0.15188 1.6083,1.764 1.6084,2.78922 1.6083,2.39897 1.6084,-1.08916 1.6084,-3.51621 1.6083,-1.06272 1.6084,3.37933 1.6083,4.2941 1.6084,1.22973 1.6083,0.11243 1.6084,0.47179 1.6083,2.56896 1.6084,4.07094 1.6083,1.50768 1.6084,-0.75646 3.2167,-5.6788 1.6083,-1.66998 1.6084,0.89405 1.6083,1.69742 1.6084,1.53152 1.6083,-1.3309 1.6084,-2.53356 1.6083,-2.75853 3.2167,-6.9402 1.6084,-2.44544 1.6083,0.15156 1.6084,1.49455 1.6083,0.62744 1.6084,0.91455 1.6083,0.49134 1.6084,1.47674 1.6083,2.66077 1.6084,2.41072 1.6083,1.93761 1.6084,-0.10559 1.6083,1.41946 1.6084,0.83149 1.6083,-0.88229 1.6084,-1.7333 1.6083,-0.0731 3.2167,3.0989 1.6084,0.467 3.2167,-2.25001 1.6083,0.30833 1.6084,0.51593 1.6083,0.34601 1.6084,-1.80618 3.2167,-2.98368 4.825,-7.73747 1.6084,-0.90653 1.6083,-0.23475 1.6084,1.15834 1.6083,0.65342 1.6084,2.4645 3.2167,11.55488 1.6083,2.61015 1.6084,-2.10512 1.6083,-2.48879 1.6084,-1.61215 1.6083,-1.26046 1.6084,-0.74317 1.6083,-1.0193 1.6084,0.46813 1.6083,-0.70331 1.6084,-0.24574 1.6083,-0.57485 1.6084,-0.21024 1.6083,0.69029 3.2167,3.40621 1.6084,0.11662 3.2167,-5.38395 1.6083,-1.53702 1.6084,-0.76516 1.6083,0.39925 1.6084,2.63397 1.6083,3.24135 1.6084,2.74752 1.6083,-0.47723 1.6084,-2.44943 1.6083,-0.97758 1.6084,0.97219 1.6083,2.33277 1.6084,0.15417 1.6083,-0.0749 3.2167,-3.37172 1.6084,-0.78557 1.6083,-0.61953 1.6084,0.99357 1.6083,-0.14657 1.6084,-1.28712 1.6083,-3.09308 1.6084,-2.84346 1.6083,-1.39788 1.6084,1.40598 3.2167,7.5038 1.6084,1.92556 1.6083,-0.71893 3.2167,0.65729 1.6084,1.01159 1.6083,2.74405 1.6084,0.61703 1.6083,0.17151 1.6084,-2.14704 1.6083,-1.01072 1.6084,0.98909 1.6083,0.77007 1.6084,-1.11288 1.6083,-3.5058 1.6084,-1.6695 1.6083,6e-4 1.6084,-0.3648 1.6083,-2.68606 1.6084,-2.27319 1.6083,-0.36735 1.6084,1.10425 1.6083,3.03239 1.6084,1.92071 1.6083,1.12256 1.6084,-2.75169 1.6083,-4.5749 1.6084,-3.05681 1.6083,4.22437 1.6084,6.19174 1.6083,5.29099 1.6084,1.69017 1.6083,-2.09435 1.6084,-0.72942 1.6083,0.64811 1.6084,-0.22281 1.6083,-0.66919 1.6084,-1.68699 1.6083,-0.28629 1.6084,1.61224 1.6083,1.17734 1.6084,0.8815 1.6083,-1.83437 1.6084,-2.74758 1.6083,-2.48576 1.6084,-1.8747 1.6083,-1.69723 1.6084,-1.28507 1.6083,-1.97135 1.6084,-1.5629 1.6083,0.9016 1.6084,2.09381 1.6083,2.36145 1.6084,3.54652 1.6083,2.9906 1.6084,2.15728 1.6083,0.48116 1.6084,-1.1475 1.6083,-1.72939 1.6084,-0.93034 1.6083,-0.54834 1.6084,0.47611 1.6083,1.50305 1.6084,0.13543 1.6083,0.44024 1.6084,-1.06936 1.6083,-0.73019 1.6084,0.27961 1.6083,1.08859 1.6084,1.57898 1.6083,-0.57072 1.6084,-1.60526 1.6083,-1.80439 1.6084,-2.507 1.6083,-1.80702 3.2167,0.44654 1.6084,-1.49325 1.6083,-2.44185 1.6084,0.22012 3.2167,8.56141 1.6083,1.27049 1.6084,-0.95991 1.6083,0.0734 1.6084,0.97263 1.6083,1.52006 1.6084,0.13587 1.6083,-0.14402 1.6084,-2.6772 1.6083,-1.7755 1.6084,-0.2462 1.6083,1.49099 1.6084,-0.71101 1.6083,-1.57946 1.6084,0.5562 3.2167,3.17737 3.2167,-3.20018 1.6084,-0.43761 1.6083,-0.22515 1.6084,-0.99966 1.6083,0.18483 1.6084,1.37648 3.2167,5.50009 1.6083,0.12636 1.6084,-1.91299 1.6083,-2.7155 1.6084,-2.1356 1.6083,-1.29039 1.6084,-0.76063 1.6083,-1.29639 1.6084,1.4298 1.6083,3.89948 1.6084,3.51045 1.6083,1.46144 1.6084,-0.39999 1.6083,-0.89216 1.6084,-1.05803 1.6083,-3.15449 1.6084,-1.88068 1.6083,0.5251 1.6084,2.22997 1.6083,0.60938 1.6084,-1.94428 1.6083,-1.63119 1.6084,1.24641 3.2167,4.86063 1.6083,1.85064 1.6084,-1.07175 1.6083,-3.03803 1.6084,-2.66019 1.6083,-0.70876 1.6084,0.13489 1.6083,0.80901 1.6084,0.14835 1.6083,0.49191 1.6084,0.71914 1.6083,-2.41321 1.6084,-2.85499 1.6083,-2.61221 1.6084,2.83823 3.2167,10.19444 1.6083,0.96959 1.6084,-0.55165 1.6083,-2.13757 1.6084,-1.51977 1.6083,-0.31231 1.6084,0.37881 1.6083,2.15258 1.6084,-0.30163 3.2167,-1.26557 1.6083,-2.90929 1.6084,-2.61791 1.6083,-1.24011 1.6084,0.3813 1.6083,0.93191 1.6084,0.1543 1.6083,-0.81524 1.6084,-1.25794 1.6083,0.75293 3.2167,4.37719 1.6084,-0.17233 3.2167,-1.15582 4.825,-0.45182 1.6084,1.08221 1.6083,2.63819 1.6084,1.72718 1.6083,-0.36721 1.6084,-0.015 1.6083,1.83392 3.2167,3.98184 3.2167,-4.90443 1.6084,-1.31191 1.6083,-1.97236 1.6084,-2.84404 1.6083,-3.90149 1.6084,-1.70631 1.6083,-0.87158 1.6084,0.22232 1.6083,1.08447 1.6084,1.44379 1.6083,-0.064 1.6084,-0.47751 1.6083,0.83351 1.6084,2.29385 1.6083,1.91743 1.6084,-0.5863 1.6083,-2.18163 1.6084,-0.81086 1.6084,1.47131 1.6083,4.69387 v 0"
       clip-path="url(#pb458ede164)"
       style="fill:none;stroke:#1f77b4;stroke-width:1.5;stroke-linecap:square"
       id="path328447" />
  </g>
  <g
     id="line2d_28">
    <path
       d="m 1111.2338,320.72 1.6083,-84.29482 6.4334,-2.50927 1.6084,-0.40719 6.4334,0.86907 8.0417,0.82596 1.6084,1.89861 1.6083,6.5255 1.6084,9.1286 1.6083,9.96778 1.6084,6.34948 1.6083,0.13115 1.6084,-1.8074 1.6083,-2.39512 1.6084,-0.98119 1.6083,-1.12256 1.6084,-1.7234 1.6083,-4.98711 1.6084,-7.74946 1.6083,-11.52073 1.6084,-9.89587 1.6083,-6.46673 1.6084,0.30067 1.6083,-0.01 1.6084,-3.08905 1.6083,-5.43031 1.6084,-6.45868 1.6083,-2.20895 1.6084,-1.61251 1.6083,-1.1175 1.6084,-0.89543 1.6083,2.14791 1.6084,3.05934 8.0417,13.07058 1.6084,6.48099 3.2167,22.0848 1.6083,8.99216 1.6084,0.69767 1.6083,-2.45171 1.6084,-2.93164 1.6083,-0.7867 1.6084,-1.70831 1.6083,-0.0959 1.6084,-1.39885 1.6083,-2.61899 1.6084,-3.79237 1.6083,-7.69831 1.6084,-9.45228 1.6083,-8.54075 1.6084,-2.35772 3.2167,3.61964 1.6083,0.36927 1.6084,-2.05996 3.2167,-7.66358 1.6083,-0.8259 1.6084,0.53676 3.2167,0.22311 1.6083,2.18039 1.6084,3.4653 1.6083,7.32736 3.2167,22.87711 1.6084,8.84727 1.6083,1.65295 1.6084,-0.43511 1.6083,-0.69115 3.2167,-2.2367 1.6084,-1.60536 1.6083,-0.61421 1.6084,-3.02777 1.6083,-4.40302 1.6084,-3.62688 1.6083,-3.24417 1.6084,-6.63454 1.6083,-8.79353 1.6084,-8.02843 1.6083,-0.18891 3.2167,4.72289 1.6084,2.0475 1.6083,0.41543 1.6084,-1.94697 1.6084,-3.63357 1.6083,-2.09286 1.6084,0.51562 1.6083,1.37583 1.6084,0.34913 1.6083,5.67258 1.6084,10.46788 1.6083,13.01281 1.6084,6.80381 1.6083,0.67163 1.6084,-1.77431 1.6083,0.0675 1.6084,-0.59828 1.6083,-0.91969 1.6084,-1.60919 1.6083,-0.23876 1.6084,0.67192 1.6083,-0.85721 1.6084,-1.42293 1.6083,-2.58008 1.6084,-3.55792 1.6083,-6.98099 3.2167,-17.08308 1.6084,-3.28475 1.6083,1.17524 3.2167,5.48028 1.6084,2.37452 1.6083,1.69571 1.6084,-0.33839 1.6083,-1.72749 1.6084,-2.97361 1.6083,0.23132 1.6084,7.10468 3.2167,20.24771 1.6083,1.01379 1.6084,-0.27189 1.6083,-0.51377 1.6084,0.62141 1.6083,-0.19448 1.6084,-1.80892 1.6083,-2.27684 1.6084,-1.00411 1.6083,1.3325 1.6084,1.111 3.2167,-0.43009 1.6083,-0.91239 1.6084,-1.84379 1.6083,-4.11 1.6084,-8.36495 1.6083,-9.14457 1.6084,-7.75852 1.6083,0.17104 1.6084,1.15382 1.6083,2.9793 4.8251,9.8666 1.6083,1.80915 4.8251,18.27902 1.6083,1.8998 1.6084,-0.45935 1.6083,0.93798 3.2167,-6.9543 1.6084,-1.83801 1.6083,0.0846 1.6084,-0.62418 1.6083,-2.14628 1.6084,0.25634 1.6083,1.16257 1.6084,1.51569 3.2167,0.34243 1.6083,-0.77065 1.6084,-1.42331 1.6083,-1.74844 1.6084,-4.45993 1.6083,-7.58669 1.6084,-8.49143 1.6083,-5.0768 1.6084,1.524 1.6083,3.02319 1.6084,4.50036 1.6083,3.31785 1.6084,8.44886 1.6083,9.80532 1.6084,7.26423 1.6083,2.4707 1.6084,-1.32477 1.6083,-0.266 1.6084,-0.89355 1.6083,-4.68138 1.6084,-3.00214 1.6083,0.002 1.6084,-3.02626 1.6084,-4.16656 1.6083,-3.67092 1.6084,0.99241 1.6083,2.40823 1.6084,1.86771 1.6083,1.23691 1.6084,-0.35737 1.6083,-0.12118 3.2167,-2.1059 1.6084,-0.4659 1.6083,-0.0916 1.6084,-3.57529 3.2167,-10.89518 1.6083,-2.53176 1.6084,-1.37375 1.6083,1.61925 4.8251,29.9491 1.6083,4.86039 1.6084,1.75594 1.6083,-0.38843 1.6084,-2.10918 1.6083,-4.45937 1.6084,-2.61004 3.2167,-8.6542 1.6083,-1.32965 1.6084,-0.19273 1.6083,-2.10379 1.6084,-2.93746 1.6083,-0.8022 3.2167,5.65907 1.6084,0.38571 1.6083,-0.54629 1.6084,-1.41373 1.6083,-0.60732 1.6084,0.41587 1.6083,2.30648 1.6084,0.037 1.6083,-4.43176 1.6084,-6.52494 1.6083,-4.47279 1.6084,3.58162 1.6083,5.53864 1.6084,7.35199 3.2167,9.45131 1.6083,3.19559 1.6084,2.89421 1.6083,1.94536 1.6084,-3.11113 3.2167,-8.93162 1.6083,-2.20871 1.6084,-3.10913 1.6083,-3.70805 1.6084,-2.09807 1.6083,1.05239 1.6084,0.83177 1.6083,-0.60899 1.6084,-1.53592 1.6083,-0.63551 3.2167,3.39097 1.6084,0.13571 1.6083,-0.60779 1.6084,-0.48244 1.6083,1.4425 1.6084,0.46225 1.6083,-2.58954 1.6084,-1.68764 1.6083,-0.88367 1.6084,5.79411 1.6083,2.50294 1.6084,0.80426 1.6083,2.13631 1.6084,3.15916 1.6083,3.77853 1.6084,2.71923 1.6083,-0.68249 1.6084,-1.15411 1.6083,-2.99175 1.6084,-4.23919 1.6083,-3.8433 1.6084,-0.77428 1.6083,-1.16891 1.6084,-3.28813 1.6083,-2.90812 1.6084,0.23585 1.6083,3.55545 1.6084,2.52362 1.6083,-0.65489 1.6084,-2.9543 1.6083,-1.96272 3.2167,0.94426 1.6084,-0.58508 1.6084,2.10018 1.6083,4.57744 1.6084,1.40237 1.6083,-1.4593 1.6084,-4.11154 1.6083,2.05885 1.6084,3.73557 1.6083,2.51736 3.2167,1.50439 1.6084,1.9524 1.6083,-0.70972 3.2167,-0.65863 1.6084,-0.85992 1.6083,-2.83909 1.6084,-3.71616 1.6083,-2.86731 1.6084,1.0019 1.6083,1.15344 1.6084,-0.8364 1.6083,-2.2794 1.6084,-1.14531 1.6083,1.75966 1.6084,3.27736 1.6083,1.08939 1.6084,-1.42542 1.6083,-3.97733 1.6084,-1.83106 1.6083,4.7628 1.6084,5.51962 1.6083,3.79666 1.6084,-3.83394 1.6083,-5.55028 1.6084,-2.94199 1.6083,0.43191 1.6084,6.21959 1.6083,3.48412 1.6084,1.63216 1.6083,-0.0843 1.6084,-3.18168 1.6083,-1.61738 1.6084,-1.03459 1.6083,0.33274 1.6084,0.72503 1.6083,0.30322 1.6084,-2.02945 1.6083,-3.25279 1.6084,-2.52459 1.6083,1.14871 3.2167,2.99713 1.6084,0.60448 1.6083,-0.44464 1.6084,0.16033 1.6083,0.50213 1.6084,1.54818 1.6083,3.11867 1.6084,1.00182 1.6083,-0.1171 1.6084,-3.11785 3.2167,-0.41095 1.6083,-1.69999 1.6084,-4.10273 1.6083,-0.78812 1.6084,1.95716 1.6083,4.67939 1.6084,3.31391 4.825,-4.3636 1.6084,-0.55037 1.6083,-0.86823 1.6084,0.25293 1.6083,0.99791 1.6084,0.47661 1.6083,-1.72553 1.6084,-2.88102 1.6083,-2.21806 1.6084,1.31247 1.6083,2.03314 1.6084,2.42487 1.6083,-0.61955 1.6084,-0.32725 1.6083,2.10641 1.6084,4.9714 1.6083,3.98402 1.6084,-1.45497 1.6083,-2.55193 1.6084,-3.41333 1.6083,-2.4161 1.6084,-1.2577 1.6083,1.48556 1.6084,0.0525 1.6083,-1.05385 1.6084,-0.56202 1.6083,3.06762 1.6084,1.55665 1.6083,0.11971 1.6084,-2.03367 1.6084,-2.48719 1.6083,-1.94129 1.6084,-0.37514 3.2167,-1.36674 3.2167,0.96813 1.6083,-1.00266 1.6084,-1.77146 1.6083,-1.23116 1.6084,1.95117 1.6083,4.45698 1.6084,7.20068 1.6083,4.81745 1.6084,0.59025 1.6083,-4.58245 1.6084,-3.07067 1.6083,-0.92614 1.6084,-0.3652 1.6083,2.68555 1.6084,3.01631 1.6083,-0.92833 1.6084,-1.96684 1.6083,-4.11681 3.2167,-1.81755 1.6084,-2.05227 1.6083,0.0898 1.6084,0.22444 1.6083,-0.60357 3.2167,-3.67082 1.6084,-1.02576 1.6083,0.85835 1.6084,0.44163 1.6083,0.63977 1.6084,1.41928 1.6083,1.64994 1.6084,-1.58836 1.6083,-1.16742 1.6084,3.05874 3.2167,14.46745 1.6083,1.35263 1.6084,-1.6471 1.6083,-3.37288 1.6084,-4.89661 1.6083,-3.41262 1.6084,0.77885 1.6083,4.42691 1.6084,3.66292 1.6083,2.74252 1.6084,-0.12446 1.6083,-2.86987 1.6084,-5.80789 1.6083,-8.40087 1.6084,-3.97763 3.2167,1.21164 1.6083,0.20216 1.6084,-0.27735 3.2167,-1.13318 1.6083,0.51375 1.6084,2.32348 1.6083,1.70023 1.6084,0.0169 1.6083,1.35878 1.6084,5.11593 1.6083,3.21903 1.6084,2.16905 1.6083,-1.47297 3.2167,2.89044 1.6084,0.26365 1.6083,-0.37453 1.6084,-2.8504 1.6083,-2.36358 1.6084,-0.79403 1.6083,2.43114 1.6084,3.02562 1.6083,1.16222 1.6084,0.72099 1.6083,0.32588 1.6084,-3.97805 3.2167,-16.40285 1.6083,-4.17692 1.6084,2.00505 1.6083,1.79214 1.6084,1.37371 1.6083,0.80376 1.6084,-0.44493 1.6083,0.13498 1.6084,-0.18314 1.6083,3.18903 1.6084,5.92466 1.6083,4.92108 1.6084,3.68799 1.6083,-1.01706 1.6084,-1.69555 1.6084,-1.52003 1.6083,-1.29903 1.6084,1.41136 1.6083,-0.10982 1.6084,-0.28202 1.6083,0.59509 1.6084,0.84229 1.6083,-0.0258 1.6084,1.89777 1.6083,1.11917 1.6084,0.30816 1.6083,-0.35049 1.6084,-2.25602 1.6083,-1.15589 1.6084,-4.46933 1.6083,-5.85745 1.6084,-6.97716 1.6083,-2.45817 1.6084,-0.0684 1.6083,3.30959 1.6084,2.82523 1.6083,0.44994 1.6084,0.0774 1.6083,3.21233 1.6084,4.57816 1.6083,5.94881 1.6084,0.93634 1.6083,-0.20332 3.2167,-3.18707 3.2167,-3.60812 1.6084,-1.41874 1.6083,0.92163 1.6084,2.63623 1.6083,2.97173 3.2167,4.6719 1.6084,1.09546 1.6083,0.41476 1.6084,-0.72321 3.2167,-7.66374 1.6083,-1.20625 1.6084,-2.44979 1.6083,-4.33793 1.6084,-3.50418 1.6083,-0.98319 1.6084,-0.52257 1.6083,-2.42617 1.6084,0.34065 1.6083,7.26028 1.6084,6.39921 1.6083,3.35619 1.6084,-2.66107 1.6083,-2.37629 1.6084,0.72546 1.6083,1.09844 1.6084,0.82365 1.6083,0.33866 1.6084,-0.0422 3.2167,-3.87569 1.6083,-0.80743 1.6084,3.75245 1.6083,2.85685 1.6084,3.59062 1.6083,1.88591 1.6084,2.69287 1.6083,0.3413 3.2167,-10.03855 1.6084,-3.34806 1.6083,-0.82978 1.6084,-0.65531 1.6083,-2.97079 1.6084,-2.58365 1.6083,-2.81115 1.6084,3.21525 1.6083,6.67069 1.6084,3.77843 1.6083,1.71904 1.6084,-2.85602 1.6083,-0.53266 1.6084,-1.80754 1.6083,-2.4667 1.6084,-2.17786 1.6083,0.12116 1.6084,0.98557 1.6083,1.45123 1.6084,1.67714 1.6083,0.42037 1.6084,-0.67336 1.6083,-0.48447 1.6084,0.59564 1.6083,3.58421 3.2167,5.17003 1.6084,3.32951 1.6083,-0.62249 1.6084,-2.82464 1.6084,-3.99742 1.6083,-3.25256 v 0"
       clip-path="url(#pb458ede164)"
       style="fill:none;stroke:#ff7f0e;stroke-width:1.5;stroke-linecap:square"
       id="path328450" />
  </g>
  <g
     id="line2d_29">
    <path
       d="m 1111.2338,320.72 1.6083,-84.30635 1.6084,-1.92969 1.6083,-2.41241 1.6084,-2.17377 1.6083,-1.9542 1.6084,-1.66623 3.2167,1.87471 3.2167,1.55492 3.2167,1.26401 3.2167,1.02501 1.6083,0.23998 1.6084,-4.52175 1.6083,-11.6516 1.6084,-14.97466 1.6083,-16.91041 1.6084,-9.82404 1.6083,-2.10352 1.6084,0.54127 1.6083,1.67636 1.6084,0.19595 1.6083,2.82536 1.6084,3.10241 1.6083,4.56061 1.6084,5.29898 3.2167,14.58115 1.6083,4.38057 1.6084,0.50796 1.6083,0.76762 1.6084,3.2706 1.6083,7.49343 1.6084,9.41846 1.6083,6.32503 1.6084,5.54695 1.6083,2.83524 1.6084,2.36383 1.6083,0.0926 1.6084,0.63283 1.6083,1.7093 1.6084,1.48522 1.6083,-1.09739 1.6084,-2.28604 1.6083,-4.16166 1.6084,-8.76445 3.2167,-30.20721 1.6083,-13.33765 1.6084,-2.64781 1.6083,0.55457 1.6084,1.57047 1.6083,-0.5542 1.6084,1.7594 1.6083,0.40865 3.2167,2.12455 1.6084,1.02722 1.6083,4.53288 3.2167,14.40198 1.6084,3.44288 3.2167,2.60494 1.6083,2.06108 1.6084,3.45458 1.6083,4.69569 1.6084,5.60734 1.6083,4.23598 1.6084,3.64338 1.6083,2.26165 1.6084,1.54714 1.6083,-2.47063 1.6084,-3.96159 1.6083,-7.99115 1.6084,-10.69164 1.6083,-13.12952 1.6084,-11.40089 1.6083,-1.66735 1.6084,1.20075 1.6083,-1.91304 1.6084,-3.62491 1.6083,-2.84246 1.6084,-1.02831 1.6083,1.65551 1.6084,4.89058 1.6083,5.38986 1.6084,4.11052 1.6083,2.80673 1.6084,4.3568 1.6083,6.26488 1.6084,5.80681 1.6083,1.52132 3.2167,1.30059 1.6084,0.82637 1.6083,1.89178 1.6084,3.32544 1.6084,4.42811 1.6083,3.88733 1.6084,0.87601 1.6083,-0.41195 1.6084,-1.85102 1.6083,-6.16973 1.6084,-11.07152 1.6083,-16.5996 1.6084,-10.30125 1.6083,-0.81646 1.6084,3.44848 1.6083,1.5837 1.6084,0.0443 1.6083,-0.52521 1.6084,0.72417 1.6083,0.54535 1.6084,0.96425 1.6083,3.33609 1.6084,2.93586 3.2167,2.90823 1.6083,3.70839 1.6084,6.22767 1.6083,5.45932 1.6084,2.66472 1.6083,0.52386 3.2167,0.41026 1.6084,0.25628 1.6083,-0.27165 1.6084,-0.62285 1.6083,0.18508 1.6084,0.44692 1.6083,-0.0882 1.6084,-7.49337 3.2167,-24.16269 1.6083,-0.97708 1.6084,1.22549 1.6083,3.07124 1.6084,1.44138 1.6083,2.37351 3.2167,6.69815 1.6084,0.22507 1.6083,-0.27619 1.6084,0.0207 1.6083,2.21721 1.6084,1.72264 1.6083,0.65775 1.6084,0.49034 1.6083,1.13739 1.6084,4.51639 1.6083,5.32107 1.6084,4.9081 1.6083,0.54286 1.6084,0.0256 1.6083,-2.83269 4.8251,-14.98517 1.6083,-0.22819 3.2167,-12.52155 1.6084,-7.09488 1.6083,0.18166 1.6084,3.71016 1.6083,1.2643 1.6084,5.93295 1.6083,5.11537 1.6084,2.43711 1.6083,-0.82384 1.6084,-0.067 1.6083,3.16453 1.6084,2.70055 1.6083,2.1158 1.6084,-0.376 1.6083,1.31605 1.6084,0.98538 1.6083,0.0485 1.6084,-0.0829 1.6083,0.0608 1.6084,0.63497 1.6083,1.49021 1.6084,2.14489 1.6083,0.44226 1.6084,-2.00675 3.2167,-6.12771 1.6083,-0.70457 1.6084,-7.15449 1.6083,-9.47792 1.6084,-7.59839 1.6083,-2.58925 1.6084,1.81596 1.6083,1.19584 1.6084,3.38512 1.6083,9.30254 1.6084,7.1949 1.6083,1.00441 1.6084,1.52299 1.6084,2.27167 1.6083,2.52103 1.6084,0.46921 1.6083,-0.84692 1.6084,0.64869 3.2167,3.89759 1.6083,-1.95677 1.6084,-2.71929 1.6083,-2.4266 1.6084,0.14822 3.2167,3.24051 3.2167,1.30339 1.6083,-0.37456 1.6084,1.69895 1.6083,-0.65593 1.6084,-8.90369 1.6083,-10.13641 1.6084,-9.13585 1.6083,-3.52859 1.6084,-0.86325 1.6083,0.68278 1.6084,2.63573 1.6083,6.49851 1.6084,5.89531 1.6083,7.63196 1.6084,5.00606 1.6083,0.55683 1.6084,-1.28462 1.6083,1.32327 1.6084,1.52093 1.6083,-0.62375 1.6084,-3.52967 1.6083,-0.33531 1.6084,3.69669 1.6083,4.27168 1.6084,2.39873 1.6083,-0.97073 1.6084,-2.11512 1.6083,-2.81577 1.6084,-1.62362 1.6083,0.80538 1.6084,4.2594 1.6083,1.98878 1.6084,-6.20869 3.2167,-16.74191 3.2167,-4.45477 3.2167,-4.19778 1.6083,-1.25466 1.6084,5.08472 1.6083,5.90434 1.6084,3.28306 1.6083,-0.61402 1.6084,1.59592 1.6083,3.01559 1.6084,5.95051 1.6083,1.59882 1.6084,1.02108 1.6083,1.24025 1.6084,1.67876 1.6083,1.01703 4.8251,0.67654 1.6083,-0.21122 1.6084,-0.49435 1.6083,-1.87592 1.6084,0.96402 1.6083,0.74657 1.6084,-3.20854 1.6083,-3.59696 1.6084,-7.38147 1.6083,-2.27372 1.6084,-1.03453 1.6083,-2.72344 1.6084,-2.09829 1.6083,-4.27927 1.6084,-3.47618 3.2167,2.6658 1.6083,4.17144 1.6084,3.05241 1.6083,2.43133 1.6084,0.44816 1.6083,4.15238 3.2167,13.70212 1.6084,2.35873 1.6083,-2.32872 1.6084,-1.62446 1.6083,1.14425 1.6084,3.10618 1.6083,0.19873 1.6084,-3.30669 1.6083,-2.82579 1.6084,1.67424 1.6084,1.41605 1.6083,-3.51473 1.6084,-4.7817 1.6083,-2.83481 1.6084,2.88182 1.6083,-2.17128 1.6084,-4.20737 3.2167,-9.96717 1.6083,-2.20214 1.6084,-1.19594 1.6083,3.61609 1.6084,3.11288 1.6083,1.98815 1.6084,-0.0341 1.6083,1.1417 1.6084,2.18463 1.6083,4.1982 3.2167,3.13676 1.6084,4.28206 1.6083,5.77394 1.6084,3.59075 1.6083,-1.91124 1.6084,-4.77191 1.6083,-1.71682 1.6084,0.51088 1.6083,3.48598 1.6084,0.35432 3.2167,-15.35391 1.6083,-5.73427 3.2167,8.07036 1.6084,2.11049 1.6083,0.45037 1.6084,-4.48628 1.6083,-3.41104 1.6084,-3.10991 1.6083,-1.53686 3.2167,5.3908 1.6084,2.22587 1.6083,-0.64108 1.6084,-1.24093 1.6083,-0.64925 1.6084,3.83562 1.6083,4.74809 1.6084,4.01298 1.6083,1.41104 1.6084,1.25122 1.6083,0.92936 1.6084,0.30205 1.6083,0.6794 1.6084,-1.31867 1.6083,-1.15553 1.6084,-4.01271 1.6083,-8.88439 1.6084,-6.79098 1.6083,-2.49302 1.6084,5.22295 1.6083,2.74127 1.6084,1.77061 1.6083,2.96047 1.6084,4.84589 1.6083,1.80743 1.6084,-2.42528 1.6083,-3.97609 1.6084,-3.06817 1.6083,2.06586 1.6084,1.78145 1.6083,0.61108 1.6084,-1.2246 1.6083,-0.76301 1.6084,-0.36956 1.6083,1.79947 1.6084,2.10997 1.6083,3.26255 1.6084,3.64619 1.6083,1.8188 1.6084,-3.94644 3.2167,-10.44686 1.6083,1.09678 1.6084,2.77666 1.6083,-1.12882 3.2167,-12.2604 1.6084,1.30084 1.6083,2.62678 1.6084,5.17755 1.6083,4.02363 1.6084,2.04326 1.6083,-0.86603 1.6084,-1.04605 1.6083,1.20041 1.6084,1.84915 1.6083,0.0254 3.2167,2.56501 1.6084,0.62768 1.6084,-1.4052 3.2167,-3.22053 1.6083,1.38801 1.6084,0.34091 1.6083,-0.75633 1.6084,-1.52395 1.6083,-1.74137 3.2167,2.21407 1.6084,0.19588 1.6083,-3.44628 1.6084,-8.18976 1.6083,-5.58751 1.6084,0.52261 1.6083,8.08827 1.6084,4.74017 1.6083,0.92554 1.6084,0.72998 1.6083,5.2e-4 1.6084,-0.74312 1.6083,1.29567 1.6084,0.8626 1.6083,1.08442 1.6084,-1.07405 1.6083,-0.15167 3.2167,9.28903 1.6084,2.83238 1.6083,-3.6208 1.6084,-4.28232 1.6083,-3.52958 1.6084,-0.66442 1.6083,1.23597 1.6084,0.28781 3.2167,-2.48435 1.6083,-0.98075 1.6084,3.27536 1.6083,1.45369 1.6084,-4.67096 1.6083,-8.65329 1.6084,-7.873 1.6083,0.48174 1.6084,4.39466 1.6083,5.85863 1.6084,6.77133 1.6083,5.10985 1.6084,0.50622 1.6083,-2.45555 1.6084,-2.10002 1.6083,-3.64412 1.6084,-1.96937 1.6083,0.50844 1.6084,2.26134 1.6083,5.41028 1.6084,1.82038 1.6083,-1.10086 1.6084,0.55554 1.6083,1.52724 3.2167,2.31383 1.6084,0.0993 1.6083,-2.01679 1.6084,-2.45893 1.6083,-2.14046 1.6084,1.05244 1.6083,-0.62859 1.6084,-5.39551 1.6083,-4.30765 1.6084,-3.74802 1.6083,2.04371 1.6084,0.17558 1.6083,0.3436 3.2167,4.42491 1.6084,2.58365 3.2167,4.47108 1.6083,0.0107 1.6084,-3.24573 1.6083,-5.46251 1.6084,-4.98211 1.6083,-1.59637 1.6084,4.93794 3.2167,15.35683 1.6083,2.65686 1.6084,-2.14093 1.6083,-1.64812 1.6084,1.30349 1.6083,0.97174 1.6084,0.69114 1.6083,-1.62597 1.6084,0.89413 1.6083,-1.60956 3.2167,-12.92894 1.6084,-5.33836 1.6083,2.59393 1.6084,3.31886 1.6084,1.95764 1.6083,1.52419 1.6084,-0.41171 1.6083,-0.075 1.6084,-1.09445 1.6083,-3.28612 1.6084,-3.65134 1.6083,-0.10065 1.6084,0.0153 1.6083,1.59629 1.6084,1.82746 1.6083,1.64089 1.6084,3.01664 1.6083,2.45229 1.6084,3.03951 1.6083,1.95798 1.6084,3.46672 1.6083,0.99673 1.6084,0.4684 1.6083,-2.41742 1.6084,-1.76719 1.6083,2.70453 1.6084,1.80329 1.6083,-3.73744 3.2167,-13.36632 1.6084,1.00795 1.6083,1.83449 1.6084,0.27413 1.6083,-0.84302 1.6084,-0.60421 1.6083,0.0106 1.6084,2.49048 1.6083,2.1164 1.6084,0.024 1.6083,-2.26297 1.6084,-2.5412 1.6083,-3.07464 1.6084,-1.24379 1.6083,-0.90665 1.6084,0.004 3.2167,12.93191 1.6083,3.81848 1.6084,-0.38845 1.6083,-0.59623 1.6084,-1.7561 1.6083,0.0136 1.6084,1.07419 1.6083,4.56375 1.6084,1.17911 3.2167,-13.72598 1.6083,-5.50876 3.2167,6.01077 1.6084,-0.13169 3.2167,3.60511 1.6083,0.90146 1.6084,-0.33903 1.6083,1.07842 3.2167,3.3337 1.6084,-2.4945 1.6083,-3.60977 1.6084,-5.7197 1.6083,-4.13404 1.6084,-2.52054 1.6083,0.19476 3.2167,10.77429 1.6084,3.40579 1.6083,1.10791 1.6084,-0.4269 1.6083,0.3326 1.6084,0.85647 1.6083,3.17834 1.6084,-3.20021 1.6083,-8.50461 1.6084,-5.84427 1.6083,-3.63505 1.6084,5.36642 3.2167,6.04615 1.6083,4.43907 1.6084,5.02191 1.6083,3.78031 1.6084,0.72073 1.6083,-0.57964 1.6084,-1.89946 1.6083,-1.50484 1.6084,-0.77044 1.6083,0.54848 1.6084,-0.11815 1.6083,-4.41772 3.2167,-9.3813 1.6084,-2.7432 1.6083,2.80412 1.6084,3.63548 1.6084,2.5261 1.6083,-1.4413 v 0"
       clip-path="url(#pb458ede164)"
       style="fill:none;stroke:#2ca02c;stroke-width:1.5;stroke-linecap:square"
       id="path328453" />
  </g>
  <g
     id="patch_9">
    <path
       d="M 1111.2338,320.72 V 17.28"
       style="fill:none;stroke:#000000;stroke-width:0.8;stroke-linecap:square;stroke-linejoin:miter"
       id="path328456" />
  </g>
  <g
     id="patch_10">
    <path
       d="m 1111.2338,320.72 h 488.1343"
       style="fill:none;stroke:#000000;stroke-width:0.8;stroke-linecap:square;stroke-linejoin:miter"
       id="path328459" />
  </g>
  <g
     id="patch_11">
    <path
       d="M 1641.9606,320.72 H 2130.095 V 17.28 h -488.1344 z"
       style="fill:#ffffff"
       id="path328463" />
  </g>
  <g
     id="matplotlib.axis_7">
    <g
       id="xtick_13">
      <g
         id="line2d_30">
        <g
           id="g328468">
          <use
             xlink:href="#mca881ee176"
             x="1641.9606"
             y="320.72"
             style="stroke:#000000;stroke-width:0.8"
             id="use328466"
             width="100%"
             height="100%" />
        </g>
      </g>
      <g
         id="text_16">
        <text
           style="font-style:normal;font-variant:normal;font-weight:normal;font-stretch:normal;font-size:16px;line-height:normal;font-family:Arial;text-anchor:middle"
           x="1641.9606"
           y="339.8775"
           id="text328471">0.0</text>
      </g>
    </g>
    <g
       id="xtick_14">
      <g
         id="line2d_31">
        <g
           id="g328477">
          <use
             xlink:href="#mca881ee176"
             x="1804.6721"
             y="320.72"
             style="stroke:#000000;stroke-width:0.8"
             id="use328475"
             width="100%"
             height="100%" />
        </g>
      </g>
      <g
         id="text_17">
        <text
           style="font-style:normal;font-variant:normal;font-weight:normal;font-stretch:normal;font-size:16px;line-height:normal;font-family:Arial;text-anchor:middle"
           x="1804.6721"
           y="339.8775"
           id="text328480">0.1</text>
      </g>
    </g>
    <g
       id="xtick_15">
      <g
         id="line2d_32">
        <g
           id="g328486">
          <use
             xlink:href="#mca881ee176"
             x="1967.3835"
             y="320.72"
             style="stroke:#000000;stroke-width:0.8"
             id="use328484"
             width="100%"
             height="100%" />
        </g>
      </g>
      <g
         id="text_18">
        <text
           style="font-style:normal;font-variant:normal;font-weight:normal;font-stretch:normal;font-size:16px;line-height:normal;font-family:Arial;text-anchor:middle"
           x="1967.3835"
           y="339.8775"
           id="text328489">0.2</text>
      </g>
    </g>
    <g
       id="xtick_16">
      <g
         id="line2d_33">
        <g
           id="g328495">
          <use
             xlink:href="#mca881ee176"
             x="2130.095"
             y="320.72"
             style="stroke:#000000;stroke-width:0.8"
             id="use328493"
             width="100%"
             height="100%" />
        </g>
      </g>
      <g
         id="text_19">
        <text
           style="font-style:normal;font-variant:normal;font-weight:normal;font-stretch:normal;font-size:16px;line-height:normal;font-family:Arial;text-anchor:middle"
           x="2130.095"
           y="339.8775"
           id="text328498">0.3</text>
      </g>
    </g>
  </g>
  <g
     id="matplotlib.axis_8">
    <g
       id="ytick_10">
      <g
         id="line2d_34">
        <g
           id="g328505">
          <use
             xlink:href="#m030b1c9c06"
             x="1641.9606"
             y="320.72"
             style="stroke:#000000;stroke-width:0.8"
             id="use328503"
             width="100%"
             height="100%" />
        </g>
      </g>
    </g>
    <g
       id="ytick_11">
      <g
         id="line2d_35">
        <g
           id="g328511">
          <use
             xlink:href="#m030b1c9c06"
             x="1641.9606"
             y="194.28667"
             style="stroke:#000000;stroke-width:0.8"
             id="use328509"
             width="100%"
             height="100%" />
        </g>
      </g>
    </g>
    <g
       id="ytick_12">
      <g
         id="line2d_36">
        <g
           id="g328517">
          <use
             xlink:href="#m030b1c9c06"
             x="1641.9606"
             y="67.853333"
             style="stroke:#000000;stroke-width:0.8"
             id="use328515"
             width="100%"
             height="100%" />
        </g>
      </g>
    </g>
  </g>
  <g
     id="line2d_37">
    <path
       d="m 1641.9606,320.72 1.6057,-84.28889 67.4396,2e-5 1.6058,0.11248 1.6057,3.43193 1.6057,3.04189 1.6057,2.68952 1.6057,2.37995 1.6057,2.10801 1.6057,1.86909 1.6057,1.65913 1.6057,2.60942 1.6057,4.39596 1.6057,6.46861 4.8171,26.05005 1.6057,7.64293 1.6057,4.61276 1.6057,1.25859 1.6057,-0.25633 1.6057,-0.84117 1.6058,-1.93637 1.6057,-3.27661 4.8171,-11.36922 1.6057,-2.65015 3.2114,-4.21214 1.6057,-2.53928 1.6057,-1.4112 1.6057,-0.45503 1.6057,-0.85493 1.6057,-2.54964 1.6057,-4.48846 6.4228,-9.6564 3.2115,-4.11499 3.2114,-3.47296 3.2114,-2.90338 3.2114,-2.4109 3.2114,-1.99195 3.2114,-1.63955 3.2114,-1.34559 3.2114,-1.10186 3.2114,-0.90073 4.8171,-1.05045 4.8172,-0.77311 4.8171,-0.56807 6.4228,-0.52959 8.0285,-0.41726 11.24,-0.31691 16.057,-0.19147 17.6628,-0.0713 1.6057,0.36517 1.6057,3.40496 3.2114,6.10362 1.6057,7.79517 1.6057,8.87341 3.2114,19.68783 3.2114,15.81315 1.6057,5.8437 1.6057,1.75736 3.2114,-0.26961 1.6057,-1.21135 1.6058,-0.82981 1.6057,-3.07121 1.6057,-2.55896 1.6057,-2.79251 1.6057,-3.60896 3.2114,-6.03614 3.2114,-12.74861 1.6057,-5.6153 1.6057,-4.03171 1.6057,1.08419 1.6057,2.69291 1.6057,1.52642 3.2114,-1.13671 1.6057,-2.57725 1.6057,-3.16432 1.6057,-2.78947 1.6058,-2.16925 1.6057,-1.74259 1.6057,-0.87287 1.6057,0.18624 1.6057,0.0221 1.6057,-1.03051 4.8171,-4.26358 3.2114,-2.34724 3.2114,-1.92057 3.2114,-1.56745 3.2114,-1.27741 3.2114,-1.04004 3.2115,-0.84618 4.8171,-0.9823 4.8171,-0.71985 6.4228,-0.66957 6.4228,-0.44187 9.6343,-0.39768 12.8456,-0.25922 20.8742,-0.14797 9.6342,0.0625 1.6057,3.42741 3.2114,6.17487 1.6057,7.4709 3.2114,22.59534 1.6057,10.09099 1.6057,9.2953 1.6057,6.85124 1.6058,4.5824 1.6057,1.0279 1.6057,-0.94131 1.6057,-1.18587 1.6057,-1.62912 1.6057,-3.22595 3.2114,-5.43492 3.2114,-6.99217 1.6057,-2.14669 1.6057,-2.95483 1.6057,-3.79543 1.6057,-3.24936 3.2114,-7.41806 1.6057,-3.87358 1.6057,-3.23635 1.6057,-1.94222 1.6058,0.0509 1.6057,-1.02314 1.6057,-4.55732 1.6057,-3.01469 1.6057,-1.54672 1.6057,-1.38216 1.6057,-1.08744 1.6057,-0.62051 1.6057,0.0828 1.6057,0.23092 1.6057,-0.56943 6.4228,-3.25337 3.2114,-1.2887 3.2114,-1.05073 3.2115,-0.85568 4.8171,-0.99419 4.8171,-0.72917 6.4228,-0.67868 6.4228,-0.44816 8.0286,-0.35243 11.2399,-0.26727 3.608,-0.0518 v 0"
       clip-path="url(#p3a61405027)"
       style="fill:none;stroke:#1f77b4;stroke-width:1.5;stroke-linecap:square"
       id="path328522" />
  </g>
  <g
     id="line2d_38">
    <path
       d="m 1641.9606,320.72 1.6057,-84.28889 69.0454,-0.0285 1.6057,-0.84312 3.2114,-1.28732 3.2114,-0.89339 3.2114,-0.62464 1.6057,1.19687 6.4228,42.56376 1.6057,6.40021 1.6057,2.07752 1.6057,1.20837 1.6057,-10.02294 1.6057,-19.11591 1.6057,-25.00217 1.6058,-28.9659 1.6057,-19.69798 1.6057,-13.24126 1.6057,-4.46628 1.6057,2.25043 3.2114,6.97722 1.6057,3.52271 1.6057,5.49219 1.6057,6.07093 3.2114,11.28164 1.6057,4.9059 1.6057,4.46078 1.6057,2.55417 3.2114,4.4113 3.2114,3.42004 3.2115,2.82101 3.2114,2.31947 3.2114,1.90078 3.2114,1.55387 3.2114,1.26807 3.2114,1.03354 3.2114,0.84159 4.8171,0.97777 4.8171,0.71703 6.4229,0.66731 6.4228,0.44059 9.6342,0.39664 12.8457,0.2586 20.8741,0.14763 14.4514,-0.0618 1.6057,-0.83136 1.6057,-0.69138 1.6057,-0.45443 1.6057,6.70377 3.2114,21.17255 3.2114,19.05703 1.6057,4.5505 1.6057,1.6681 1.6057,-6.96248 1.6057,-16.53612 1.6057,-22.34257 3.2115,-56.79511 1.6057,-16.06437 1.6057,-12.10528 1.6057,-1.96057 1.6057,6.21389 3.2114,17.28392 1.6057,12.48004 1.6057,10.0275 3.2114,13.45737 1.6057,4.43735 1.6057,5.75822 1.6057,3.91195 1.6057,1.9078 1.6057,0.76802 1.6057,0.58908 3.2114,0.51852 1.6058,0.84106 1.6057,2.31786 1.6057,3.69785 1.6057,3.07004 1.6057,1.15221 1.6057,-0.43676 4.8171,-1.87612 3.2114,-0.94358 3.2114,-0.72969 4.8171,-0.80185 4.8171,-0.55628 6.4229,-0.49337 8.0285,-0.37157 11.2399,-0.27208 17.6628,-0.16871 35.3255,-0.0917 1.6057,-0.84323 1.6057,-0.70395 1.6057,-0.20466 1.6057,4.72425 1.6057,9.00844 3.2114,23.56976 1.6057,7.11829 1.6057,2.70093 1.6058,2.05639 1.6057,-7.6779 1.6057,-18.89431 1.6057,-25.93188 1.6057,-29.71287 1.6057,-20.05434 1.6057,-15.15272 1.6057,-4.4388 1.6057,2.38512 1.6057,3.14381 1.6057,5.57758 1.6057,7.27535 3.2114,18.27054 1.6057,7.72739 3.2114,10.63087 3.2114,6.61509 1.6058,2.35157 1.6057,3.65579 1.6057,4.68181 1.6057,2.28373 1.6057,0.55044 4.8171,-0.0527 1.6057,0.31097 1.6057,0.4873 1.6057,0.3692 1.6057,0.2012 1.6057,-0.0283 11.2399,-1.07119 8.0286,-0.39032 11.2399,-0.27843 17.6628,-0.16919 10.0308,-0.0369 v 0"
       clip-path="url(#p3a61405027)"
       style="fill:none;stroke:#ff7f0e;stroke-width:1.5;stroke-linecap:square"
       id="path328525" />
  </g>
  <g
     id="line2d_39">
    <path
       d="m 1641.9606,320.72 1.6057,-84.28889 69.0454,-0.084 1.6057,-2.58882 1.6057,-2.33912 1.6057,-2.10496 1.6057,-1.89297 1.6057,-1.70161 1.6057,-1.52919 1.6057,-1.3744 1.6057,-3.80627 1.6057,-15.11231 1.6057,-17.74485 3.2114,-37.64602 1.6057,-15.37541 1.6057,-9.72046 1.6057,-5.82112 1.6057,8.76434 1.6057,19.37224 1.6057,25.84334 1.6058,30.90228 1.6057,22.9746 1.6057,17.03854 1.6057,8.38283 1.6057,1.40493 1.6057,-0.74602 3.2114,-2.89162 1.6057,-2.95289 1.6057,-4.65973 3.2114,-9.97169 1.6057,-2.35623 1.6057,0.0276 1.6057,-0.10509 1.6057,0.0101 4.8171,1.50765 4.8172,1.40815 4.8171,1.16241 4.8171,0.92035 4.8171,0.7105 6.4228,0.68791 6.4228,0.46811 8.0286,0.37578 11.2399,0.28946 17.6628,0.18613 32.1141,0.0765 1.6057,-0.27426 1.6057,-2.57359 1.6057,-2.32047 1.6057,-2.63735 1.6057,-14.49893 4.8171,-59.54988 1.6057,-17.28172 1.6057,-12.32288 1.6057,-7.51179 1.6057,5.20511 1.6057,16.6249 1.6057,22.52339 3.2115,58.83628 1.6057,19.13558 1.6057,14.66423 1.6057,4.75308 1.6057,-2.60491 1.6057,-5.84222 1.6057,-5.40557 1.6057,-6.2065 1.6057,-3.55242 1.6057,-1.00304 1.6057,-2.80733 1.6057,-5.52154 1.6057,-8.45113 1.6057,-5.43834 1.6057,-1.3776 1.6057,-0.16154 1.6057,1.98815 1.6057,2.9094 1.6057,2.5259 1.6058,1.32819 1.6057,-0.57526 1.6057,-2.82502 1.6057,-3.25626 1.6057,-1.17437 1.6057,1.46727 4.8171,6.13971 1.6057,1.73399 1.6057,1.55684 3.2114,2.65026 3.2114,2.13429 3.2114,1.72047 3.2114,1.38824 3.2115,1.12129 3.2114,0.9064 4.8171,1.0457 4.8171,0.76193 4.8171,0.55577 6.4228,0.51502 8.0286,0.40369 11.2399,0.30539 16.057,0.184 16.0571,3.8e-4 1.6057,-2.58418 1.6057,-2.33845 1.6057,-2.92782 1.6057,-12.19514 1.6057,-20.38524 3.2114,-44.87928 1.6057,-16.41359 1.6057,-9.55218 1.6058,-6.63881 1.6057,6.65002 1.6057,19.83562 1.6057,27.11775 1.6057,31.34201 1.6057,23.28027 1.6057,17.85502 1.6057,7.17143 1.6057,1.23848 1.6057,0.22475 1.6057,-3.4309 1.6057,-4.32051 1.6057,-5.19358 1.6057,-6.03217 1.6057,-4.14783 3.2114,-2.91879 1.6057,-0.0382 1.6057,-1.39837 1.6058,-2.40248 1.6057,-2.63266 1.6057,-0.12447 1.6057,0.73096 1.6057,0.99625 1.6057,1.40747 1.6057,1.16807 1.6057,0.56732 1.6057,-0.39378 1.6057,-0.71822 1.6057,0.20023 1.6057,0.64192 3.2114,1.85771 3.2114,1.7952 3.2114,1.46361 3.2114,1.18253 3.2115,0.95599 3.2114,0.77342 4.8171,0.89298 4.8171,0.65117 6.4228,0.60325 8.0285,0.47273 9.6343,0.32099 6.8194,0.13185 v 0"
       clip-path="url(#p3a61405027)"
       style="fill:none;stroke:#2ca02c;stroke-width:1.5;stroke-linecap:square"
       id="path328528" />
  </g>
  <g
     id="line2d_40">
    <path
       d="m 1641.9606,194.28667 6.4228,-31.03755 4.8172,-22.1322 3.2114,-13.78046 3.2114,-12.75218 3.2114,-11.52805 3.2114,-10.126847 1.6057,-4.488465 1.6057,-4.081656 1.6057,-3.659162 1.6057,-3.222602 1.6057,-2.773658 1.6057,-2.314053 1.6057,-1.845553 1.6057,-1.369962 1.6057,-0.889105 1.6058,-0.40483 1.6057,0.081 1.6057,0.56652 1.6057,1.049861 1.6057,1.529168 1.6057,2.002598 1.6057,2.468331 1.6057,2.924576 1.6057,3.369583 1.6057,3.801637 1.6057,4.219081 1.6057,4.620309 1.6057,5.003779 3.2114,11.07964 3.2114,12.36503 3.2114,13.46051 3.2115,14.34923 4.8171,22.70523 12.8456,61.86308 3.2114,14.47625 3.2114,13.62339 3.2114,12.56129 3.2115,11.30626 1.6057,5.1274 1.6057,4.75018 1.6057,4.35471 1.6057,3.94249 1.6057,3.51512 1.6057,3.07424 1.6057,2.62156 1.6057,2.15878 1.6057,1.68773 1.6057,1.21016 1.6057,0.72797 1.6057,0.24297 1.6057,-0.24297 1.6057,-0.72797 1.6057,-1.21016 1.6057,-1.68773 1.6057,-2.15878 1.6058,-2.62156 1.6057,-3.07424 1.6057,-3.51512 1.6057,-3.94249 1.6057,-4.35471 1.6057,-4.75018 3.2114,-10.61231 3.2114,-11.95675 3.2114,-13.11755 3.2114,-14.07687 4.8171,-22.43788 16.0571,-76.73376 3.2114,-13.93164 3.2114,-12.93762 3.2114,-11.74491 3.2114,-10.371799 1.6057,-4.620309 1.6057,-4.219081 1.6057,-3.801637 1.6057,-3.369583 1.6058,-2.924576 1.6057,-2.468331 1.6057,-2.002598 1.6057,-1.529168 1.6057,-1.049861 1.6057,-0.56652 1.6057,-0.081 1.6057,0.40483 1.6057,0.889105 1.6057,1.369962 1.6057,1.845553 1.6057,2.314053 1.6057,2.773658 1.6057,3.222602 1.6057,3.659162 1.6057,4.081656 1.6057,4.488465 1.6057,4.878021 3.2115,10.848296 3.2114,12.16349 3.2114,13.29186 3.2114,14.21609 4.8171,22.57638 14.4513,69.34267 3.2115,14.21609 3.2114,13.29186 3.2114,12.16349 3.2114,10.8483 1.6057,4.87802 1.6057,4.48846 1.6057,4.08166 1.6057,3.65916 1.6057,3.22261 1.6057,2.77365 1.6057,2.31406 1.6057,1.84555 1.6057,1.36996 1.6057,0.88911 1.6057,0.40483 1.6057,-0.081 1.6058,-0.56651 1.6057,-1.04987 1.6057,-1.52916 1.6057,-2.0026 1.6057,-2.46833 1.6057,-2.92458 1.6057,-3.36958 1.6057,-3.80164 1.6057,-4.21908 1.6057,-4.62031 1.6057,-5.00378 3.2114,-11.07964 3.2114,-12.36503 3.2114,-13.4605 3.2114,-14.34924 4.8172,-22.70523 12.8456,-61.86308 3.2114,-14.47625 3.2114,-13.62339 3.2114,-12.56129 3.2114,-11.30626 1.6057,-5.1274 1.6058,-4.750179 1.6057,-4.354703 1.6057,-3.942489 1.6057,-3.515123 1.6057,-3.074246 1.6057,-2.621554 1.6057,-2.158786 1.6057,-1.687722 1.6057,-1.21017 1.6057,-0.727968 1.6057,-0.242967 1.6057,0.242967 1.6057,0.727968 1.6057,1.21017 1.6057,1.687722 1.6057,2.158786 1.6057,2.621554 1.6057,3.074246 1.6057,3.515123 1.6058,3.942489 1.6057,4.354703 1.6057,4.750179 3.2114,10.61231 3.2114,11.95675 3.2114,13.11755 3.2114,14.07687 4.8171,22.43789 16.0571,76.73375 3.2114,13.93164 3.2114,12.93763 3.2114,11.7449 3.2114,10.3718 1.6057,4.62031 1.6057,4.21908 1.6057,3.80164 1.6057,3.36958 1.6057,2.92458 1.6057,2.46833 1.6058,2.0026 1.6057,1.52916 1.6057,1.04987 1.6057,0.56651 1.6057,0.081 1.6057,-0.40483 1.6057,-0.88911 1.6057,-1.36996 1.6057,-1.84555 1.6057,-2.31406 1.6057,-2.77365 1.6057,-3.22261 1.6057,-3.65916 1.6057,-4.08166 1.6057,-4.48846 1.6057,-4.87802 3.2114,-10.8483 3.2114,-12.16349 3.2115,-13.29186 3.2114,-14.21609 4.8171,-22.57638 14.4513,-69.34267 3.2114,-14.21609 3.2115,-13.29186 3.2114,-12.16349 3.2114,-10.848296 1.6057,-4.878021 1.6057,-4.488465 1.6057,-4.081656 1.6057,-3.659162 2.0023,-3.907683 v 0"
       clip-path="url(#p3a61405027)"
       style="fill:none;stroke:#000000;stroke-width:0.5;stroke-dasharray:3.2, 0.8, 0.5, 0.8;stroke-dashoffset:0"
       id="path328531" />
  </g>
  <g
     id="patch_12">
    <path
       d="M 1641.9606,320.72 V 17.28"
       style="fill:none;stroke:#000000;stroke-width:0.8;stroke-linecap:square;stroke-linejoin:miter"
       id="path328534" />
  </g>
  <g
     id="patch_13">
    <path
       d="M 1641.9606,320.72 H 2130.095"
       style="fill:none;stroke:#000000;stroke-width:0.8;stroke-linecap:square;stroke-linejoin:miter"
       id="path328537" />
  </g>
  <defs
     id="defs328554">
    <clipPath
       id="p935c7a92ec">
      <rect
         x="49.78"
         y="17.28"
         width="488.134375"
         height="303.44"
         id="rect328542" />
    </clipPath>
    <clipPath
       id="pd7ec2ed18e">
      <rect
         x="580.506875"
         y="17.28"
         width="488.134375"
         height="303.44"
         id="rect328545" />
    </clipPath>
    <clipPath
       id="pb458ede164">
      <rect
         x="1111.23375"
         y="17.28"
         width="488.134375"
         height="303.44"
         id="rect328548" />
    </clipPath>
    <clipPath
       id="p3a61405027">
      <rect
         x="1641.960625"
         y="17.28"
         width="488.134375"
         height="303.44"
         id="rect328551" />
    </clipPath>
  </defs>
</svg>
