<?xml version="1.0" encoding="utf-8" standalone="no"?>
<!DOCTYPE svg PUBLIC "-//W3C//DTD SVG 1.1//EN"
  "http://www.w3.org/Graphics/SVG/1.1/DTD/svg11.dtd">
<svg xmlns:xlink="http://www.w3.org/1999/xlink" width="2160pt" height="360pt" viewBox="0 0 2160 360" xmlns="http://www.w3.org/2000/svg" version="1.1">
 <metadata>
  <rdf:RDF xmlns:dc="http://purl.org/dc/elements/1.1/" xmlns:cc="http://creativecommons.org/ns#" xmlns:rdf="http://www.w3.org/1999/02/22-rdf-syntax-ns#">
   <cc:Work>
    <dc:type rdf:resource="http://purl.org/dc/dcmitype/StillImage"/>
    <dc:date>2023-03-21T14:12:55.775335</dc:date>
    <dc:format>image/svg+xml</dc:format>
    <dc:creator>
     <cc:Agent>
      <dc:title>Matplotlib v3.5.2, https://matplotlib.org/</dc:title>
     </cc:Agent>
    </dc:creator>
   </cc:Work>
  </rdf:RDF>
 </metadata>
 <defs>
  <style type="text/css">*{stroke-linejoin: round; stroke-linecap: butt}</style>
 </defs>
 <g id="figure_1">
  <g id="patch_1">
   <path d="M 0 360 
L 2160 360 
L 2160 0 
L 0 0 
L 0 360 
z
" style="fill: none"/>
  </g>
  <g id="axes_1">
   <g id="patch_2">
    <path d="M 49.78 320.72 
L 537.914375 320.72 
L 537.914375 17.28 
L 49.78 17.28 
z
" style="fill: #ffffff"/>
   </g>
   <g id="matplotlib.axis_1">
    <g id="xtick_1">
     <g id="line2d_1">
      <defs>
       <path id="m150fe12dfa" d="M 0 0 
L 0 3.5 
" style="stroke: #000000; stroke-width: 0.8"/>
      </defs>
      <g>
       <use xlink:href="#m150fe12dfa" x="49.78" y="320.72" style="stroke: #000000; stroke-width: 0.8"/>
      </g>
     </g>
     <g id="text_1">
      <text style="font: 16px 'Arial'; text-anchor: middle" x="49.78" y="339.8775" transform="rotate(-0, 49.78, 339.8775)">0.0</text>
     </g>
    </g>
    <g id="xtick_2">
     <g id="line2d_2">
      <g>
       <use xlink:href="#m150fe12dfa" x="212.491458" y="320.72" style="stroke: #000000; stroke-width: 0.8"/>
      </g>
     </g>
     <g id="text_2">
      <text style="font: 16px 'Arial'; text-anchor: middle" x="212.491458" y="339.8775" transform="rotate(-0, 212.491458, 339.8775)">0.1</text>
     </g>
    </g>
    <g id="xtick_3">
     <g id="line2d_3">
      <g>
       <use xlink:href="#m150fe12dfa" x="375.202917" y="320.72" style="stroke: #000000; stroke-width: 0.8"/>
      </g>
     </g>
     <g id="text_3">
      <text style="font: 16px 'Arial'; text-anchor: middle" x="375.202917" y="339.8775" transform="rotate(-0, 375.202917, 339.8775)">0.2</text>
     </g>
    </g>
    <g id="xtick_4">
     <g id="line2d_4">
      <g>
       <use xlink:href="#m150fe12dfa" x="537.914375" y="320.72" style="stroke: #000000; stroke-width: 0.8"/>
      </g>
     </g>
     <g id="text_4">
      <text style="font: 16px 'Arial'; text-anchor: middle" x="537.914375" y="339.8775" transform="rotate(-0, 537.914375, 339.8775)">0.3</text>
     </g>
    </g>
   </g>
   <g id="matplotlib.axis_2">
    <g id="ytick_1">
     <g id="line2d_5">
      <defs>
       <path id="m416d4a9065" d="M 0 0 
L -3.5 0 
" style="stroke: #000000; stroke-width: 0.8"/>
      </defs>
      <g>
       <use xlink:href="#m416d4a9065" x="49.78" y="320.72" style="stroke: #000000; stroke-width: 0.8"/>
      </g>
     </g>
     <g id="text_5">
      <text style="font: 16px 'Arial'; text-anchor: end" x="42.78" y="326.79875" transform="rotate(-0, 42.78, 326.79875)">0.0</text>
     </g>
    </g>
    <g id="ytick_2">
     <g id="line2d_6">
      <g>
       <use xlink:href="#m416d4a9065" x="49.78" y="194.286667" style="stroke: #000000; stroke-width: 0.8"/>
      </g>
     </g>
     <g id="text_6">
      <text style="font: 16px 'Arial'; text-anchor: end" x="42.78" y="200.365417" transform="rotate(-0, 42.78, 200.365417)">0.5</text>
     </g>
    </g>
    <g id="ytick_3">
     <g id="line2d_7">
      <g>
       <use xlink:href="#m416d4a9065" x="49.78" y="67.853333" style="stroke: #000000; stroke-width: 0.8"/>
      </g>
     </g>
     <g id="text_7">
      <text style="font: 16px 'Arial'; text-anchor: end" x="42.78" y="73.932083" transform="rotate(-0, 42.78, 73.932083)">1.0</text>
     </g>
    </g>
   </g>
   <g id="line2d_8">
    <path d="M 49.78 67.853333 
L 1026.04875 67.853333 
L 1026.04875 67.853333 
" clip-path="url(#pda8dc573b9)" style="fill: none; stroke: #1f77b4; stroke-width: 1.5; stroke-linecap: square"/>
   </g>
   <g id="patch_3">
    <path d="M 49.78 320.72 
L 49.78 17.28 
" style="fill: none; stroke: #000000; stroke-width: 0.8; stroke-linejoin: miter; stroke-linecap: square"/>
   </g>
   <g id="patch_4">
    <path d="M 49.78 320.72 
L 537.914375 320.72 
" style="fill: none; stroke: #000000; stroke-width: 0.8; stroke-linejoin: miter; stroke-linecap: square"/>
   </g>
  </g>
  <g id="axes_2">
   <g id="patch_5">
    <path d="M 580.506875 320.72 
L 1068.64125 320.72 
L 1068.64125 17.28 
L 580.506875 17.28 
z
" style="fill: #ffffff"/>
   </g>
   <g id="matplotlib.axis_3">
    <g id="xtick_5">
     <g id="line2d_9">
      <g>
       <use xlink:href="#m150fe12dfa" x="580.506875" y="320.72" style="stroke: #000000; stroke-width: 0.8"/>
      </g>
     </g>
     <g id="text_8">
      <text style="font: 16px 'Arial'; text-anchor: middle" x="580.506875" y="339.8775" transform="rotate(-0, 580.506875, 339.8775)">0.0</text>
     </g>
    </g>
    <g id="xtick_6">
     <g id="line2d_10">
      <g>
       <use xlink:href="#m150fe12dfa" x="743.218333" y="320.72" style="stroke: #000000; stroke-width: 0.8"/>
      </g>
     </g>
     <g id="text_9">
      <text style="font: 16px 'Arial'; text-anchor: middle" x="743.218333" y="339.8775" transform="rotate(-0, 743.218333, 339.8775)">0.1</text>
     </g>
    </g>
    <g id="xtick_7">
     <g id="line2d_11">
      <g>
       <use xlink:href="#m150fe12dfa" x="905.929792" y="320.72" style="stroke: #000000; stroke-width: 0.8"/>
      </g>
     </g>
     <g id="text_10">
      <text style="font: 16px 'Arial'; text-anchor: middle" x="905.929792" y="339.8775" transform="rotate(-0, 905.929792, 339.8775)">0.2</text>
     </g>
    </g>
    <g id="xtick_8">
     <g id="line2d_12">
      <g>
       <use xlink:href="#m150fe12dfa" x="1068.64125" y="320.72" style="stroke: #000000; stroke-width: 0.8"/>
      </g>
     </g>
     <g id="text_11">
      <text style="font: 16px 'Arial'; text-anchor: middle" x="1068.64125" y="339.8775" transform="rotate(-0, 1068.64125, 339.8775)">0.3</text>
     </g>
    </g>
   </g>
   <g id="matplotlib.axis_4">
    <g id="ytick_4">
     <g id="line2d_13">
      <g>
       <use xlink:href="#m416d4a9065" x="580.506875" y="320.72" style="stroke: #000000; stroke-width: 0.8"/>
      </g>
     </g>
    </g>
    <g id="ytick_5">
     <g id="line2d_14">
      <g>
       <use xlink:href="#m416d4a9065" x="580.506875" y="194.286667" style="stroke: #000000; stroke-width: 0.8"/>
      </g>
     </g>
    </g>
    <g id="ytick_6">
     <g id="line2d_15">
      <g>
       <use xlink:href="#m416d4a9065" x="580.506875" y="67.853333" style="stroke: #000000; stroke-width: 0.8"/>
      </g>
     </g>
    </g>
   </g>
   <g id="line2d_16">
    <path d="M 580.506875 320.72 
L 582.013463 256.735029 
L 583.52005 274.188927 
L 585.026638 287.698091 
L 586.533225 297.448403 
L 588.039813 304.212606 
L 589.5464 308.830756 
L 591.052988 311.985694 
L 592.559576 314.162214 
L 594.066163 315.686003 
L 595.572751 316.771173 
L 597.079338 317.557874 
L 598.585926 318.138383 
L 601.599101 318.906428 
L 604.612276 319.365789 
L 609.132039 319.761192 
L 615.158389 320.030758 
L 624.197915 320.175794 
L 643.783553 320.226541 
L 702.540469 320.1074 
L 853.199226 320.093997 
L 1556.775625 320.09398 
L 1556.775625 320.09398 
" clip-path="url(#pdf00ead789)" style="fill: none; stroke: #1f77b4; stroke-width: 1.5; stroke-linecap: square"/>
   </g>
   <g id="line2d_17">
    <path d="M 580.506875 320.72 
L 582.013463 250.803809 
L 583.52005 265.188858 
L 585.026638 277.87105 
L 586.533225 288.047393 
L 588.039813 295.790679 
L 589.5464 301.535121 
L 591.052988 305.753285 
L 592.559576 308.85372 
L 594.066163 311.149798 
L 595.572751 312.869033 
L 597.079338 314.172702 
L 598.585926 315.174336 
L 600.092514 315.95399 
L 601.599101 316.568491 
L 604.612276 317.453673 
L 607.625451 318.039695 
L 612.145214 318.590514 
L 618.171564 318.995833 
L 627.21109 319.29904 
L 642.276966 319.535858 
L 664.875779 319.620013 
L 684.461418 319.562341 
L 717.606345 318.695851 
L 741.711746 318.567171 
L 808.001599 318.531913 
L 1556.775625 318.53136 
L 1556.775625 318.53136 
" clip-path="url(#pdf00ead789)" style="fill: none; stroke: #ff7f0e; stroke-width: 1.5; stroke-linecap: square"/>
   </g>
   <g id="line2d_18">
    <path d="M 580.506875 320.72 
L 582.013463 201.754517 
L 583.52005 169.915559 
L 585.026638 143.724188 
L 586.533225 123.797536 
L 588.039813 109.290061 
L 589.5464 98.927454 
L 591.052988 91.554353 
L 592.559576 86.27741 
L 594.066163 82.457525 
L 595.572751 79.653149 
L 597.079338 77.562749 
L 598.585926 75.980608 
L 600.092514 74.765245 
L 601.599101 73.81842 
L 603.105689 73.071028 
L 606.118864 71.991449 
L 609.132039 71.27387 
L 612.145214 70.782265 
L 616.664977 70.303698 
L 622.691327 69.959619 
L 631.730853 69.682942 
L 645.290141 69.506584 
L 661.862604 69.499244 
L 685.968005 69.642835 
L 701.033881 70.207147 
L 714.593169 70.463598 
L 735.685395 70.61376 
L 783.896198 70.665472 
L 1556.775625 70.667974 
L 1556.775625 70.667974 
" clip-path="url(#pdf00ead789)" style="fill: none; stroke: #2ca02c; stroke-width: 1.5; stroke-linecap: square"/>
   </g>
   <g id="patch_6">
    <path d="M 580.506875 320.72 
L 580.506875 17.28 
" style="fill: none; stroke: #000000; stroke-width: 0.8; stroke-linejoin: miter; stroke-linecap: square"/>
   </g>
   <g id="patch_7">
    <path d="M 580.506875 320.72 
L 1068.64125 320.72 
" style="fill: none; stroke: #000000; stroke-width: 0.8; stroke-linejoin: miter; stroke-linecap: square"/>
   </g>
  </g>
  <g id="axes_3">
   <g id="patch_8">
    <path d="M 1111.23375 320.72 
L 1599.368125 320.72 
L 1599.368125 17.28 
L 1111.23375 17.28 
z
" style="fill: #ffffff"/>
   </g>
   <g id="matplotlib.axis_5">
    <g id="xtick_9">
     <g id="line2d_19">
      <g>
       <use xlink:href="#m150fe12dfa" x="1111.23375" y="320.72" style="stroke: #000000; stroke-width: 0.8"/>
      </g>
     </g>
     <g id="text_12">
      <text style="font: 16px 'Arial'; text-anchor: middle" x="1111.23375" y="339.8775" transform="rotate(-0, 1111.23375, 339.8775)">0.0</text>
     </g>
    </g>
    <g id="xtick_10">
     <g id="line2d_20">
      <g>
       <use xlink:href="#m150fe12dfa" x="1273.945208" y="320.72" style="stroke: #000000; stroke-width: 0.8"/>
      </g>
     </g>
     <g id="text_13">
      <text style="font: 16px 'Arial'; text-anchor: middle" x="1273.945208" y="339.8775" transform="rotate(-0, 1273.945208, 339.8775)">0.1</text>
     </g>
    </g>
    <g id="xtick_11">
     <g id="line2d_21">
      <g>
       <use xlink:href="#m150fe12dfa" x="1436.656667" y="320.72" style="stroke: #000000; stroke-width: 0.8"/>
      </g>
     </g>
     <g id="text_14">
      <text style="font: 16px 'Arial'; text-anchor: middle" x="1436.656667" y="339.8775" transform="rotate(-0, 1436.656667, 339.8775)">0.2</text>
     </g>
    </g>
    <g id="xtick_12">
     <g id="line2d_22">
      <g>
       <use xlink:href="#m150fe12dfa" x="1599.368125" y="320.72" style="stroke: #000000; stroke-width: 0.8"/>
      </g>
     </g>
     <g id="text_15">
      <text style="font: 16px 'Arial'; text-anchor: middle" x="1599.368125" y="339.8775" transform="rotate(-0, 1599.368125, 339.8775)">0.3</text>
     </g>
    </g>
   </g>
   <g id="matplotlib.axis_6">
    <g id="ytick_7">
     <g id="line2d_23">
      <g>
       <use xlink:href="#m416d4a9065" x="1111.23375" y="320.72" style="stroke: #000000; stroke-width: 0.8"/>
      </g>
     </g>
    </g>
    <g id="ytick_8">
     <g id="line2d_24">
      <g>
       <use xlink:href="#m416d4a9065" x="1111.23375" y="194.286667" style="stroke: #000000; stroke-width: 0.8"/>
      </g>
     </g>
    </g>
    <g id="ytick_9">
     <g id="line2d_25">
      <g>
       <use xlink:href="#m416d4a9065" x="1111.23375" y="67.853333" style="stroke: #000000; stroke-width: 0.8"/>
      </g>
     </g>
    </g>
   </g>
   <g id="line2d_26">
    <path d="M 1111.23375 320.72 
L 1112.738016 236.451637 
L 1114.242282 237.141182 
L 1120.259347 248.855109 
L 1121.763613 253.253828 
L 1123.267879 257.213868 
L 1127.780678 258.266151 
L 1129.284944 258.494037 
L 1130.78921 259.556822 
L 1135.302009 271.65683 
L 1136.806275 274.560102 
L 1138.310541 276.767616 
L 1139.814807 275.545334 
L 1141.319074 273.30984 
L 1142.82334 271.335909 
L 1144.327606 269.995411 
L 1145.831872 268.356 
L 1148.840404 264.444827 
L 1150.344671 262.641052 
L 1153.353203 257.968844 
L 1154.857469 255.906158 
L 1156.361735 254.036209 
L 1159.370268 250.813184 
L 1162.3788 248.181827 
L 1165.387332 246.037477 
L 1166.891599 245.126847 
L 1168.395865 244.446579 
L 1169.900131 245.359687 
L 1172.908663 250.254193 
L 1177.421462 257.102659 
L 1178.925728 257.453422 
L 1183.438527 258.052268 
L 1184.942793 258.019577 
L 1186.447059 256.27959 
L 1187.951325 255.189039 
L 1189.455591 257.214033 
L 1193.96839 269.383724 
L 1195.472656 272.303002 
L 1196.976922 271.646849 
L 1198.481188 270.107886 
L 1201.489721 266.565627 
L 1202.993987 265.065844 
L 1204.498253 263.823758 
L 1206.002519 262.273001 
L 1207.506785 261.160704 
L 1209.011052 260.617429 
L 1210.515318 260.477926 
L 1212.019584 259.811068 
L 1213.52385 258.381629 
L 1215.028116 256.693159 
L 1216.532383 255.558055 
L 1218.036649 255.039931 
L 1221.045181 254.599089 
L 1222.549447 255.65392 
L 1225.55798 258.731142 
L 1228.566512 261.50247 
L 1230.070778 261.405365 
L 1231.575044 260.585567 
L 1233.07931 260.741046 
L 1237.592109 261.626336 
L 1239.096375 260.706618 
L 1240.600641 258.514365 
L 1242.104908 256.703777 
L 1243.609174 255.77262 
L 1245.11344 258.012135 
L 1246.617706 261.726723 
L 1249.626238 269.613745 
L 1251.130505 272.722913 
L 1252.634771 271.955946 
L 1254.139037 270.621928 
L 1255.643303 268.714966 
L 1257.147569 267.278346 
L 1261.660368 263.442213 
L 1263.164634 261.595645 
L 1264.6689 260.021364 
L 1266.173166 258.73401 
L 1270.685965 255.270149 
L 1272.190231 253.878955 
L 1273.694497 253.757995 
L 1276.70303 257.935565 
L 1278.207296 260.262185 
L 1281.215828 265.21118 
L 1282.720094 264.419755 
L 1284.224361 263.130377 
L 1285.728627 263.412616 
L 1287.232893 264.249498 
L 1288.737159 264.887689 
L 1290.241425 264.895138 
L 1291.745691 264.546639 
L 1293.249958 262.627634 
L 1294.754224 260.497162 
L 1296.25849 258.748938 
L 1297.762756 257.385138 
L 1299.267022 257.126111 
L 1300.771289 259.944263 
L 1305.284087 270.746024 
L 1306.788353 273.304813 
L 1308.292619 271.992545 
L 1309.796886 270.488319 
L 1311.301152 268.090208 
L 1312.805418 265.970893 
L 1314.309684 264.535109 
L 1317.318216 262.052742 
L 1318.822483 260.91315 
L 1321.831015 257.328468 
L 1323.335281 256.190085 
L 1324.839547 256.0358 
L 1326.343814 258.231109 
L 1327.84808 260.715966 
L 1329.352346 262.645299 
L 1330.856612 263.827488 
L 1332.360878 264.792128 
L 1333.865144 263.347798 
L 1335.369411 260.764999 
L 1336.873677 258.660567 
L 1338.377943 258.102269 
L 1339.882209 258.24207 
L 1341.386475 258.515895 
L 1342.890742 259.045322 
L 1344.395008 259.971054 
L 1345.899274 260.009861 
L 1348.907806 259.250287 
L 1350.412072 258.707645 
L 1351.916339 258.029272 
L 1353.420605 256.983145 
L 1354.924871 256.719874 
L 1356.429137 259.544323 
L 1360.941936 270.345911 
L 1362.446202 272.88297 
L 1363.950468 271.423983 
L 1365.454734 269.692941 
L 1368.463267 264.483318 
L 1369.967533 262.460237 
L 1371.471799 261.236912 
L 1374.480331 259.351179 
L 1375.984597 258.819219 
L 1377.488864 259.763983 
L 1380.497396 262.485874 
L 1382.001662 264.114531 
L 1383.505928 265.95483 
L 1385.010195 266.581788 
L 1388.018727 262.898012 
L 1389.522993 260.644917 
L 1391.027259 259.603617 
L 1392.531525 259.700858 
L 1395.540058 260.191874 
L 1397.044324 260.494878 
L 1398.54859 260.188792 
L 1400.052856 258.386388 
L 1403.061389 255.311024 
L 1404.565655 253.997286 
L 1406.069921 253.049202 
L 1407.574187 252.776632 
L 1409.078453 253.366974 
L 1410.58272 255.304792 
L 1412.086986 259.804723 
L 1413.591252 263.615414 
L 1416.599784 270.47345 
L 1418.10405 272.895103 
L 1419.608317 271.367402 
L 1421.112583 269.588059 
L 1424.121115 264.251623 
L 1425.625381 261.845788 
L 1427.129648 259.920619 
L 1428.633914 259.512416 
L 1430.13818 261.631686 
L 1433.146712 266.341665 
L 1434.650978 268.10146 
L 1436.155245 268.835106 
L 1437.659511 267.313483 
L 1439.163777 264.780922 
L 1440.668043 262.782865 
L 1442.172309 261.369312 
L 1443.676576 260.404088 
L 1445.180842 260.882203 
L 1446.685108 261.825855 
L 1449.69364 262.174916 
L 1451.197906 262.213534 
L 1452.702173 260.732395 
L 1455.710705 256.453996 
L 1458.719237 252.878662 
L 1460.223503 251.357179 
L 1461.72777 250.074067 
L 1463.232036 248.982506 
L 1464.736302 248.193945 
L 1466.240568 248.697916 
L 1467.744834 252.886078 
L 1472.257633 268.658695 
L 1473.761899 272.401068 
L 1475.266165 272.035997 
L 1476.770431 270.937812 
L 1478.274698 268.418948 
L 1479.778964 266.12806 
L 1481.28323 265.885453 
L 1484.291762 267.562152 
L 1485.796029 268.84159 
L 1487.300295 270.507264 
L 1488.804561 271.179831 
L 1491.813093 267.628032 
L 1494.821626 262.750656 
L 1496.325892 260.728517 
L 1497.830158 259.992889 
L 1499.334424 260.532005 
L 1502.342956 262.285571 
L 1503.847223 263.054282 
L 1505.351489 262.984951 
L 1508.360021 258.449024 
L 1509.864287 256.453514 
L 1511.368554 254.654878 
L 1512.87282 253.045909 
L 1514.377086 251.629757 
L 1515.881352 250.428486 
L 1518.889884 248.429535 
L 1520.394151 247.640824 
L 1521.898417 247.918217 
L 1523.402683 251.481116 
L 1524.906949 255.968285 
L 1527.915482 265.807045 
L 1529.419748 269.704012 
L 1530.924014 269.277338 
L 1532.42828 268.648084 
L 1533.932546 269.06443 
L 1535.436812 270.051448 
L 1539.949611 273.803087 
L 1541.453877 272.44665 
L 1542.958143 270.140893 
L 1545.966676 267.013881 
L 1548.975208 264.219516 
L 1550.479474 262.379771 
L 1551.98374 261.811993 
L 1554.992273 261.806085 
L 1556.496539 261.893223 
L 1558.000805 262.268886 
L 1559.505071 261.522712 
L 1564.01787 257.636446 
L 1567.026402 253.905271 
L 1568.530668 252.253332 
L 1570.034935 250.799582 
L 1573.043467 248.420907 
L 1574.547733 247.40509 
L 1576.051999 246.583604 
L 1577.556265 246.809029 
L 1579.060532 250.312363 
L 1582.069064 259.52196 
L 1583.57333 264.35724 
L 1585.077596 269.845425 
L 1586.581862 272.512386 
L 1588.086129 274.897392 
L 1589.590395 276.068974 
L 1591.094661 276.591194 
L 1592.598927 276.161976 
L 1595.60746 270.083823 
L 1597.111726 267.429051 
L 1598.615992 265.294942 
L 1600.120258 264.190427 
L 1601.624524 263.965111 
L 1603.12879 263.880572 
L 1604.633057 264.284533 
L 1606.137323 265.057984 
L 1607.641589 264.895082 
L 1610.650121 264.2097 
L 1612.154388 262.980101 
L 1613.658654 260.537702 
L 1615.16292 258.367925 
L 1616.667186 256.757238 
L 1618.171452 255.710101 
L 1621.179985 254.041846 
L 1622.684251 253.258802 
L 1625.692783 250.614475 
L 1627.197049 249.55424 
L 1628.701315 248.638675 
L 1630.205582 247.868065 
L 1631.709848 247.316828 
L 1633.214114 247.749825 
L 1634.71838 251.44376 
L 1636.222646 256.447108 
L 1639.231179 270.94095 
L 1640.735445 276.578959 
L 1642.239711 278.04003 
L 1643.743977 279.08202 
L 1645.248243 277.625651 
L 1646.75251 274.823448 
L 1651.265308 267.331901 
L 1654.273841 262.246459 
L 1655.778107 260.153576 
L 1657.282373 259.220576 
L 1658.786639 260.258417 
L 1661.795171 263.238413 
L 1663.299438 264.897244 
L 1664.803704 265.663393 
L 1666.30797 264.491924 
L 1667.812236 262.64756 
L 1670.820768 258.32139 
L 1672.325035 256.428426 
L 1673.829301 254.806548 
L 1675.333567 253.718016 
L 1676.837833 253.166094 
L 1681.350632 251.903525 
L 1685.86343 248.481655 
L 1687.367696 247.712672 
L 1688.871963 249.398795 
L 1691.880495 263.429157 
L 1693.384761 270.409884 
L 1694.889027 276.675062 
L 1696.393294 281.228412 
L 1697.89756 279.334744 
L 1699.401826 277.042725 
L 1702.410358 270.916937 
L 1703.914624 268.34199 
L 1705.418891 266.278773 
L 1708.427423 263.222086 
L 1709.931689 261.70725 
L 1711.435955 261.203045 
L 1712.940221 261.25955 
L 1714.444488 261.869217 
L 1717.45302 263.950028 
L 1718.957286 263.449007 
L 1720.461552 262.295462 
L 1723.470085 258.4895 
L 1724.974351 256.926444 
L 1726.478617 255.769455 
L 1727.982883 255.083256 
L 1729.487149 254.636362 
L 1730.991416 253.909544 
L 1732.495682 252.56848 
L 1733.999948 251.498004 
L 1735.504214 250.959104 
L 1737.00848 250.660768 
L 1738.512747 250.499603 
L 1740.017013 251.001909 
L 1743.025545 255.772658 
L 1744.529811 258.812614 
L 1747.538344 270.650139 
L 1749.04261 274.515338 
L 1750.546876 276.994996 
L 1752.051142 278.685723 
L 1753.555408 276.749239 
L 1755.059674 274.598479 
L 1758.068207 268.592811 
L 1759.572473 265.897017 
L 1761.076739 263.523244 
L 1762.581005 261.719839 
L 1764.085272 261.561771 
L 1767.093804 263.487882 
L 1768.59807 264.066934 
L 1770.102336 264.109128 
L 1771.606602 263.520776 
L 1773.110869 262.324924 
L 1776.119401 260.307529 
L 1777.623667 259.333228 
L 1780.6322 255.647213 
L 1783.640732 252.45345 
L 1785.144998 251.088113 
L 1786.649264 249.89838 
L 1788.15353 248.955165 
L 1789.657797 248.402707 
L 1791.162063 248.632073 
L 1792.666329 251.480604 
L 1794.170595 255.759266 
L 1795.674861 259.262638 
L 1797.179128 262.207181 
L 1798.683394 264.559322 
L 1801.691926 267.133048 
L 1803.196192 269.39892 
L 1806.204725 275.063757 
L 1807.708991 277.126835 
L 1809.213257 275.507975 
L 1810.717523 273.698389 
L 1815.230322 265.612789 
L 1816.734588 263.78 
L 1818.238854 263.382449 
L 1819.74312 263.256948 
L 1821.247386 263.265125 
L 1824.255919 263.79575 
L 1828.768717 259.910619 
L 1831.77725 258.195987 
L 1834.785782 256.683852 
L 1839.298581 251.886011 
L 1840.802847 250.53775 
L 1842.307113 249.35792 
L 1843.811379 248.830534 
L 1845.315645 250.632501 
L 1849.828444 258.076504 
L 1851.33271 260.906703 
L 1852.836976 261.980464 
L 1854.341242 261.537354 
L 1855.845508 262.406449 
L 1857.349775 266.114224 
L 1860.358307 272.186427 
L 1861.862573 275.056243 
L 1863.366839 277.060175 
L 1864.871106 275.299721 
L 1866.375372 273.259514 
L 1867.879638 270.311497 
L 1869.383904 267.67419 
L 1870.88817 266.529756 
L 1873.896703 265.534173 
L 1876.905235 264.708158 
L 1878.409501 262.957599 
L 1879.913767 260.726355 
L 1881.418034 258.908668 
L 1882.9223 257.610635 
L 1884.426566 256.872953 
L 1887.435098 256.718307 
L 1891.947897 255.199777 
L 1894.956429 252.528012 
L 1896.460695 252.879959 
L 1902.47776 261.123412 
L 1903.982026 262.594208 
L 1906.990559 258.761233 
L 1908.494825 256.710808 
L 1909.999091 255.323127 
L 1911.503357 255.480532 
L 1913.007623 258.936615 
L 1917.520422 271.857138 
L 1919.024688 275.003585 
L 1920.528954 274.328935 
L 1922.03322 273.200715 
L 1923.537487 271.611422 
L 1925.041753 270.674933 
L 1928.050285 269.143464 
L 1929.554551 268.451078 
L 1931.058817 266.978356 
L 1934.06735 261.781502 
L 1935.571616 259.533935 
L 1937.075882 257.53775 
L 1938.580148 255.833616 
L 1940.084414 254.515869 
L 1941.588681 253.789005 
L 1943.092947 254.082096 
L 1944.597213 254.992386 
L 1946.101479 255.543405 
L 1947.605745 255.943944 
L 1949.110012 258.210875 
L 1950.614278 259.881632 
L 1955.127076 263.948385 
L 1956.631342 263.299251 
L 1959.639875 259.309388 
L 1962.648407 255.635118 
L 1964.152673 253.773187 
L 1965.65694 252.201017 
L 1967.161206 251.840057 
L 1968.665472 255.18628 
L 1973.17827 269.22318 
L 1974.682537 272.627235 
L 1976.186803 271.674487 
L 1977.691069 271.682686 
L 1979.195335 271.115356 
L 1980.699601 270.705601 
L 1982.203867 270.693215 
L 1983.708134 270.84267 
L 1985.2124 269.281234 
L 1989.725198 262.17085 
L 1992.733731 257.940671 
L 1994.237997 256.032763 
L 1995.742263 254.328358 
L 1997.246529 252.877773 
L 1998.750795 252.014447 
L 2000.255062 253.813369 
L 2003.263594 261.481863 
L 2004.76786 264.800878 
L 2006.272126 267.190062 
L 2007.776393 267.566256 
L 2009.280659 265.037735 
L 2012.289191 260.748752 
L 2015.297723 257.004464 
L 2019.810522 251.751591 
L 2021.314788 250.38544 
L 2022.819054 250.160837 
L 2024.32332 253.317613 
L 2025.827587 257.477025 
L 2027.331853 262.255001 
L 2030.340385 272.711631 
L 2031.844651 274.233706 
L 2033.348918 275.220449 
L 2034.853184 274.389777 
L 2036.35745 273.255249 
L 2037.861716 270.866611 
L 2039.365982 267.90486 
L 2040.870248 265.202543 
L 2042.374515 262.821566 
L 2043.878781 260.879957 
L 2045.383047 259.497265 
L 2048.391579 257.731795 
L 2049.895846 256.399051 
L 2051.400112 255.233207 
L 2052.904378 256.348628 
L 2055.91291 259.805126 
L 2057.417176 262.113448 
L 2058.921443 264.889505 
L 2060.425709 265.930293 
L 2063.434241 264.873649 
L 2064.938507 263.218383 
L 2067.94704 259.28493 
L 2070.955572 255.906912 
L 2073.964104 252.790499 
L 2075.468371 251.472261 
L 2076.972637 250.378499 
L 2078.476903 250.308347 
L 2079.981169 253.48443 
L 2081.485435 257.657245 
L 2082.989701 263.066961 
L 2084.493968 269.004768 
L 2085.998234 273.994238 
L 2087.5025 275.169125 
L 2087.5025 275.169125 
" clip-path="url(#p840388bd77)" style="fill: none; stroke: #1f77b4; stroke-width: 1.5; stroke-linecap: square"/>
   </g>
   <g id="line2d_27">
    <path d="M 1111.23375 320.72 
L 1112.738016 236.457168 
L 1114.242282 237.329695 
L 1117.250815 244.566673 
L 1120.259347 251.516453 
L 1121.763613 256.8948 
L 1123.267879 261.618197 
L 1126.276412 263.068811 
L 1127.780678 265.393257 
L 1129.284944 267.491811 
L 1130.78921 267.684439 
L 1132.293477 269.191631 
L 1133.797743 271.30488 
L 1135.302009 272.703059 
L 1136.806275 272.26984 
L 1138.310541 272.408815 
L 1139.814807 271.611799 
L 1141.319074 269.638693 
L 1142.82334 267.985654 
L 1144.327606 267.209964 
L 1145.831872 266.163491 
L 1148.840404 263.297236 
L 1150.344671 261.950784 
L 1153.353203 257.392486 
L 1154.857469 255.366218 
L 1156.361735 253.532321 
L 1159.370268 250.378522 
L 1162.3788 247.81067 
L 1165.387332 245.723067 
L 1166.891599 244.839868 
L 1168.395865 244.217333 
L 1169.900131 245.52193 
L 1172.908663 251.665116 
L 1177.421462 260.005192 
L 1178.925728 260.838573 
L 1183.438527 262.694072 
L 1184.942793 263.631454 
L 1186.447059 263.69765 
L 1187.951325 263.987516 
L 1189.455591 264.672309 
L 1190.959857 266.162933 
L 1192.464124 268.043741 
L 1195.472656 267.653843 
L 1196.976922 266.817877 
L 1198.481188 265.807538 
L 1199.985455 264.28688 
L 1201.489721 262.959909 
L 1202.993987 261.893457 
L 1206.002519 260.887448 
L 1209.011052 260.6396 
L 1210.515318 259.811912 
L 1215.028116 253.097071 
L 1216.532383 250.730341 
L 1219.540915 245.562617 
L 1221.045181 244.253559 
L 1222.549447 246.767174 
L 1225.55798 253.267656 
L 1228.566512 258.996067 
L 1230.070778 259.980515 
L 1231.575044 260.068657 
L 1233.07931 260.966441 
L 1236.087843 262.404067 
L 1237.592109 262.968183 
L 1239.096375 262.414377 
L 1240.600641 261.138808 
L 1242.104908 261.429092 
L 1243.609174 261.917618 
L 1245.11344 262.713733 
L 1248.121972 264.914984 
L 1251.130505 264.265606 
L 1254.139037 261.592307 
L 1255.643303 259.545265 
L 1257.147569 258.168228 
L 1258.651836 257.157182 
L 1260.156102 256.512415 
L 1261.660368 256.195971 
L 1263.164634 255.468414 
L 1264.6689 255.234006 
L 1267.677433 255.310451 
L 1269.181699 255.204095 
L 1270.685965 254.193177 
L 1272.190231 252.701717 
L 1273.694497 252.758825 
L 1275.198763 255.553269 
L 1278.207296 261.59248 
L 1279.711562 264.028225 
L 1281.215828 265.375197 
L 1284.224361 260.292487 
L 1285.728627 259.710572 
L 1287.232893 259.559994 
L 1288.737159 259.622615 
L 1290.241425 260.288814 
L 1291.745691 261.16249 
L 1293.249958 259.850512 
L 1294.754224 258.325878 
L 1296.25849 258.271656 
L 1299.267022 260.039259 
L 1300.771289 261.212024 
L 1302.275555 262.56796 
L 1303.779821 263.171855 
L 1306.788353 263.144797 
L 1309.796886 261.051643 
L 1311.301152 258.880269 
L 1312.805418 257.253492 
L 1314.309684 256.666218 
L 1317.318216 256.193047 
L 1318.822483 255.968277 
L 1320.326749 254.89686 
L 1321.831015 253.657201 
L 1323.335281 253.264243 
L 1324.839547 254.000504 
L 1327.84808 261.0133 
L 1329.352346 263.701923 
L 1330.856612 265.298375 
L 1332.360878 266.607456 
L 1333.865144 265.214563 
L 1335.369411 262.542628 
L 1336.873677 260.443645 
L 1338.377943 260.328886 
L 1341.386475 261.953316 
L 1344.395008 263.923542 
L 1345.899274 262.836781 
L 1348.907806 257.006868 
L 1350.412072 255.067076 
L 1351.916339 255.443387 
L 1356.429137 258.719337 
L 1357.933403 259.946121 
L 1359.437669 259.908354 
L 1362.446202 261.142825 
L 1363.950468 260.732979 
L 1365.454734 260.160588 
L 1368.463267 256.18019 
L 1369.967533 254.768717 
L 1371.471799 254.230435 
L 1374.480331 253.580258 
L 1375.984597 253.66705 
L 1377.488864 255.622322 
L 1382.001662 263.005667 
L 1383.505928 265.86578 
L 1385.010195 267.218883 
L 1388.018727 264.100729 
L 1389.522993 261.773069 
L 1391.027259 260.908055 
L 1395.540058 262.371794 
L 1397.044324 262.762107 
L 1398.54859 262.333609 
L 1400.052856 259.993511 
L 1401.557122 257.979787 
L 1403.061389 256.318001 
L 1404.565655 255.10245 
L 1406.069921 255.309969 
L 1407.574187 256.575552 
L 1409.078453 257.542287 
L 1410.58272 258.305776 
L 1412.086986 259.317388 
L 1413.591252 259.431596 
L 1415.095518 259.345244 
L 1418.10405 260.370033 
L 1419.608317 259.812914 
L 1421.112583 259.099894 
L 1424.121115 254.859285 
L 1425.625381 252.983594 
L 1427.129648 251.63577 
L 1428.633914 252.105935 
L 1433.146712 262.752985 
L 1434.650978 265.301228 
L 1436.155245 266.569388 
L 1437.659511 265.071081 
L 1439.163777 262.361071 
L 1440.668043 260.426474 
L 1442.172309 259.389055 
L 1443.676576 258.996956 
L 1445.180842 260.534996 
L 1446.685108 262.549787 
L 1448.189374 263.390969 
L 1451.197906 264.456406 
L 1452.702173 263.074848 
L 1454.206439 260.849116 
L 1455.710705 258.902937 
L 1458.719237 255.670447 
L 1460.223503 254.648661 
L 1461.72777 255.337935 
L 1463.232036 256.404537 
L 1464.736302 257.295256 
L 1466.240568 257.966105 
L 1467.744834 258.349383 
L 1469.249101 256.529582 
L 1470.753367 255.745377 
L 1472.257633 256.311189 
L 1473.761899 257.557785 
L 1475.266165 257.933127 
L 1476.770431 257.877745 
L 1478.274698 255.868493 
L 1479.778964 254.142316 
L 1481.28323 255.289403 
L 1485.796029 262.951691 
L 1487.300295 265.952776 
L 1488.804561 267.557974 
L 1491.813093 264.529574 
L 1494.821626 259.797797 
L 1496.325892 257.842413 
L 1497.830158 257.641043 
L 1499.334424 259.263038 
L 1502.342956 263.40124 
L 1503.847223 265.189717 
L 1505.351489 265.841055 
L 1508.360021 261.366083 
L 1512.87282 255.36153 
L 1514.377086 253.750549 
L 1515.881352 253.739042 
L 1520.394151 256.996544 
L 1521.898417 257.904423 
L 1523.402683 257.296485 
L 1524.906949 255.983817 
L 1526.411215 255.627431 
L 1527.915482 255.715256 
L 1529.419748 255.655932 
L 1530.924014 254.892707 
L 1532.42828 255.293307 
L 1533.932546 257.433979 
L 1538.445345 264.701425 
L 1539.949611 266.985512 
L 1541.453877 266.611804 
L 1542.958143 264.56329 
L 1544.462409 263.148294 
L 1547.470942 260.744671 
L 1548.975208 259.628433 
L 1550.479474 258.028081 
L 1551.98374 258.239395 
L 1556.496539 261.035162 
L 1558.000805 262.485991 
L 1559.505071 262.501169 
L 1562.513604 260.817352 
L 1564.01787 259.810175 
L 1567.026402 255.884296 
L 1568.530668 254.217639 
L 1570.034935 253.625911 
L 1576.051999 258.042113 
L 1577.556265 258.286076 
L 1579.060532 256.692142 
L 1580.564798 255.545251 
L 1582.069064 255.519621 
L 1583.57333 256.352124 
L 1585.077596 259.276109 
L 1586.581862 262.684588 
L 1588.086129 265.382292 
L 1591.094661 267.24287 
L 1592.598927 267.711463 
L 1595.60746 261.833222 
L 1597.111726 259.258795 
L 1598.615992 257.044774 
L 1600.120258 255.695504 
L 1601.624524 255.32055 
L 1603.12879 255.68943 
L 1604.633057 258.05165 
L 1606.137323 261.163338 
L 1607.641589 262.485946 
L 1610.650121 264.119562 
L 1612.154388 263.514005 
L 1613.658654 261.114294 
L 1615.16292 258.94125 
L 1616.667186 257.470408 
L 1618.171452 256.734509 
L 1622.684251 254.997661 
L 1624.188517 253.564764 
L 1625.692783 253.452733 
L 1630.205582 256.801957 
L 1631.709848 257.704756 
L 1633.214114 257.199896 
L 1634.71838 255.706039 
L 1636.222646 255.374779 
L 1637.726913 259.024775 
L 1639.231179 263.889928 
L 1640.735445 268.302464 
L 1642.239711 271.179929 
L 1643.743977 273.353213 
L 1645.248243 271.77556 
L 1648.256776 264.066553 
L 1649.761042 260.692134 
L 1651.265308 258.061296 
L 1652.769574 255.877303 
L 1654.273841 253.971354 
L 1655.778107 252.478847 
L 1657.282373 252.497212 
L 1658.786639 255.165775 
L 1660.290905 258.062536 
L 1661.795171 260.568573 
L 1663.299438 262.52739 
L 1664.803704 263.0382 
L 1667.812236 259.250181 
L 1670.820768 256.613933 
L 1673.829301 253.222531 
L 1675.333567 252.285895 
L 1676.837833 252.085663 
L 1678.342099 252.062128 
L 1679.846366 252.582678 
L 1681.350632 254.693546 
L 1682.854898 256.055778 
L 1685.86343 258.127888 
L 1687.367696 258.904033 
L 1688.871963 258.965418 
L 1690.376229 261.240793 
L 1691.880495 264.057043 
L 1696.393294 274.861588 
L 1697.89756 273.27462 
L 1699.401826 271.338554 
L 1705.418891 258.745755 
L 1706.923157 255.746696 
L 1708.427423 253.164767 
L 1709.931689 251.815391 
L 1711.435955 252.968967 
L 1712.940221 254.775146 
L 1714.444488 256.909269 
L 1715.948754 259.325549 
L 1717.45302 261.451323 
L 1718.957286 261.345265 
L 1720.461552 260.249257 
L 1724.974351 254.234128 
L 1727.982883 250.626253 
L 1729.487149 249.064467 
L 1730.991416 247.993886 
L 1732.495682 247.716478 
L 1733.999948 248.522899 
L 1735.504214 251.213249 
L 1737.00848 254.211226 
L 1738.512747 256.768353 
L 1740.017013 259.625995 
L 1741.521279 263.647042 
L 1743.025545 266.06235 
L 1744.529811 267.42979 
L 1746.034077 269.230038 
L 1747.538344 271.341124 
L 1749.04261 271.886061 
L 1752.051142 270.962394 
L 1755.059674 268.013465 
L 1758.068207 262.737513 
L 1761.076739 258.361587 
L 1762.581005 256.498775 
L 1764.085272 256.127423 
L 1768.59807 257.360383 
L 1770.102336 258.378442 
L 1771.606602 258.557573 
L 1774.615135 256.894589 
L 1777.623667 255.453153 
L 1780.6322 251.977935 
L 1782.136466 250.416187 
L 1785.144998 247.760888 
L 1786.649264 246.631721 
L 1788.15353 245.68822 
L 1789.657797 245.753007 
L 1791.162063 247.829608 
L 1792.666329 252.757536 
L 1795.674861 265.605253 
L 1797.179128 270.737829 
L 1798.683394 273.475406 
L 1800.18766 274.170607 
L 1801.691926 271.936428 
L 1803.196192 270.025713 
L 1804.700458 269.200998 
L 1807.708991 268.956503 
L 1810.717523 266.851988 
L 1815.230322 259.379635 
L 1816.734588 258.016121 
L 1818.238854 258.64068 
L 1819.74312 259.431577 
L 1821.247386 260.04742 
L 1822.751653 260.393383 
L 1824.255919 260.170566 
L 1825.760185 257.19823 
L 1827.264451 254.49158 
L 1828.768717 253.163539 
L 1830.272983 252.782405 
L 1834.785782 251.985924 
L 1839.298581 247.985581 
L 1840.802847 246.855436 
L 1842.307113 245.892559 
L 1843.811379 245.897231 
L 1845.315645 250.067797 
L 1846.819911 255.755875 
L 1848.324178 260.878058 
L 1851.33271 269.804188 
L 1852.836976 270.956674 
L 1854.341242 269.143102 
L 1855.845508 267.585333 
L 1857.349775 266.686347 
L 1858.854041 265.572784 
L 1860.358307 265.730396 
L 1863.366839 267.654815 
L 1864.871106 267.249524 
L 1866.375372 266.128086 
L 1867.879638 263.493149 
L 1869.383904 261.262742 
L 1870.88817 261.14018 
L 1873.896703 262.36693 
L 1875.400969 262.89196 
L 1876.905235 263.269047 
L 1878.409501 261.656201 
L 1884.426566 251.419547 
L 1885.930832 249.683257 
L 1887.435098 249.109578 
L 1891.947897 249.092411 
L 1894.956429 247.03119 
L 1896.460695 248.059547 
L 1897.964961 251.180135 
L 1899.469228 254.691375 
L 1902.47776 264.331787 
L 1903.982026 268.103845 
L 1905.486292 268.166266 
L 1906.990559 267.881005 
L 1908.494825 265.67602 
L 1909.999091 264.015116 
L 1911.503357 263.148188 
L 1913.007623 262.746278 
L 1914.511889 262.686965 
L 1916.016156 263.468687 
L 1917.520422 263.696622 
L 1919.024688 263.67667 
L 1920.528954 262.654131 
L 1922.03322 261.817441 
L 1923.537487 261.416755 
L 1925.041753 262.300862 
L 1929.554551 265.798665 
L 1931.058817 265.109896 
L 1934.06735 259.9158 
L 1937.075882 255.556404 
L 1941.588681 249.825273 
L 1943.092947 248.402843 
L 1944.597213 247.512599 
L 1946.101479 247.090378 
L 1947.605745 248.021958 
L 1949.110012 251.819031 
L 1950.614278 254.837416 
L 1953.62281 259.946208 
L 1955.127076 263.539372 
L 1956.631342 265.457807 
L 1961.144141 266.202648 
L 1962.648407 264.748747 
L 1965.65694 260.003474 
L 1967.161206 258.056609 
L 1968.665472 257.129773 
L 1970.169738 257.334685 
L 1971.674004 258.712249 
L 1973.17827 260.654525 
L 1974.682537 262.333651 
L 1976.186803 262.371538 
L 1977.691069 264.008063 
L 1979.195335 264.540991 
L 1982.203867 264.946583 
L 1983.708134 264.944296 
L 1985.2124 262.659504 
L 1986.716666 260.119317 
L 1988.220932 257.953701 
L 1989.725198 256.206905 
L 1991.229465 254.955806 
L 1994.237997 253.208732 
L 1995.742263 251.849944 
L 1997.246529 250.284571 
L 1998.750795 249.110746 
L 2000.255062 250.648379 
L 2001.759328 254.038312 
L 2006.272126 263.094792 
L 2007.776393 264.476633 
L 2009.280659 263.140313 
L 2010.784925 263.453265 
L 2012.289191 263.906771 
L 2015.297723 264.387437 
L 2016.80199 263.919002 
L 2019.810522 259.260547 
L 2021.314788 257.202224 
L 2022.819054 255.380152 
L 2024.32332 254.016623 
L 2025.827587 253.277649 
L 2027.331853 254.281499 
L 2028.836119 256.964719 
L 2030.340385 261.485299 
L 2031.844651 265.35557 
L 2033.348918 268.427434 
L 2034.853184 268.72014 
L 2036.35745 268.534599 
L 2037.861716 266.519157 
L 2040.870248 260.966787 
L 2043.878781 256.256492 
L 2046.887313 252.039535 
L 2048.391579 250.172857 
L 2049.895846 248.700983 
L 2051.400112 248.213305 
L 2052.904378 250.769845 
L 2055.91291 257.565355 
L 2058.921443 265.320399 
L 2060.425709 266.071529 
L 2063.434241 262.244364 
L 2064.938507 260.953407 
L 2066.442773 261.227179 
L 2070.955572 262.437071 
L 2072.459838 261.424159 
L 2075.468371 257.137709 
L 2076.972637 255.266629 
L 2078.476903 253.608096 
L 2079.981169 252.386478 
L 2081.485435 251.884089 
L 2082.989701 254.147185 
L 2085.998234 262.814075 
L 2087.5025 266.416301 
L 2087.5025 266.416301 
" clip-path="url(#p840388bd77)" style="fill: none; stroke: #ff7f0e; stroke-width: 1.5; stroke-linecap: square"/>
   </g>
   <g id="line2d_28">
    <path d="M 1111.23375 320.72 
L 1112.738016 236.384521 
L 1114.242282 234.822464 
L 1120.259347 208.921779 
L 1121.763613 199.14472 
L 1123.267879 190.461265 
L 1126.276412 188.414544 
L 1127.780678 185.633921 
L 1129.284944 183.307478 
L 1130.78921 182.052084 
L 1132.293477 176.452886 
L 1133.797743 170.012246 
L 1135.302009 164.933425 
L 1138.310541 160.116918 
L 1139.814807 162.136192 
L 1141.319074 166.3448 
L 1142.82334 169.971763 
L 1144.327606 172.087966 
L 1145.831872 174.773832 
L 1147.336138 178.308915 
L 1150.344671 184.701505 
L 1153.353203 193.932007 
L 1154.857469 198.020965 
L 1156.361735 201.724788 
L 1157.866002 205.074802 
L 1159.370268 208.101635 
L 1160.874534 210.83448 
L 1162.3788 213.300829 
L 1163.883066 215.52607 
L 1165.387332 217.532805 
L 1166.891599 219.326625 
L 1168.395865 220.629421 
L 1169.900131 218.411708 
L 1172.908663 207.374032 
L 1177.421462 192.18549 
L 1178.925728 191.001326 
L 1181.93426 189.334692 
L 1184.942793 187.642314 
L 1186.447059 189.316078 
L 1187.951325 190.116794 
L 1189.455591 187.406994 
L 1190.959857 181.783018 
L 1192.464124 175.472209 
L 1193.96839 172.048945 
L 1195.472656 169.336492 
L 1196.976922 170.828608 
L 1198.481188 173.377906 
L 1199.985455 176.757401 
L 1201.489721 179.767797 
L 1202.993987 182.334036 
L 1204.498253 184.107637 
L 1206.002519 186.132896 
L 1207.506785 187.328921 
L 1209.011052 188.036297 
L 1210.515318 189.003484 
L 1212.019584 191.845315 
L 1216.532383 203.004938 
L 1218.036649 206.142158 
L 1219.540915 208.915283 
L 1221.045181 210.440678 
L 1222.549447 206.872232 
L 1225.55798 197.294523 
L 1228.566512 188.794797 
L 1230.070778 187.907461 
L 1231.575044 188.639102 
L 1236.087843 185.462899 
L 1237.592109 184.698822 
L 1239.096375 186.172324 
L 1240.600641 189.640171 
L 1242.104908 191.160457 
L 1243.609174 191.603092 
L 1245.11344 188.56748 
L 1248.121972 178.593912 
L 1249.626238 175.04962 
L 1251.130505 172.304822 
L 1252.634771 174.365636 
L 1254.139037 177.079083 
L 1255.643303 181.033094 
L 1257.147569 183.84677 
L 1258.651836 186.128178 
L 1260.156102 188.037442 
L 1261.660368 189.655168 
L 1263.164634 192.22926 
L 1264.6689 194.037978 
L 1266.173166 195.289454 
L 1269.181699 197.507642 
L 1270.685965 199.830008 
L 1272.190231 202.712654 
L 1273.694497 202.776521 
L 1275.198763 197.983247 
L 1279.711562 182.449337 
L 1281.215828 178.706968 
L 1282.720094 182.058082 
L 1284.224361 185.870476 
L 1285.728627 186.170139 
L 1290.241425 184.109385 
L 1291.745691 183.584216 
L 1293.249958 186.815191 
L 1294.754224 190.470294 
L 1296.25849 192.272727 
L 1297.762756 192.740171 
L 1299.267022 192.12796 
L 1300.771289 188.137038 
L 1302.275555 183.238237 
L 1303.779821 178.93962 
L 1305.284087 175.346086 
L 1306.788353 172.843723 
L 1308.292619 175.192246 
L 1309.796886 177.753376 
L 1311.301152 182.322853 
L 1312.805418 186.068945 
L 1314.309684 188.092003 
L 1315.81395 189.655831 
L 1318.822483 192.411917 
L 1320.326749 195.239965 
L 1321.831015 198.30768 
L 1323.335281 199.838983 
L 1324.839547 199.257037 
L 1326.343814 193.63132 
L 1327.84808 187.56406 
L 1329.352346 182.946111 
L 1330.856612 180.167462 
L 1332.360878 177.893756 
L 1333.865144 180.73099 
L 1335.369411 185.985702 
L 1336.873677 190.18911 
L 1338.377943 190.862166 
L 1339.882209 189.968621 
L 1341.386475 188.824127 
L 1342.890742 187.279741 
L 1344.395008 185.398752 
L 1345.899274 186.446695 
L 1348.907806 193.036171 
L 1350.412072 195.518617 
L 1351.916339 195.820683 
L 1353.420605 195.811858 
L 1354.924871 195.113277 
L 1356.429137 191.029677 
L 1357.933403 186.15585 
L 1359.437669 182.544577 
L 1360.941936 178.407366 
L 1362.446202 175.267531 
L 1363.950468 177.136372 
L 1365.454734 179.439815 
L 1368.463267 188.629818 
L 1369.967533 192.064387 
L 1371.471799 193.825975 
L 1372.976065 195.170701 
L 1374.480331 196.361881 
L 1375.984597 196.807049 
L 1377.488864 193.907017 
L 1380.497396 186.441857 
L 1382.001662 182.173127 
L 1383.505928 177.472719 
L 1385.010195 175.492647 
L 1388.018727 182.294593 
L 1389.522993 186.875359 
L 1391.027259 188.781654 
L 1392.531525 188.184621 
L 1397.044324 186.036344 
L 1398.54859 186.770925 
L 1400.052856 190.913441 
L 1401.557122 194.540555 
L 1403.061389 197.664308 
L 1404.565655 200.193583 
L 1406.069921 200.934169 
L 1407.574187 199.941149 
L 1409.078453 198.384073 
L 1410.58272 195.682781 
L 1412.086986 190.171219 
L 1413.591252 186.246328 
L 1415.095518 182.851022 
L 1416.599784 178.9187 
L 1418.10405 176.028201 
L 1419.608317 178.113009 
L 1421.112583 180.605365 
L 1424.121115 190.182418 
L 1425.625381 194.463936 
L 1427.129648 197.736948 
L 1428.633914 197.674972 
L 1430.13818 191.974105 
L 1431.642446 185.784355 
L 1433.146712 180.198676 
L 1434.650978 175.890654 
L 1436.155245 173.888832 
L 1437.659511 176.908754 
L 1439.163777 182.151318 
L 1440.668043 186.084002 
L 1442.172309 188.534955 
L 1443.676576 189.892281 
L 1445.180842 187.876126 
L 1446.685108 184.917683 
L 1448.189374 183.847132 
L 1449.69364 183.136019 
L 1451.197906 182.623404 
L 1452.702173 185.486079 
L 1454.206439 189.934528 
L 1455.710705 193.936408 
L 1457.214971 197.509217 
L 1458.719237 200.744239 
L 1460.223503 203.287478 
L 1461.72777 203.881339 
L 1463.232036 203.90629 
L 1464.736302 203.804125 
L 1466.240568 202.629336 
L 1467.744834 198.057876 
L 1469.249101 194.678065 
L 1470.753367 189.950987 
L 1472.257633 184.323468 
L 1473.761899 179.334477 
L 1475.266165 179.324212 
L 1476.770431 180.477795 
L 1478.274698 185.0059 
L 1479.778964 189.022957 
L 1481.28323 188.118484 
L 1484.291762 181.52191 
L 1485.796029 177.50006 
L 1487.300295 172.833293 
L 1488.804561 170.555533 
L 1491.813093 177.135724 
L 1494.821626 186.744865 
L 1496.325892 190.722403 
L 1497.830158 191.659416 
L 1499.334424 189.498283 
L 1502.342956 183.606522 
L 1503.847223 181.049342 
L 1505.351489 180.467335 
L 1508.360021 189.478223 
L 1511.368554 197.314532 
L 1512.87282 200.885879 
L 1514.377086 203.913035 
L 1515.881352 205.125813 
L 1518.889884 204.891458 
L 1520.394151 204.655966 
L 1521.898417 203.470694 
L 1524.906949 197.341232 
L 1526.411215 192.780594 
L 1527.915482 187.771029 
L 1529.419748 183.933404 
L 1530.924014 185.123281 
L 1532.42828 185.351938 
L 1533.932546 182.794909 
L 1536.941079 175.671115 
L 1538.445345 171.851531 
L 1539.949611 168.504727 
L 1541.453877 170.234875 
L 1542.958143 174.589154 
L 1544.462409 177.635256 
L 1547.470942 182.96061 
L 1548.975208 185.445385 
L 1550.479474 188.88547 
L 1551.98374 189.241923 
L 1554.992273 187.452783 
L 1556.496539 186.364944 
L 1558.000805 184.538456 
L 1559.505071 185.269449 
L 1564.01787 191.846701 
L 1567.026402 199.503759 
L 1568.530668 202.822355 
L 1570.034935 204.867848 
L 1571.539201 205.011718 
L 1576.051999 204.667624 
L 1577.556265 204.198221 
L 1579.060532 202.288821 
L 1580.564798 198.984188 
L 1582.069064 194.25173 
L 1583.57333 188.583969 
L 1585.077596 180.171803 
L 1586.581862 174.096359 
L 1588.086129 169.013634 
L 1589.590395 166.885419 
L 1591.094661 165.459258 
L 1592.598927 165.41989 
L 1595.60746 177.376289 
L 1597.111726 182.605498 
L 1598.615992 186.953613 
L 1600.120258 189.407399 
L 1601.624524 190.007658 
L 1603.12879 189.723339 
L 1604.633057 186.95714 
L 1606.137323 183.072023 
L 1607.641589 181.912321 
L 1610.650121 180.964064 
L 1612.154388 182.799219 
L 1613.658654 187.641334 
L 1615.16292 191.984158 
L 1616.667186 195.065687 
L 1618.171452 196.848731 
L 1621.179985 199.640575 
L 1622.684251 201.036885 
L 1624.188517 203.851353 
L 1625.692783 205.226125 
L 1627.197049 205.12448 
L 1630.205582 204.623312 
L 1631.709848 204.271742 
L 1633.214114 204.343613 
L 1634.71838 202.143526 
L 1636.222646 197.471446 
L 1637.726913 186.526155 
L 1639.231179 174.462459 
L 1640.735445 164.411918 
L 1642.239711 160.073374 
L 1643.743977 156.858119 
L 1645.248243 159.892133 
L 1648.256776 172.8348 
L 1649.761042 178.599715 
L 1651.265308 183.90014 
L 1652.769574 188.733077 
L 1654.273841 193.075539 
L 1655.778107 196.660895 
L 1657.282373 197.575549 
L 1658.786639 193.869141 
L 1661.795171 185.486351 
L 1663.299438 181.868702 
L 1664.803704 180.591725 
L 1666.30797 183.731183 
L 1669.316502 190.946796 
L 1673.829301 201.264269 
L 1675.333567 203.289415 
L 1676.837833 204.041569 
L 1678.342099 204.486903 
L 1679.846366 204.3654 
L 1681.350632 202.696263 
L 1682.854898 202.483574 
L 1687.367696 202.676624 
L 1688.871963 200.92912 
L 1690.376229 191.886311 
L 1694.889027 160.915645 
L 1696.393294 153.203333 
L 1697.89756 156.683977 
L 1699.401826 160.912042 
L 1702.410358 173.429512 
L 1703.914624 179.118645 
L 1705.418891 184.268802 
L 1706.923157 188.874497 
L 1708.427423 192.906461 
L 1709.931689 195.770681 
L 1711.435955 195.12131 
L 1712.940221 193.258649 
L 1714.444488 190.514846 
L 1715.948754 187.025778 
L 1717.45302 183.891986 
L 1718.957286 184.499058 
L 1720.461552 186.748618 
L 1723.470085 194.650302 
L 1724.974351 198.132777 
L 1726.478617 201.131214 
L 1727.982883 203.583824 
L 1729.487149 205.592496 
L 1730.991416 207.389896 
L 1732.495682 209.00836 
L 1733.999948 209.272422 
L 1735.504214 207.120973 
L 1737.00848 204.421347 
L 1738.512747 202.025399 
L 1740.017013 198.665445 
L 1741.521279 192.348133 
L 1743.025545 187.458315 
L 1744.529811 183.050922 
L 1746.034077 175.466874 
L 1747.538344 167.302085 
L 1749.04261 162.891934 
L 1750.546876 160.860134 
L 1752.051142 159.645208 
L 1755.059674 166.681404 
L 1758.068207 177.963027 
L 1759.572473 182.944634 
L 1761.076739 187.408502 
L 1762.581005 191.074712 
L 1764.085272 191.604147 
L 1767.093804 189.011969 
L 1770.102336 186.805771 
L 1771.606602 187.214977 
L 1773.110869 189.306688 
L 1776.119401 192.791522 
L 1777.623667 194.506967 
L 1780.6322 201.668185 
L 1782.136466 204.90436 
L 1783.640732 207.823375 
L 1785.144998 210.444325 
L 1786.649264 212.763232 
L 1788.15353 214.649956 
L 1789.657797 215.137604 
L 1791.162063 212.831659 
L 1792.666329 205.055193 
L 1794.170595 194.191261 
L 1795.674861 184.425446 
L 1797.179128 176.348316 
L 1798.683394 171.258598 
L 1800.18766 169.219503 
L 1801.691926 170.223858 
L 1803.196192 169.8687 
L 1804.700458 167.890994 
L 1806.204725 165.16778 
L 1807.708991 163.209999 
L 1809.213257 165.852759 
L 1810.717523 168.742971 
L 1815.230322 184.300906 
L 1816.734588 187.497216 
L 1818.238854 187.270216 
L 1821.247386 185.980789 
L 1822.751653 185.412814 
L 1824.255919 185.327009 
L 1827.264451 193.666377 
L 1828.768717 196.219172 
L 1830.272983 197.508041 
L 1834.785782 200.623558 
L 1839.298581 209.421733 
L 1840.802847 211.900147 
L 1842.307113 214.04284 
L 1843.811379 214.565575 
L 1845.315645 208.59302 
L 1848.324178 192.854734 
L 1851.33271 178.582428 
L 1852.836976 176.356199 
L 1854.341242 178.612873 
L 1855.845508 179.301559 
L 1857.349775 176.492781 
L 1858.854041 174.460982 
L 1860.358307 171.376506 
L 1861.862573 167.498775 
L 1863.366839 164.578328 
L 1864.871106 166.744088 
L 1866.375372 169.905732 
L 1867.879638 175.488683 
L 1869.383904 180.35639 
L 1870.88817 181.623405 
L 1876.905235 181.316132 
L 1878.409501 184.679545 
L 1879.913767 189.472465 
L 1881.418034 193.817052 
L 1882.9223 197.711702 
L 1884.426566 201.000841 
L 1885.930832 202.82378 
L 1887.435098 203.465464 
L 1891.947897 205.001145 
L 1893.452163 207.503358 
L 1894.956429 209.734124 
L 1896.460695 208.353827 
L 1897.964961 203.173315 
L 1899.469228 197.573446 
L 1902.47776 183.838149 
L 1903.982026 178.595284 
L 1905.486292 180.40447 
L 1906.990559 182.651091 
L 1908.494825 186.906513 
L 1909.999091 189.955102 
L 1911.503357 190.664617 
L 1913.007623 187.610437 
L 1914.511889 183.334864 
L 1916.016156 177.942906 
L 1917.520422 173.739574 
L 1919.024688 170.613078 
L 1920.528954 172.310263 
L 1923.537487 176.265148 
L 1925.041753 176.317539 
L 1926.546019 175.937588 
L 1928.050285 175.382229 
L 1929.554551 175.043576 
L 1931.058817 177.205085 
L 1932.563084 182.618385 
L 1934.06735 187.596028 
L 1935.571616 192.117139 
L 1937.075882 196.199186 
L 1938.580148 199.854877 
L 1940.084414 203.074232 
L 1941.588681 205.67904 
L 1943.092947 206.808387 
L 1946.101479 206.659535 
L 1947.605745 205.32744 
L 1949.110012 199.26345 
L 1950.614278 194.574309 
L 1953.62281 186.735973 
L 1955.127076 181.805581 
L 1956.631342 180.53629 
L 1958.135609 182.383533 
L 1961.144141 185.562962 
L 1962.648407 188.909465 
L 1964.152673 193.221315 
L 1965.65694 197.088843 
L 1967.161206 199.396657 
L 1968.665472 196.977287 
L 1970.169738 192.156929 
L 1973.17827 179.415624 
L 1974.682537 174.332447 
L 1976.186803 175.247304 
L 1977.691069 173.602569 
L 1979.195335 173.636979 
L 1980.699601 173.804444 
L 1983.708134 173.506349 
L 1985.2124 177.352595 
L 1988.220932 186.890491 
L 1989.725198 190.915566 
L 1991.229465 194.337708 
L 1997.246529 206.13099 
L 1998.750795 208.168155 
L 2000.255062 204.831585 
L 2003.263594 190.708296 
L 2004.76786 184.447677 
L 2006.272126 179.008484 
L 2007.776393 177.250437 
L 2009.280659 181.115282 
L 2010.784925 183.031027 
L 2015.297723 187.901432 
L 2016.80199 190.126862 
L 2018.306256 194.383309 
L 2019.810522 198.281184 
L 2021.314788 201.705684 
L 2022.819054 203.75233 
L 2024.32332 201.959098 
L 2025.827587 198.538644 
L 2027.331853 192.756856 
L 2028.836119 184.884615 
L 2030.340385 175.096418 
L 2031.844651 169.704054 
L 2033.348918 165.645443 
L 2034.853184 166.183424 
L 2036.35745 167.503477 
L 2037.861716 171.907554 
L 2039.365982 177.765493 
L 2040.870248 183.124006 
L 2042.374515 187.944267 
L 2043.878781 192.156884 
L 2045.383047 195.700355 
L 2046.887313 198.677435 
L 2049.895846 204.193292 
L 2051.400112 205.846822 
L 2052.904378 202.174869 
L 2055.91291 191.92286 
L 2058.921443 179.083437 
L 2060.425709 177.291508 
L 2063.434241 182.175313 
L 2064.938507 185.121547 
L 2066.442773 186.853188 
L 2069.451306 189.68902 
L 2070.955572 190.949343 
L 2072.459838 193.552327 
L 2073.964104 197.315134 
L 2075.468371 200.683348 
L 2076.972637 203.648205 
L 2078.476903 205.376898 
L 2079.981169 203.422433 
L 2081.485435 199.75201 
L 2082.989701 192.079187 
L 2085.998234 172.485024 
L 2087.5025 167.707899 
L 2087.5025 167.707899 
" clip-path="url(#p840388bd77)" style="fill: none; stroke: #2ca02c; stroke-width: 1.5; stroke-linecap: square"/>
   </g>
   <g id="patch_9">
    <path d="M 1111.23375 320.72 
L 1111.23375 17.28 
" style="fill: none; stroke: #000000; stroke-width: 0.8; stroke-linejoin: miter; stroke-linecap: square"/>
   </g>
   <g id="patch_10">
    <path d="M 1111.23375 320.72 
L 1599.368125 320.72 
" style="fill: none; stroke: #000000; stroke-width: 0.8; stroke-linejoin: miter; stroke-linecap: square"/>
   </g>
  </g>
  <g id="axes_4">
   <g id="patch_11">
    <path d="M 1641.960625 320.72 
L 2130.095 320.72 
L 2130.095 17.28 
L 1641.960625 17.28 
z
" style="fill: #ffffff"/>
   </g>
   <g id="matplotlib.axis_7">
    <g id="xtick_13">
     <g id="line2d_29">
      <g>
       <use xlink:href="#m150fe12dfa" x="1641.960625" y="320.72" style="stroke: #000000; stroke-width: 0.8"/>
      </g>
     </g>
     <g id="text_16">
      <text style="font: 16px 'Arial'; text-anchor: middle" x="1641.960625" y="339.8775" transform="rotate(-0, 1641.960625, 339.8775)">0.0</text>
     </g>
    </g>
    <g id="xtick_14">
     <g id="line2d_30">
      <g>
       <use xlink:href="#m150fe12dfa" x="1804.672083" y="320.72" style="stroke: #000000; stroke-width: 0.8"/>
      </g>
     </g>
     <g id="text_17">
      <text style="font: 16px 'Arial'; text-anchor: middle" x="1804.672083" y="339.8775" transform="rotate(-0, 1804.672083, 339.8775)">0.1</text>
     </g>
    </g>
    <g id="xtick_15">
     <g id="line2d_31">
      <g>
       <use xlink:href="#m150fe12dfa" x="1967.383542" y="320.72" style="stroke: #000000; stroke-width: 0.8"/>
      </g>
     </g>
     <g id="text_18">
      <text style="font: 16px 'Arial'; text-anchor: middle" x="1967.383542" y="339.8775" transform="rotate(-0, 1967.383542, 339.8775)">0.2</text>
     </g>
    </g>
    <g id="xtick_16">
     <g id="line2d_32">
      <g>
       <use xlink:href="#m150fe12dfa" x="2130.095" y="320.72" style="stroke: #000000; stroke-width: 0.8"/>
      </g>
     </g>
     <g id="text_19">
      <text style="font: 16px 'Arial'; text-anchor: middle" x="2130.095" y="339.8775" transform="rotate(-0, 2130.095, 339.8775)">0.3</text>
     </g>
    </g>
   </g>
   <g id="matplotlib.axis_8">
    <g id="ytick_10">
     <g id="line2d_33">
      <g>
       <use xlink:href="#m416d4a9065" x="1641.960625" y="320.72" style="stroke: #000000; stroke-width: 0.8"/>
      </g>
     </g>
    </g>
    <g id="ytick_11">
     <g id="line2d_34">
      <g>
       <use xlink:href="#m416d4a9065" x="1641.960625" y="194.286667" style="stroke: #000000; stroke-width: 0.8"/>
      </g>
     </g>
    </g>
    <g id="ytick_12">
     <g id="line2d_35">
      <g>
       <use xlink:href="#m416d4a9065" x="1641.960625" y="67.853333" style="stroke: #000000; stroke-width: 0.8"/>
      </g>
     </g>
    </g>
   </g>
   <g id="line2d_36">
    <path d="M 1641.960625 320.72 
L 1643.462577 236.431109 
L 1723.066029 236.444945 
L 1726.069933 242.514345 
L 1729.073837 252.244243 
L 1730.575788 260.176045 
L 1733.579692 280.749449 
L 1735.081644 289.081941 
L 1736.583596 295.932379 
L 1738.085548 301.112797 
L 1739.5875 305.010887 
L 1741.089452 307.909569 
L 1742.591404 308.958589 
L 1744.093356 309.589891 
L 1745.595308 309.600857 
L 1747.09726 308.142365 
L 1748.599212 305.318751 
L 1750.101163 301.926768 
L 1753.105067 294.010388 
L 1754.607019 290.618589 
L 1756.108971 287.914725 
L 1757.610923 286.118174 
L 1759.112875 284.834252 
L 1762.116779 282.556736 
L 1763.618731 280.410924 
L 1766.622635 274.720115 
L 1772.630442 263.457564 
L 1775.634346 258.810877 
L 1778.63825 254.913266 
L 1781.642154 251.669351 
L 1784.646058 248.982649 
L 1787.649962 246.764099 
L 1790.653865 244.93544 
L 1793.657769 243.429684 
L 1796.661673 242.1905 
L 1799.665577 241.170945 
L 1802.669481 240.332164 
L 1807.175337 239.344366 
L 1811.681192 238.607087 
L 1817.689 237.906125 
L 1823.696808 237.431205 
L 1831.206567 237.04656 
L 1841.720231 236.743092 
L 1856.73975 236.549341 
L 1883.774885 236.452398 
L 1885.276837 237.841873 
L 1886.778788 240.925097 
L 1888.28074 245.305564 
L 1889.782692 250.14945 
L 1891.284644 256.380633 
L 1894.288548 278.018986 
L 1895.7905 286.930507 
L 1897.292452 294.295116 
L 1898.794404 299.880037 
L 1900.296356 304.083869 
L 1901.798308 307.250301 
L 1903.30026 309.151648 
L 1904.802212 309.935359 
L 1906.304163 309.932407 
L 1907.806115 309.418927 
L 1909.308067 307.087596 
L 1910.810019 306.059649 
L 1912.311971 305.763633 
L 1913.813923 306.301738 
L 1916.817827 308.3513 
L 1918.319779 309.161359 
L 1919.821731 308.527399 
L 1921.323683 305.385694 
L 1922.825635 299.403196 
L 1925.829538 283.246493 
L 1927.33149 278.531341 
L 1930.335394 271.793986 
L 1933.339298 265.836507 
L 1936.343202 260.748639 
L 1939.347106 256.477848 
L 1942.35101 252.927466 
L 1945.354913 249.993145 
L 1948.358817 247.576263 
L 1951.362721 245.589257 
L 1954.366625 243.957175 
L 1957.370529 242.617076 
L 1960.374433 241.516712 
L 1963.378337 240.613054 
L 1967.884192 239.550785 
L 1972.390048 238.75936 
L 1976.895904 238.169328 
L 1982.903712 237.608882 
L 1990.413471 237.155508 
L 1999.425183 236.835589 
L 2012.94275 236.599953 
L 2035.472029 236.470499 
L 2045.985692 236.451561 
L 2047.487644 237.573018 
L 2048.989596 240.670237 
L 2051.9935 250.18979 
L 2053.495452 255.556796 
L 2056.499356 277.529507 
L 2058.001308 286.450282 
L 2059.50326 293.93844 
L 2061.005212 299.616439 
L 2062.507163 303.888384 
L 2064.009115 307.104505 
L 2065.511067 309.284123 
L 2067.013019 309.941168 
L 2068.514971 309.936693 
L 2070.016923 309.625071 
L 2074.522779 302.228998 
L 2076.024731 300.159748 
L 2077.526683 298.665889 
L 2079.028635 297.463234 
L 2080.530587 296.977406 
L 2082.032538 297.215975 
L 2083.53449 296.714672 
L 2085.036442 296.396089 
L 2086.538394 296.328619 
L 2088.040346 295.420081 
L 2089.542298 293.566334 
L 2091.04425 290.328309 
L 2095.550106 279.392711 
L 2098.55401 272.851899 
L 2101.557913 267.056825 
L 2104.561817 262.032372 
L 2107.565721 257.742873 
L 2110.569625 254.119686 
L 2113.573529 251.081798 
L 2116.577433 248.54761 
L 2119.581337 246.441143 
L 2122.58524 244.694566 
L 2125.589144 243.248955 
L 2128.593048 242.053947 
L 2131.596952 241.067001 
L 2136.102808 239.900275 
L 2140.608663 239.026293 
L 2145.114519 238.372069 
L 2151.122327 237.748494 
L 2158.632087 237.242504 
L 2161 237.128293 
L 2161 237.128293 
" clip-path="url(#p5e9efc8af5)" style="fill: none; stroke: #1f77b4; stroke-width: 1.5; stroke-linecap: square"/>
   </g>
   <g id="line2d_37">
    <path d="M 1641.960625 320.72 
L 1643.462577 236.431109 
L 1723.066029 236.448683 
L 1726.069933 243.97016 
L 1729.073837 256.876473 
L 1730.575788 265.053835 
L 1733.579692 283.116681 
L 1735.081644 290.758651 
L 1736.583596 297.208948 
L 1738.085548 302.095964 
L 1739.5875 305.779222 
L 1741.089452 308.518117 
L 1742.591404 309.396235 
L 1744.093356 309.854703 
L 1745.595308 309.617889 
L 1747.09726 308.169938 
L 1748.599212 305.462246 
L 1750.101163 302.15616 
L 1753.105067 294.379531 
L 1756.108971 287.702553 
L 1760.614827 275.748958 
L 1762.116779 271.634686 
L 1763.618731 268.06838 
L 1766.622635 263.896993 
L 1769.626538 258.674027 
L 1771.12849 256.352411 
L 1772.630442 254.269027 
L 1774.132394 252.404165 
L 1775.634346 250.737636 
L 1777.136298 249.249906 
L 1780.140202 246.738401 
L 1783.144106 244.739104 
L 1786.14801 243.144883 
L 1789.151913 241.870249 
L 1792.155817 240.847944 
L 1795.159721 240.02538 
L 1799.665577 239.078669 
L 1804.171433 238.387948 
L 1810.17924 237.744078 
L 1817.689 237.232149 
L 1826.700712 236.875786 
L 1838.716327 236.63483 
L 1858.241702 236.488676 
L 1883.774885 236.443008 
L 1885.276837 238.197173 
L 1886.778788 242.011263 
L 1888.28074 247.617274 
L 1889.782692 253.672393 
L 1891.284644 261.82162 
L 1894.288548 280.681407 
L 1895.7905 288.815547 
L 1897.292452 295.723049 
L 1898.794404 300.973093 
L 1900.296356 304.932415 
L 1901.798308 307.919627 
L 1903.30026 309.668567 
L 1904.802212 310.297331 
L 1906.304163 310.058628 
L 1907.806115 309.038062 
L 1909.308067 306.659 
L 1910.810019 303.586303 
L 1912.311971 301.017597 
L 1913.813923 299.165768 
L 1915.315875 297.504729 
L 1916.817827 296.263651 
L 1918.319779 296.027885 
L 1919.821731 296.335985 
L 1921.323683 293.965591 
L 1922.825635 289.989942 
L 1924.327587 284.064056 
L 1925.829538 276.50237 
L 1927.33149 270.839874 
L 1928.833442 267.38154 
L 1930.335394 264.305957 
L 1931.837346 261.514004 
L 1933.339298 258.986323 
L 1934.84125 256.703702 
L 1936.343202 254.647764 
L 1937.845154 252.799873 
L 1939.347106 251.141498 
L 1942.35101 248.322193 
L 1945.354913 246.058939 
L 1948.358817 244.241222 
L 1951.362721 242.778897 
L 1954.366625 241.599834 
L 1957.370529 240.646838 
L 1960.374433 239.874705 
L 1964.880288 238.979464 
L 1969.386144 238.321397 
L 1975.393952 237.703919 
L 1982.903712 237.209925 
L 1991.915423 236.864369 
L 2005.43299 236.611476 
L 2026.460317 236.47741 
L 2045.985692 236.444824 
L 2047.487644 237.862356 
L 2048.989596 241.702445 
L 2051.9935 253.880387 
L 2053.495452 262.065874 
L 2056.499356 280.797461 
L 2058.001308 288.746012 
L 2059.50326 295.658447 
L 2061.005212 300.918828 
L 2062.507163 304.888706 
L 2064.009115 307.885392 
L 2065.511067 309.896154 
L 2067.013019 310.371577 
L 2068.514971 310.127256 
L 2070.016923 309.18116 
L 2073.020827 304.326072 
L 2077.526683 293.880483 
L 2079.028635 290.6355 
L 2080.530587 286.669132 
L 2082.032538 282.143322 
L 2083.53449 279.419629 
L 2086.538394 275.118939 
L 2088.040346 274.482365 
L 2089.542298 271.035855 
L 2091.04425 267.1975 
L 2092.546202 263.796888 
L 2094.048154 260.686188 
L 2095.550106 257.86964 
L 2097.052058 255.351854 
L 2098.55401 253.118428 
L 2100.055962 251.146284 
L 2101.557913 249.41022 
L 2103.059865 247.885164 
L 2104.561817 246.54722 
L 2106.063769 245.374194 
L 2109.067673 243.444191 
L 2112.071577 241.958089 
L 2115.075481 240.809254 
L 2118.079385 239.916515 
L 2121.083288 239.218725 
L 2125.589144 238.440594 
L 2130.095 237.891219 
L 2136.102808 237.394309 
L 2143.612567 237.010394 
L 2154.126231 236.719339 
L 2161 236.61491 
L 2161 236.61491 
" clip-path="url(#p5e9efc8af5)" style="fill: none; stroke: #ff7f0e; stroke-width: 1.5; stroke-linecap: square"/>
   </g>
   <g id="line2d_38">
    <path d="M 1641.960625 320.72 
L 1643.462577 236.431109 
L 1723.066029 236.399706 
L 1726.069933 222.808806 
L 1729.073837 200.172625 
L 1730.575788 184.063461 
L 1733.579692 145.427192 
L 1735.081644 129.452726 
L 1736.583596 116.151993 
L 1738.085548 106.084557 
L 1739.5875 98.503221 
L 1741.089452 92.865635 
L 1742.591404 90.93854 
L 1744.093356 89.848742 
L 1745.595308 90.074582 
L 1747.09726 92.981041 
L 1748.599212 98.512355 
L 1750.101163 105.210424 
L 1753.105067 120.90339 
L 1754.607019 127.63721 
L 1757.610923 139.382811 
L 1759.112875 144.805606 
L 1762.116779 155.101911 
L 1763.618731 160.814029 
L 1766.622635 170.676214 
L 1771.12849 186.853715 
L 1772.630442 191.566753 
L 1774.132394 195.854105 
L 1775.634346 199.744821 
L 1777.136298 203.269211 
L 1778.63825 206.45754 
L 1780.140202 209.339184 
L 1781.642154 211.942017 
L 1783.144106 214.292093 
L 1784.646058 216.413526 
L 1786.14801 218.328443 
L 1789.151913 221.617596 
L 1792.155817 224.29943 
L 1795.159721 226.488047 
L 1798.163625 228.275996 
L 1801.167529 229.738164 
L 1804.171433 230.935094 
L 1807.175337 231.915778 
L 1810.17924 232.719931 
L 1814.685096 233.66402 
L 1819.190952 234.36667 
L 1825.19876 235.033193 
L 1832.708519 235.571747 
L 1841.720231 235.951449 
L 1853.735846 236.210522 
L 1873.261221 236.368635 
L 1883.774885 236.397928 
L 1885.276837 233.254279 
L 1886.778788 226.356958 
L 1888.28074 216.370496 
L 1889.782692 205.471475 
L 1891.284644 191.09108 
L 1894.288548 150.592948 
L 1895.7905 133.547284 
L 1897.292452 119.275159 
L 1898.794404 108.440224 
L 1900.296356 100.277063 
L 1901.798308 94.123396 
L 1903.30026 90.473116 
L 1904.802212 89.060641 
L 1906.304163 89.302306 
L 1907.806115 90.836352 
L 1909.308067 95.546753 
L 1910.810019 99.647399 
L 1912.311971 102.512079 
L 1913.813923 103.825818 
L 1915.315875 104.468655 
L 1916.817827 104.678367 
L 1918.319779 104.104092 
L 1919.821731 104.42995 
L 1921.323683 109.942046 
L 1922.825635 119.900196 
L 1924.327587 133.817676 
L 1925.829538 149.544463 
L 1927.33149 159.922112 
L 1928.833442 166.834746 
L 1931.837346 179.071801 
L 1933.339298 184.470496 
L 1934.84125 189.404309 
L 1936.343202 193.896949 
L 1937.845154 197.976714 
L 1939.347106 201.673995 
L 1940.849058 205.019571 
L 1942.35101 208.043683 
L 1943.852962 210.775179 
L 1945.354913 213.241226 
L 1946.856865 215.467071 
L 1948.358817 217.475848 
L 1949.860769 219.288802 
L 1952.864673 222.402434 
L 1955.868577 224.941061 
L 1958.872481 227.012922 
L 1961.876385 228.705692 
L 1964.880288 230.090209 
L 1967.884192 231.223715 
L 1970.888096 232.152567 
L 1975.393952 233.242305 
L 1979.899808 234.052788 
L 1984.405663 234.656317 
L 1990.413471 235.229054 
L 1997.923231 235.692014 
L 2006.934942 236.018527 
L 2020.45251 236.258903 
L 2042.981788 236.390942 
L 2045.985692 236.39694 
L 2047.487644 233.857959 
L 2048.989596 226.920659 
L 2051.9935 205.223156 
L 2053.495452 191.670675 
L 2056.499356 150.966373 
L 2058.001308 134.097021 
L 2059.50326 119.696467 
L 2061.005212 108.758063 
L 2062.507163 100.516226 
L 2064.009115 94.303446 
L 2065.511067 90.113076 
L 2067.013019 88.980594 
L 2068.514971 89.229388 
L 2070.016923 90.487088 
L 2073.020827 100.339507 
L 2076.024731 112.003538 
L 2079.028635 121.194611 
L 2082.032538 129.934036 
L 2083.53449 133.159028 
L 2086.538394 137.845781 
L 2088.040346 139.390905 
L 2089.542298 144.691149 
L 2094.048154 165.688896 
L 2097.052058 177.908045 
L 2098.55401 183.323002 
L 2100.055962 188.28916 
L 2101.557913 192.826293 
L 2103.059865 196.958749 
L 2104.561817 200.713749 
L 2106.063769 204.119575 
L 2107.565721 207.204563 
L 2109.067673 209.996211 
L 2110.569625 212.52067 
L 2112.071577 214.802492 
L 2113.573529 216.864429 
L 2115.075481 218.727414 
L 2118.079385 221.931464 
L 2121.083288 224.54784 
L 2124.087192 226.685761 
L 2127.091096 228.434169 
L 2130.095 229.865266 
L 2133.098904 231.037629 
L 2136.102808 231.998772 
L 2140.608663 233.126883 
L 2145.114519 233.966289 
L 2149.620375 234.59153 
L 2155.628183 235.185021 
L 2161 235.550126 
L 2161 235.550126 
" clip-path="url(#p5e9efc8af5)" style="fill: none; stroke: #2ca02c; stroke-width: 1.5; stroke-linecap: square"/>
   </g>
   <g id="line2d_39">
    <path d="M 1641.960625 194.286667 
L 1649.470385 158.133601 
L 1653.97624 137.70535 
L 1656.980144 124.999619 
L 1659.984048 113.225125 
L 1662.987952 102.540121 
L 1665.991856 93.088217 
L 1667.493808 88.865072 
L 1668.99576 84.99645 
L 1670.497712 81.495359 
L 1671.999663 78.373573 
L 1673.501615 75.641592 
L 1675.003567 73.308602 
L 1676.505519 71.38245 
L 1678.007471 69.869611 
L 1679.509423 68.775175 
L 1681.011375 68.102821 
L 1682.513327 67.85481 
L 1684.015279 68.031977 
L 1685.517231 68.633726 
L 1687.019183 69.658033 
L 1688.521135 71.101453 
L 1690.023087 72.959132 
L 1691.525038 75.224824 
L 1693.02699 77.890909 
L 1694.528942 80.948421 
L 1696.030894 84.387078 
L 1697.532846 88.195316 
L 1699.034798 92.360328 
L 1702.038702 101.703498 
L 1705.042606 112.291012 
L 1708.04651 123.980571 
L 1711.050413 136.615064 
L 1715.556269 156.964179 
L 1721.564077 185.738073 
L 1730.575788 229.266931 
L 1735.081644 249.77241 
L 1738.085548 262.548193 
L 1741.089452 274.406522 
L 1744.093356 285.188017 
L 1747.09726 294.747771 
L 1748.599212 299.028654 
L 1750.101163 302.9573 
L 1751.603115 306.520498 
L 1753.105067 309.706265 
L 1754.607019 312.503887 
L 1756.108971 314.903957 
L 1757.610923 316.898403 
L 1759.112875 318.480518 
L 1760.614827 319.644982 
L 1762.116779 320.387879 
L 1763.618731 320.70671 
L 1765.120683 320.600403 
L 1766.622635 320.069316 
L 1768.124587 319.115234 
L 1769.626538 317.741367 
L 1771.12849 315.952334 
L 1772.630442 313.754152 
L 1774.132394 311.154213 
L 1775.634346 308.16126 
L 1777.136298 304.785358 
L 1778.63825 301.037861 
L 1780.140202 296.93137 
L 1783.144106 287.697807 
L 1786.14801 277.208772 
L 1789.151913 265.60524 
L 1792.155817 253.043166 
L 1795.159721 239.691388 
L 1799.665577 218.577888 
L 1814.685096 146.609309 
L 1817.689 133.376944 
L 1820.692904 120.963223 
L 1823.696808 109.53499 
L 1826.700712 99.245844 
L 1829.704615 90.234073 
L 1831.206567 86.245771 
L 1832.708519 82.620799 
L 1834.210471 79.371349 
L 1835.712423 76.508347 
L 1837.214375 74.041421 
L 1838.716327 71.978868 
L 1840.218279 70.327624 
L 1841.720231 69.093241 
L 1843.222183 68.279872 
L 1844.724135 67.89025 
L 1846.226087 67.925687 
L 1847.728038 68.386063 
L 1849.22999 69.26983 
L 1850.731942 70.574015 
L 1852.233894 72.294234 
L 1853.735846 74.424701 
L 1855.237798 76.958252 
L 1856.73975 79.886366 
L 1858.241702 83.199197 
L 1859.743654 86.885604 
L 1861.245606 90.93319 
L 1864.24951 100.056283 
L 1867.253413 110.445859 
L 1870.257317 121.962279 
L 1873.261221 134.45076 
L 1876.265125 147.743452 
L 1880.770981 168.797208 
L 1895.7905 240.829881 
L 1898.794404 254.122573 
L 1901.798308 266.611054 
L 1904.802212 278.127475 
L 1907.806115 288.517051 
L 1910.810019 297.640144 
L 1912.311971 301.687729 
L 1913.813923 305.374136 
L 1915.315875 308.686967 
L 1916.817827 311.615081 
L 1918.319779 314.148632 
L 1919.821731 316.279099 
L 1921.323683 317.999318 
L 1922.825635 319.303504 
L 1924.327587 320.187271 
L 1925.829538 320.647647 
L 1927.33149 320.683083 
L 1928.833442 320.293462 
L 1930.335394 319.480092 
L 1931.837346 318.245709 
L 1933.339298 316.594465 
L 1934.84125 314.531912 
L 1936.343202 312.064987 
L 1937.845154 309.201985 
L 1939.347106 305.952534 
L 1940.849058 302.327562 
L 1942.35101 298.33926 
L 1945.354913 289.32749 
L 1948.358817 279.038343 
L 1951.362721 267.610111 
L 1954.366625 255.19639 
L 1957.370529 241.964024 
L 1961.876385 220.971982 
L 1978.397856 142.118338 
L 1981.40176 129.139589 
L 1984.405663 117.036435 
L 1987.409567 105.971546 
L 1990.413471 96.093638 
L 1993.417375 87.535473 
L 1994.919327 83.787975 
L 1996.421279 80.412073 
L 1997.923231 77.419121 
L 1999.425183 74.819181 
L 2000.927135 72.620999 
L 2002.429087 70.831966 
L 2003.931038 69.458099 
L 2005.43299 68.504018 
L 2006.934942 67.972931 
L 2008.436894 67.866624 
L 2009.938846 68.185455 
L 2011.440798 68.928351 
L 2012.94275 70.092815 
L 2014.444702 71.674931 
L 2015.946654 73.669377 
L 2017.448606 76.069446 
L 2018.950558 78.867069 
L 2020.45251 82.052835 
L 2021.954462 85.616033 
L 2023.456413 89.544679 
L 2024.958365 93.825562 
L 2027.962269 103.385317 
L 2030.966173 114.166812 
L 2033.970077 126.02514 
L 2036.973981 138.800923 
L 2041.479837 159.306402 
L 2047.487644 188.178245 
L 2056.499356 231.609154 
L 2061.005212 251.958269 
L 2064.009115 264.592762 
L 2067.013019 276.282321 
L 2070.016923 286.869835 
L 2073.020827 296.213005 
L 2074.522779 300.378017 
L 2076.024731 304.186256 
L 2077.526683 307.624912 
L 2079.028635 310.682424 
L 2080.530587 313.348509 
L 2082.032538 315.614201 
L 2083.53449 317.471881 
L 2085.036442 318.915301 
L 2086.538394 319.939608 
L 2088.040346 320.541356 
L 2089.542298 320.718523 
L 2091.04425 320.470513 
L 2092.546202 319.798159 
L 2094.048154 318.703722 
L 2095.550106 317.190884 
L 2097.052058 315.264731 
L 2098.55401 312.931741 
L 2100.055962 310.19976 
L 2101.557913 307.077975 
L 2103.059865 303.576884 
L 2104.561817 299.708261 
L 2106.063769 295.485116 
L 2109.067673 286.033212 
L 2112.071577 275.348209 
L 2115.075481 263.573715 
L 2118.079385 250.867983 
L 2122.58524 230.439732 
L 2128.593048 201.615517 
L 2137.60476 158.133601 
L 2142.110615 137.70535 
L 2145.114519 124.999619 
L 2148.118423 113.225125 
L 2151.122327 102.540121 
L 2154.126231 93.088217 
L 2155.628183 88.865072 
L 2157.130135 84.99645 
L 2158.632087 81.495359 
L 2161 76.798429 
L 2161 76.798429 
" clip-path="url(#p5e9efc8af5)" style="fill: none; stroke-dasharray: 3.2,0.8,0.5,0.8; stroke-dashoffset: 0; stroke: #000000; stroke-width: 0.5"/>
   </g>
   <g id="patch_12">
    <path d="M 1641.960625 320.72 
L 1641.960625 17.28 
" style="fill: none; stroke: #000000; stroke-width: 0.8; stroke-linejoin: miter; stroke-linecap: square"/>
   </g>
   <g id="patch_13">
    <path d="M 1641.960625 320.72 
L 2130.095 320.72 
" style="fill: none; stroke: #000000; stroke-width: 0.8; stroke-linejoin: miter; stroke-linecap: square"/>
   </g>
  </g>
 </g>
 <defs>
  <clipPath id="pda8dc573b9">
   <rect x="49.78" y="17.28" width="488.134375" height="303.44"/>
  </clipPath>
  <clipPath id="pdf00ead789">
   <rect x="580.506875" y="17.28" width="488.134375" height="303.44"/>
  </clipPath>
  <clipPath id="p840388bd77">
   <rect x="1111.23375" y="17.28" width="488.134375" height="303.44"/>
  </clipPath>
  <clipPath id="p5e9efc8af5">
   <rect x="1641.960625" y="17.28" width="488.134375" height="303.44"/>
  </clipPath>
 </defs>
</svg>
