<?xml version="1.0" encoding="utf-8" standalone="no"?>
<!DOCTYPE svg PUBLIC "-//W3C//DTD SVG 1.1//EN"
  "http://www.w3.org/Graphics/SVG/1.1/DTD/svg11.dtd">
<svg xmlns:xlink="http://www.w3.org/1999/xlink" width="720pt" height="360pt" viewBox="0 0 720 360" xmlns="http://www.w3.org/2000/svg" version="1.1">
 <metadata>
  <rdf:RDF xmlns:dc="http://purl.org/dc/elements/1.1/" xmlns:cc="http://creativecommons.org/ns#" xmlns:rdf="http://www.w3.org/1999/02/22-rdf-syntax-ns#">
   <cc:Work>
    <dc:type rdf:resource="http://purl.org/dc/dcmitype/StillImage"/>
    <dc:date>2023-01-18T19:44:20.211133</dc:date>
    <dc:format>image/svg+xml</dc:format>
    <dc:creator>
     <cc:Agent>
      <dc:title>Matplotlib v3.5.2, https://matplotlib.org/</dc:title>
     </cc:Agent>
    </dc:creator>
   </cc:Work>
  </rdf:RDF>
 </metadata>
 <defs>
  <style type="text/css">*{stroke-linejoin: round; stroke-linecap: butt}</style>
 </defs>
 <g id="figure_1">
  <g id="patch_1">
   <path d="M 0 360 
L 720 360 
L 720 0 
L 0 0 
L 0 360 
z
" style="fill: none"/>
  </g>
  <g id="axes_1">
   <g id="patch_2">
    <path d="M 90 315 
L 648 315 
L 648 43.2 
L 90 43.2 
z
" style="fill: #ffffff"/>
   </g>
   <g id="matplotlib.axis_1">
    <g id="xtick_1">
     <g id="line2d_1">
      <defs>
       <path id="m60ffdfef7e" d="M 0 0 
L 0 3.5 
" style="stroke: #000000; stroke-width: 0.8"/>
      </defs>
      <g>
       <use xlink:href="#m60ffdfef7e" x="90" y="315" style="stroke: #000000; stroke-width: 0.8"/>
      </g>
     </g>
     <g id="text_1">
      <text style="font: 16px 'Arial'; text-anchor: middle" x="90" y="334.1575" transform="rotate(-0, 90, 334.1575)">0</text>
     </g>
    </g>
    <g id="xtick_2">
     <g id="line2d_2">
      <g>
       <use xlink:href="#m60ffdfef7e" x="276" y="315" style="stroke: #000000; stroke-width: 0.8"/>
      </g>
     </g>
     <g id="text_2">
      <text style="font: 16px 'Arial'; text-anchor: middle" x="276" y="334.1575" transform="rotate(-0, 276, 334.1575)">0.1</text>
     </g>
    </g>
    <g id="xtick_3">
     <g id="line2d_3">
      <g>
       <use xlink:href="#m60ffdfef7e" x="462" y="315" style="stroke: #000000; stroke-width: 0.8"/>
      </g>
     </g>
     <g id="text_3">
      <text style="font: 16px 'Arial'; text-anchor: middle" x="462" y="334.1575" transform="rotate(-0, 462, 334.1575)">0.2</text>
     </g>
    </g>
    <g id="xtick_4">
     <g id="line2d_4">
      <g>
       <use xlink:href="#m60ffdfef7e" x="648" y="315" style="stroke: #000000; stroke-width: 0.8"/>
      </g>
     </g>
     <g id="text_4">
      <text style="font: 16px 'Arial'; text-anchor: middle" x="648" y="334.1575" transform="rotate(-0, 648, 334.1575)">0.3</text>
     </g>
    </g>
   </g>
   <g id="matplotlib.axis_2">
    <g id="ytick_1">
     <g id="line2d_5">
      <defs>
       <path id="mdc33346b06" d="M 0 0 
L -3.5 0 
" style="stroke: #000000; stroke-width: 0.8"/>
      </defs>
      <g>
       <use xlink:href="#mdc33346b06" x="90" y="302.645455" style="stroke: #000000; stroke-width: 0.8"/>
      </g>
     </g>
     <g id="text_5">
      <text style="font: 16px 'Arial'; text-anchor: end" x="83" y="308.724205" transform="rotate(-0, 83, 308.724205)">0.0</text>
     </g>
    </g>
    <g id="ytick_2">
     <g id="line2d_6">
      <g>
       <use xlink:href="#mdc33346b06" x="90" y="179.099788" style="stroke: #000000; stroke-width: 0.8"/>
      </g>
     </g>
     <g id="text_6">
      <text style="font: 16px 'Arial'; text-anchor: end" x="83" y="185.178538" transform="rotate(-0, 83, 185.178538)">0.5</text>
     </g>
    </g>
    <g id="ytick_3">
     <g id="line2d_7">
      <g>
       <use xlink:href="#mdc33346b06" x="90" y="55.554121" style="stroke: #000000; stroke-width: 0.8"/>
      </g>
     </g>
     <g id="text_7">
      <text style="font: 16px 'Arial'; text-anchor: end" x="83" y="61.632871" transform="rotate(-0, 83, 61.632871)">1.0</text>
     </g>
    </g>
   </g>
   <g id="line2d_8">
    <path d="M 90 302.645455 
L 91.86 220.281674 
L 184.86 220.30149 
L 186.72 225.674122 
L 190.44 243.090597 
L 194.16 262.609685 
L 196.02 270.339905 
L 197.88 276.834472 
L 199.74 282.31868 
L 201.6 286.613641 
L 203.46 289.717473 
L 205.32 291.697611 
L 207.18 292.78831 
L 209.04 293.56173 
L 210.9 293.378784 
L 212.76 292.006776 
L 214.62 290.242891 
L 216.48 288.953636 
L 218.34 286.979545 
L 222.06 279.906951 
L 223.92 275.257904 
L 225.78 269.587812 
L 227.64 261.264445 
L 231.36 236.977518 
L 233.22 228.507956 
L 235.08 226.957649 
L 238.8 225.583031 
L 242.52 224.478623 
L 246.24 223.615405 
L 249.96 222.938045 
L 255.54 222.180477 
L 261.12 221.645468 
L 268.56 221.163788 
L 277.86 220.796499 
L 290.88 220.525588 
L 311.34 220.357662 
L 354.12 220.288368 
L 369 220.284598 
L 370.86 222.218813 
L 372.72 230.086988 
L 374.58 239.12578 
L 378.3 259.473689 
L 380.16 267.871781 
L 382.02 274.977023 
L 383.88 281.174706 
L 385.74 285.788787 
L 387.6 288.722595 
L 389.46 290.22936 
L 391.32 291.584449 
L 393.18 292.739256 
L 395.04 293.499927 
L 396.9 291.990271 
L 398.76 286.309127 
L 400.62 279.914131 
L 402.48 271.865328 
L 404.34 259.484908 
L 406.2 244.85087 
L 408.06 228.097845 
L 411.78 222.103502 
L 413.64 219.566787 
L 415.5 219.657127 
L 417.36 220.156311 
L 422.94 220.155516 
L 443.4 220.197659 
L 495.48 220.276298 
L 555 220.282985 
L 556.86 223.399054 
L 560.58 241.228338 
L 564.3 261.585065 
L 566.16 269.542049 
L 568.02 276.437186 
L 569.88 282.332401 
L 571.74 286.475671 
L 573.6 289.240911 
L 577.32 291.956948 
L 579.18 293.049204 
L 581.04 293.5191 
L 582.9 292.355631 
L 584.76 290.24135 
L 586.62 286.557336 
L 588.48 278.743956 
L 590.34 266.489684 
L 592.2 251.281893 
L 594.06 234.881496 
L 595.92 220.946796 
L 597.78 220.058673 
L 599.64 222.918413 
L 601.5 224.550303 
L 603.36 224.790447 
L 605.22 224.161696 
L 608.94 223.358126 
L 614.52 222.504113 
L 620.1 221.890781 
L 627.54 221.330396 
L 636.84 220.897465 
L 648 220.607519 
L 664.74 220.40742 
L 696.36 220.302551 
L 721 220.286838 
L 721 220.286838 
" clip-path="url(#p9990031025)" style="fill: none; stroke: #1f77b4; stroke-width: 1.5; stroke-linecap: square"/>
   </g>
   <g id="line2d_9">
    <path d="M 90 302.645455 
L 91.86 220.281674 
L 184.86 220.27607 
L 186.72 221.149318 
L 188.58 228.292525 
L 190.44 237.918005 
L 197.88 268.735492 
L 199.74 272.582688 
L 201.6 270.88522 
L 203.46 268.755353 
L 205.32 265.11567 
L 207.18 260.061029 
L 209.04 254.484314 
L 210.9 244.681626 
L 212.76 221.801693 
L 216.48 171.130138 
L 218.34 155.550108 
L 220.2 152.498937 
L 222.06 153.139508 
L 223.92 154.536512 
L 225.78 156.852752 
L 227.64 163.1133 
L 229.5 173.646764 
L 231.36 187.619852 
L 233.22 196.9542 
L 235.08 199.705956 
L 236.94 201.823333 
L 238.8 203.728226 
L 240.66 205.435943 
L 242.52 206.964798 
L 244.38 208.333547 
L 248.1 210.657225 
L 251.82 212.52275 
L 255.54 214.022201 
L 259.26 215.228753 
L 262.98 216.200574 
L 266.7 216.984011 
L 272.28 217.884829 
L 277.86 218.538456 
L 285.3 219.140697 
L 294.6 219.609454 
L 305.76 219.925144 
L 322.5 220.143866 
L 352.26 220.256225 
L 369 220.271821 
L 370.86 219.81766 
L 372.72 224.713951 
L 374.58 234.017593 
L 378.3 250.924501 
L 380.16 258.539181 
L 382.02 266.708422 
L 383.88 269.387374 
L 385.74 267.26444 
L 387.6 263.588542 
L 389.46 258.000586 
L 393.18 244.338394 
L 395.04 237.267007 
L 400.62 171.96971 
L 402.48 159.331542 
L 404.34 167.151204 
L 408.06 195.385286 
L 411.78 205.53621 
L 413.64 207.95885 
L 415.5 208.933049 
L 417.36 210.490675 
L 419.22 211.526194 
L 422.94 213.211186 
L 426.66 214.567947 
L 430.38 215.662936 
L 434.1 216.547074 
L 439.68 217.565177 
L 445.26 218.304903 
L 450.84 218.842739 
L 458.28 219.33911 
L 467.58 219.726002 
L 480.6 220.016382 
L 501.06 220.198617 
L 541.98 220.27353 
L 555 220.277359 
L 556.86 219.788647 
L 558.72 226.87594 
L 560.58 236.566436 
L 566.16 260.182478 
L 568.02 267.305582 
L 569.88 268.323758 
L 571.74 265.747886 
L 573.6 262.089333 
L 575.46 256.511345 
L 579.18 242.722225 
L 581.04 235.333867 
L 582.9 211.967048 
L 584.76 182.970774 
L 586.62 160.108993 
L 588.48 153.392045 
L 590.34 160.321736 
L 594.06 186.719439 
L 595.92 200.165087 
L 597.78 202.949995 
L 599.64 204.201474 
L 601.5 206.923332 
L 603.36 210.054026 
L 605.22 211.260917 
L 608.94 213.036359 
L 612.66 214.436678 
L 616.38 215.563273 
L 620.1 216.470689 
L 623.82 217.202226 
L 629.4 218.043359 
L 634.98 218.653723 
L 642.42 219.216126 
L 651.72 219.653873 
L 662.88 219.948701 
L 679.62 220.152968 
L 709.38 220.257911 
L 721 220.269367 
L 721 220.269367 
" clip-path="url(#p9990031025)" style="fill: none; stroke: #ff7f0e; stroke-width: 1.5; stroke-linecap: square"/>
   </g>
   <g id="line2d_10">
    <path d="M 90 302.645455 
L 91.86 220.281674 
L 184.86 220.267469 
L 186.72 214.021575 
L 188.58 198.366544 
L 192.3 161.95605 
L 194.16 144.45989 
L 197.88 115.275064 
L 199.74 105.943653 
L 201.6 103.346157 
L 203.46 102.372208 
L 205.32 104.031765 
L 207.18 107.995705 
L 209.04 112.798998 
L 210.9 122.784617 
L 212.76 147.036576 
L 216.48 200.761261 
L 218.34 218.315381 
L 220.2 224.900759 
L 222.06 227.798577 
L 225.78 234.404477 
L 227.64 236.467274 
L 229.5 237.947291 
L 231.36 236.247653 
L 233.22 235.382874 
L 235.08 234.181447 
L 236.94 232.782086 
L 240.66 230.412252 
L 244.38 228.490849 
L 248.1 226.931375 
L 251.82 225.666928 
L 255.54 224.642345 
L 259.26 223.812441 
L 264.84 222.853942 
L 270.42 222.155609 
L 277.86 221.510075 
L 285.3 221.086946 
L 296.46 220.709104 
L 311.34 220.465381 
L 335.52 220.328258 
L 369 220.288618 
L 370.86 218.808542 
L 372.72 206.04409 
L 378.3 150.446855 
L 382.02 119.159563 
L 383.88 110.282946 
L 385.74 107.791784 
L 387.6 108.533903 
L 389.46 112.615077 
L 391.32 118.016833 
L 393.18 123.767388 
L 395.04 130.078099 
L 396.9 153.275961 
L 400.62 208.96118 
L 402.48 229.648166 
L 404.34 234.208914 
L 406.2 234.679614 
L 408.06 237.361906 
L 409.92 235.415702 
L 411.78 233.205326 
L 413.64 233.319385 
L 415.5 232.254846 
L 417.36 230.198036 
L 419.22 229.134638 
L 422.94 227.478328 
L 426.66 226.12941 
L 430.38 225.029826 
L 434.1 224.134774 
L 439.68 223.096059 
L 445.26 222.335892 
L 450.84 221.780278 
L 458.28 221.265336 
L 467.58 220.862509 
L 480.6 220.559315 
L 499.2 220.378347 
L 536.4 220.29339 
L 555 220.284693 
L 556.86 217.657344 
L 558.72 201.87315 
L 564.3 146.438171 
L 566.16 131.120517 
L 568.02 117.102267 
L 569.88 110.188865 
L 571.74 108.621475 
L 573.6 109.514803 
L 575.46 113.672091 
L 579.18 125.07361 
L 581.04 131.992064 
L 582.9 156.522364 
L 584.76 187.632908 
L 586.62 214.178698 
L 588.48 228.709041 
L 590.34 234.033609 
L 592.2 236.229854 
L 594.06 239.244096 
L 595.92 239.733154 
L 597.78 237.836347 
L 601.5 229.371402 
L 603.36 226.000564 
L 607.08 224.918918 
L 610.8 224.029139 
L 616.38 223.004865 
L 621.96 222.261811 
L 627.54 221.722229 
L 634.98 221.224783 
L 644.28 220.837427 
L 657.3 220.546914 
L 677.76 220.364695 
L 718.68 220.289819 
L 721 220.288821 
L 721 220.288821 
" clip-path="url(#p9990031025)" style="fill: none; stroke: #2ca02c; stroke-width: 1.5; stroke-linecap: square"/>
   </g>
   <g id="line2d_11">
    <path d="M 90 179.099788 
L 97.44 148.325024 
L 101.16 133.547308 
L 104.88 119.490379 
L 108.6 106.376664 
L 112.32 94.413663 
L 114.18 88.92363 
L 116.04 83.79067 
L 117.9 79.035108 
L 119.76 74.675775 
L 121.62 70.729933 
L 123.48 67.213205 
L 125.34 64.139518 
L 127.2 61.521042 
L 129.06 59.368146 
L 130.92 57.689354 
L 132.78 56.491315 
L 134.64 55.778771 
L 136.5 55.554545 
L 138.36 55.819525 
L 140.22 56.572661 
L 142.08 57.810971 
L 143.94 59.529551 
L 145.8 61.721597 
L 147.66 64.378428 
L 149.52 67.489525 
L 151.38 71.042567 
L 153.24 75.023487 
L 155.1 79.416521 
L 156.96 84.204273 
L 158.82 89.367785 
L 162.54 100.7389 
L 166.26 113.349937 
L 169.98 127.001348 
L 173.7 141.477125 
L 179.28 164.232743 
L 190.44 210.501664 
L 194.16 225.253949 
L 197.88 239.275926 
L 201.6 252.345722 
L 205.32 264.256532 
L 207.18 269.71762 
L 209.04 274.819886 
L 210.9 279.543127 
L 212.76 283.86864 
L 214.62 287.779297 
L 216.48 291.259612 
L 218.34 294.295805 
L 220.2 296.875854 
L 222.06 298.989541 
L 223.92 300.628498 
L 225.78 301.786234 
L 227.64 302.458165 
L 229.5 302.641631 
L 231.36 302.335905 
L 233.22 301.542198 
L 235.08 300.263652 
L 236.94 298.50533 
L 238.8 296.274195 
L 240.66 293.579081 
L 242.52 290.430661 
L 244.38 286.841401 
L 246.24 282.825513 
L 248.1 278.3989 
L 249.96 273.579089 
L 251.82 268.385166 
L 255.54 256.95865 
L 259.26 244.300155 
L 262.98 230.60998 
L 266.7 216.104747 
L 272.28 193.323375 
L 283.44 147.071662 
L 287.16 132.345214 
L 290.88 118.358574 
L 294.6 105.333056 
L 298.32 93.474766 
L 300.18 88.042773 
L 302.04 82.971341 
L 303.9 78.280551 
L 305.76 73.988977 
L 307.62 70.113614 
L 309.48 66.669806 
L 311.34 63.671191 
L 313.2 61.129641 
L 315.06 59.05522 
L 316.92 57.456144 
L 318.78 56.338742 
L 320.64 55.707441 
L 322.5 55.56474 
L 324.36 55.911205 
L 326.22 56.745462 
L 328.08 58.064209 
L 329.94 59.862224 
L 331.8 62.132387 
L 333.66 64.865709 
L 335.52 68.051366 
L 337.38 71.676745 
L 339.24 75.72749 
L 341.1 80.187562 
L 342.96 85.039298 
L 344.82 90.263488 
L 348.54 101.745092 
L 352.26 114.450697 
L 355.98 128.179259 
L 359.7 142.713549 
L 365.28 165.520047 
L 376.44 211.753281 
L 380.16 226.453487 
L 383.88 240.404405 
L 387.6 253.385286 
L 391.32 265.19073 
L 393.18 270.593479 
L 395.04 275.633938 
L 396.9 280.292148 
L 398.76 284.549664 
L 400.62 288.389628 
L 402.48 291.796833 
L 404.34 294.757789 
L 406.2 297.26077 
L 408.06 299.295867 
L 409.92 300.855019 
L 411.78 301.932055 
L 413.64 302.522708 
L 415.5 302.62464 
L 417.36 302.237447 
L 419.22 301.362663 
L 421.08 300.003751 
L 422.94 298.166093 
L 424.8 295.856965 
L 426.66 293.08551 
L 428.52 289.862702 
L 430.38 286.201304 
L 432.24 282.115813 
L 434.1 277.622407 
L 435.96 272.738878 
L 437.82 267.484564 
L 441.54 255.948188 
L 445.26 243.195823 
L 448.98 229.429251 
L 452.7 214.866305 
L 458.28 192.035307 
L 469.44 145.821824 
L 473.16 131.148264 
L 476.88 117.233452 
L 480.6 104.297565 
L 484.32 92.545291 
L 486.18 87.171935 
L 488.04 82.162588 
L 489.9 77.537086 
L 491.76 73.313745 
L 493.62 69.509287 
L 495.48 66.138778 
L 497.34 63.215564 
L 499.2 60.751219 
L 501.06 58.755503 
L 502.92 57.236317 
L 504.78 56.199677 
L 506.64 55.649688 
L 508.5 55.588528 
L 510.36 56.016438 
L 512.22 56.931725 
L 514.08 58.330764 
L 515.94 60.208016 
L 517.8 62.556046 
L 519.66 65.365558 
L 521.52 68.625426 
L 523.38 72.322743 
L 525.24 76.442867 
L 527.1 80.969485 
L 528.96 85.884672 
L 530.82 91.168966 
L 534.54 102.759796 
L 538.26 115.558571 
L 541.98 129.362773 
L 545.7 143.953976 
L 551.28 166.808846 
L 562.44 213.001305 
L 566.16 227.647815 
L 569.88 241.526139 
L 573.6 254.416676 
L 577.32 266.115457 
L 579.18 271.459272 
L 581.04 276.437369 
L 582.9 281.030036 
L 584.76 285.219086 
L 586.62 288.987934 
L 588.48 292.321654 
L 590.34 295.207046 
L 592.2 297.632686 
L 594.06 299.588967 
L 595.92 301.068145 
L 597.78 302.064361 
L 599.64 302.57367 
L 601.5 302.594057 
L 603.36 302.125441 
L 605.22 301.169676 
L 607.08 299.730548 
L 608.94 297.813755 
L 610.8 295.426888 
L 612.66 292.579396 
L 614.52 289.282557 
L 616.38 285.549423 
L 618.24 281.394779 
L 620.1 276.835074 
L 621.96 271.888364 
L 623.82 266.574236 
L 627.54 254.929271 
L 631.26 242.084438 
L 634.98 228.242985 
L 638.7 213.623927 
L 644.28 190.745814 
L 655.44 144.575648 
L 659.16 129.956591 
L 662.88 116.115137 
L 666.6 103.270305 
L 670.32 91.625339 
L 672.18 86.311212 
L 674.04 81.364502 
L 675.9 76.804797 
L 677.76 72.650152 
L 679.62 68.917019 
L 681.48 65.620179 
L 683.34 62.772688 
L 685.2 60.38582 
L 687.06 58.469027 
L 688.92 57.029899 
L 690.78 56.074134 
L 692.64 55.605518 
L 694.5 55.625905 
L 696.36 56.135215 
L 698.22 57.131431 
L 700.08 58.610608 
L 701.94 60.566889 
L 703.8 62.992529 
L 705.66 65.877921 
L 707.52 69.211642 
L 709.38 72.980489 
L 711.24 77.16954 
L 713.1 81.762206 
L 714.96 86.740303 
L 716.82 92.084118 
L 720.54 103.782899 
L 721 105.343101 
L 721 105.343101 
" clip-path="url(#p9990031025)" style="fill: none; stroke-dasharray: 3.2,0.8,0.5,0.8; stroke-dashoffset: 0; stroke: #000000; stroke-width: 0.5"/>
   </g>
   <g id="patch_3">
    <path d="M 90 315 
L 90 43.2 
" style="fill: none; stroke: #000000; stroke-width: 0.8; stroke-linejoin: miter; stroke-linecap: square"/>
   </g>
   <g id="patch_4">
    <path d="M 648 315 
L 648 43.2 
" style="fill: none; stroke: #000000; stroke-width: 0.8; stroke-linejoin: miter; stroke-linecap: square"/>
   </g>
   <g id="patch_5">
    <path d="M 90 315 
L 648 315 
" style="fill: none; stroke: #000000; stroke-width: 0.8; stroke-linejoin: miter; stroke-linecap: square"/>
   </g>
   <g id="patch_6">
    <path d="M 90 43.2 
L 648 43.2 
" style="fill: none; stroke: #000000; stroke-width: 0.8; stroke-linejoin: miter; stroke-linecap: square"/>
   </g>
   <g id="legend_1">
    <g id="patch_7">
     <path d="M 555.8975 149.94 
L 636.8 149.94 
Q 640 149.94 640 146.74 
L 640 54.4 
Q 640 51.2 636.8 51.2 
L 555.8975 51.2 
Q 552.6975 51.2 552.6975 54.4 
L 552.6975 146.74 
Q 552.6975 149.94 555.8975 149.94 
z
" style="fill: #ffffff; opacity: 0.8; stroke: #cccccc; stroke-linejoin: miter"/>
    </g>
    <g id="line2d_12">
     <path d="M 559.0975 64.1575 
L 575.0975 64.1575 
L 591.0975 64.1575 
" style="fill: none; stroke: #1f77b4; stroke-width: 1.5; stroke-linecap: square"/>
    </g>
    <g id="text_8">
     <text style="font: 16px 'Arial'; text-anchor: start" x="603.8975" y="69.7575" transform="rotate(-0, 603.8975, 69.7575)">A(t)</text>
    </g>
    <g id="line2d_13">
     <path d="M 559.0975 87.6425 
L 575.0975 87.6425 
L 591.0975 87.6425 
" style="fill: none; stroke: #ff7f0e; stroke-width: 1.5; stroke-linecap: square"/>
    </g>
    <g id="text_9">
     <text style="font: 16px 'Arial'; text-anchor: start" x="603.8975" y="93.2425" transform="rotate(-0, 603.8975, 93.2425)">E(t)</text>
    </g>
    <g id="line2d_14">
     <path d="M 559.0975 111.1275 
L 575.0975 111.1275 
L 591.0975 111.1275 
" style="fill: none; stroke: #2ca02c; stroke-width: 1.5; stroke-linecap: square"/>
    </g>
    <g id="text_10">
     <text style="font: 16px 'Arial'; text-anchor: start" x="603.8975" y="116.7275" transform="rotate(-0, 603.8975, 116.7275)">T(t)</text>
    </g>
    <g id="line2d_15">
     <path d="M 559.0975 134.6125 
L 575.0975 134.6125 
L 591.0975 134.6125 
" style="fill: none; stroke-dasharray: 3.2,0.8,0.5,0.8; stroke-dashoffset: 0; stroke: #000000; stroke-width: 0.5"/>
    </g>
    <g id="text_11">
     <text style="font: 16px 'Arial'; text-anchor: start" x="603.8975" y="140.2125" transform="rotate(-0, 603.8975, 140.2125)">a(t)</text>
    </g>
   </g>
  </g>
 </g>
 <defs>
  <clipPath id="p9990031025">
   <rect x="90" y="43.2" width="558" height="271.8"/>
  </clipPath>
 </defs>
</svg>
