<?xml version="1.0" encoding="utf-8" standalone="no"?>
<!DOCTYPE svg PUBLIC "-//W3C//DTD SVG 1.1//EN"
  "http://www.w3.org/Graphics/SVG/1.1/DTD/svg11.dtd">
<svg xmlns:xlink="http://www.w3.org/1999/xlink" width="720pt" height="360pt" viewBox="0 0 720 360" xmlns="http://www.w3.org/2000/svg" version="1.1">
 <metadata>
  <rdf:RDF xmlns:dc="http://purl.org/dc/elements/1.1/" xmlns:cc="http://creativecommons.org/ns#" xmlns:rdf="http://www.w3.org/1999/02/22-rdf-syntax-ns#">
   <cc:Work>
    <dc:type rdf:resource="http://purl.org/dc/dcmitype/StillImage"/>
    <dc:date>2023-01-18T19:43:46.402782</dc:date>
    <dc:format>image/svg+xml</dc:format>
    <dc:creator>
     <cc:Agent>
      <dc:title>Matplotlib v3.5.2, https://matplotlib.org/</dc:title>
     </cc:Agent>
    </dc:creator>
   </cc:Work>
  </rdf:RDF>
 </metadata>
 <defs>
  <style type="text/css">*{stroke-linejoin: round; stroke-linecap: butt}</style>
 </defs>
 <g id="figure_1">
  <g id="patch_1">
   <path d="M 0 360 
L 720 360 
L 720 0 
L 0 0 
L 0 360 
z
" style="fill: none"/>
  </g>
  <g id="axes_1">
   <g id="patch_2">
    <path d="M 90 315 
L 648 315 
L 648 43.2 
L 90 43.2 
z
" style="fill: #ffffff"/>
   </g>
   <g id="matplotlib.axis_1">
    <g id="xtick_1">
     <g id="line2d_1">
      <defs>
       <path id="m15712703a8" d="M 0 0 
L 0 3.5 
" style="stroke: #000000; stroke-width: 0.8"/>
      </defs>
      <g>
       <use xlink:href="#m15712703a8" x="90" y="315" style="stroke: #000000; stroke-width: 0.8"/>
      </g>
     </g>
     <g id="text_1">
      <text style="font: 16px 'Arial'; text-anchor: middle" x="90" y="334.1575" transform="rotate(-0, 90, 334.1575)">0</text>
     </g>
    </g>
    <g id="xtick_2">
     <g id="line2d_2">
      <g>
       <use xlink:href="#m15712703a8" x="276" y="315" style="stroke: #000000; stroke-width: 0.8"/>
      </g>
     </g>
     <g id="text_2">
      <text style="font: 16px 'Arial'; text-anchor: middle" x="276" y="334.1575" transform="rotate(-0, 276, 334.1575)">0.1</text>
     </g>
    </g>
    <g id="xtick_3">
     <g id="line2d_3">
      <g>
       <use xlink:href="#m15712703a8" x="462" y="315" style="stroke: #000000; stroke-width: 0.8"/>
      </g>
     </g>
     <g id="text_3">
      <text style="font: 16px 'Arial'; text-anchor: middle" x="462" y="334.1575" transform="rotate(-0, 462, 334.1575)">0.2</text>
     </g>
    </g>
    <g id="xtick_4">
     <g id="line2d_4">
      <g>
       <use xlink:href="#m15712703a8" x="648" y="315" style="stroke: #000000; stroke-width: 0.8"/>
      </g>
     </g>
     <g id="text_4">
      <text style="font: 16px 'Arial'; text-anchor: middle" x="648" y="334.1575" transform="rotate(-0, 648, 334.1575)">0.3</text>
     </g>
    </g>
   </g>
   <g id="matplotlib.axis_2">
    <g id="ytick_1">
     <g id="line2d_5">
      <defs>
       <path id="m237b44b157" d="M 0 0 
L -3.5 0 
" style="stroke: #000000; stroke-width: 0.8"/>
      </defs>
      <g>
       <use xlink:href="#m237b44b157" x="90" y="306.400719" style="stroke: #000000; stroke-width: 0.8"/>
      </g>
     </g>
     <g id="text_5">
      <text style="font: 16px 'Arial'; text-anchor: end" x="83" y="312.479469" transform="rotate(-0, 83, 312.479469)">0.0</text>
     </g>
    </g>
    <g id="ytick_2">
     <g id="line2d_6">
      <g>
       <use xlink:href="#m237b44b157" x="90" y="174.80036" style="stroke: #000000; stroke-width: 0.8"/>
      </g>
     </g>
     <g id="text_6">
      <text style="font: 16px 'Arial'; text-anchor: end" x="83" y="180.87911" transform="rotate(-0, 83, 180.87911)">0.5</text>
     </g>
    </g>
    <g id="ytick_3">
     <g id="line2d_7">
      <g>
       <use xlink:href="#m237b44b157" x="90" y="43.2" style="stroke: #000000; stroke-width: 0.8"/>
      </g>
     </g>
     <g id="text_7">
      <text style="font: 16px 'Arial'; text-anchor: end" x="83" y="49.27875" transform="rotate(-0, 83, 49.27875)">1.0</text>
     </g>
    </g>
   </g>
   <g id="line2d_8">
    <path d="M 90 306.400719 
L 91.86 218.686463 
L 93.72 220.152137 
L 95.58 224.499521 
L 97.44 231.53301 
L 99.3 239.728531 
L 101.16 247.179547 
L 103.02 253.801277 
L 104.88 259.690633 
L 106.74 262.244633 
L 108.6 261.854081 
L 110.46 261.014421 
L 116.04 258.920475 
L 117.9 258.690685 
L 123.48 253.011148 
L 127.2 247.782978 
L 129.06 245.409115 
L 130.92 243.878226 
L 132.78 243.639165 
L 134.64 244.415454 
L 136.5 246.108556 
L 138.36 249.606643 
L 140.22 252.420472 
L 142.08 254.121489 
L 143.94 254.843611 
L 145.8 253.305153 
L 149.52 247.080638 
L 151.38 244.418019 
L 153.24 244.698053 
L 155.1 246.830933 
L 156.96 249.627046 
L 160.68 254.353675 
L 162.54 254.908841 
L 164.4 253.471669 
L 166.26 252.836533 
L 168.12 251.875373 
L 169.98 251.914891 
L 173.7 253.686602 
L 175.56 253.55527 
L 177.42 253.575931 
L 184.86 247.807216 
L 188.58 242.759602 
L 190.44 240.618196 
L 192.3 238.734673 
L 194.16 237.141911 
L 196.02 236.629456 
L 197.88 237.024212 
L 199.74 238.064796 
L 201.6 240.311402 
L 203.46 243.443073 
L 205.32 246.232381 
L 207.18 250.672438 
L 209.04 254.638588 
L 210.9 257.054922 
L 214.62 259.868017 
L 216.48 260.902303 
L 218.34 259.326872 
L 220.2 257.068355 
L 222.06 253.984505 
L 223.92 249.994901 
L 225.78 245.691342 
L 227.64 242.036704 
L 229.5 237.956165 
L 231.36 233.549316 
L 233.22 230.482448 
L 235.08 228.912708 
L 236.94 229.070349 
L 238.8 230.637822 
L 240.66 231.879181 
L 242.52 232.307408 
L 244.38 231.979254 
L 246.24 230.335467 
L 248.1 229.059202 
L 253.68 226.878761 
L 255.54 225.67794 
L 257.4 224.30448 
L 259.26 224.296887 
L 261.12 227.480826 
L 262.98 234.625794 
L 268.56 258.088596 
L 270.42 264.466515 
L 272.28 266.326102 
L 274.14 267.339613 
L 276 266.653145 
L 277.86 264.046002 
L 279.72 261.212548 
L 283.44 256.145784 
L 287.16 252.897739 
L 289.02 250.297554 
L 290.88 248.076104 
L 292.74 246.621079 
L 294.6 243.161882 
L 296.46 240.321701 
L 298.32 236.985863 
L 300.18 231.873517 
L 303.9 218.903687 
L 305.76 215.115015 
L 307.62 214.590056 
L 311.34 215.983227 
L 313.2 215.975885 
L 315.06 216.719363 
L 316.92 222.121309 
L 318.78 227.938704 
L 320.64 233.234591 
L 322.5 240.086476 
L 324.36 248.573821 
L 326.22 252.841584 
L 328.08 256.686357 
L 329.94 259.789868 
L 331.8 260.603129 
L 335.52 258.54632 
L 337.38 258.455126 
L 339.24 257.582964 
L 341.1 256.309394 
L 342.96 256.382912 
L 344.82 255.741681 
L 348.54 254.027612 
L 350.4 252.757112 
L 354.12 246.246355 
L 355.98 244.094364 
L 359.7 240.428529 
L 361.56 238.119477 
L 363.42 235.288596 
L 365.28 230.871675 
L 367.14 224.520825 
L 369 217.592995 
L 370.86 214.545024 
L 372.72 214.425497 
L 374.58 218.967718 
L 376.44 224.512832 
L 378.3 232.603636 
L 380.16 236.898826 
L 382.02 240.742547 
L 383.88 243.917968 
L 385.74 247.328313 
L 387.6 247.989694 
L 389.46 247.646928 
L 393.18 249.942754 
L 395.04 250.248498 
L 396.9 251.383331 
L 398.76 251.578384 
L 400.62 253.255826 
L 402.48 255.139443 
L 406.2 255.611604 
L 408.06 255.358926 
L 411.78 249.482826 
L 413.64 246.907604 
L 415.5 245.346006 
L 417.36 244.122371 
L 421.08 241.299443 
L 422.94 240.692522 
L 424.8 242.127902 
L 426.66 243.812345 
L 428.52 244.802363 
L 430.38 244.725433 
L 432.24 244.220166 
L 435.96 233.337159 
L 437.82 231.589878 
L 439.68 232.701529 
L 441.54 232.474234 
L 443.4 232.871571 
L 445.26 231.154466 
L 447.12 229.811402 
L 448.98 230.342637 
L 450.84 232.20702 
L 452.7 234.516731 
L 458.28 243.687492 
L 460.14 247.607614 
L 462 250.554857 
L 463.86 252.635342 
L 465.72 254.508382 
L 467.58 253.70149 
L 473.16 248.420251 
L 475.02 246.516859 
L 476.88 245.924348 
L 480.6 250.584856 
L 482.46 252.552365 
L 484.32 253.563349 
L 486.18 255.583107 
L 488.04 254.591328 
L 489.9 253.823209 
L 493.62 253.037241 
L 495.48 250.259464 
L 497.34 245.969423 
L 499.2 241.290689 
L 501.06 235.349449 
L 502.92 229.827365 
L 504.78 224.669422 
L 506.64 220.851084 
L 508.5 218.854097 
L 510.36 217.761108 
L 514.08 222.365994 
L 515.94 226.861786 
L 517.8 232.745118 
L 519.66 237.729089 
L 521.52 240.638355 
L 523.38 243.780671 
L 525.24 244.263692 
L 527.1 245.005612 
L 528.96 246.132378 
L 530.82 248.06353 
L 536.4 256.194817 
L 540.12 260.749878 
L 541.98 260.587904 
L 543.84 259.553038 
L 545.7 259.151335 
L 547.56 259.410771 
L 549.42 258.777063 
L 551.28 256.483593 
L 553.14 253.559321 
L 555 249.821451 
L 558.72 239.401366 
L 560.58 235.83882 
L 562.44 232.714558 
L 564.3 230.691349 
L 568.02 228.878775 
L 569.88 226.326512 
L 571.74 223.0823 
L 573.6 220.364921 
L 575.46 219.391513 
L 577.32 221.045976 
L 579.18 224.733554 
L 581.04 230.524641 
L 582.9 232.96744 
L 584.76 234.312866 
L 586.62 238.899068 
L 588.48 243.085767 
L 590.34 247.606006 
L 594.06 256.040451 
L 595.92 257.57281 
L 597.78 258.933241 
L 601.5 262.29691 
L 603.36 262.745712 
L 605.22 260.693252 
L 607.08 258.370376 
L 610.8 253.982552 
L 614.52 247.195169 
L 620.1 238.643189 
L 621.96 235.314418 
L 623.82 231.569539 
L 625.68 227.23003 
L 627.54 224.385846 
L 629.4 222.176632 
L 631.26 222.415639 
L 633.12 223.85469 
L 636.84 227.229019 
L 638.7 230.295714 
L 640.56 234.511311 
L 644.28 241.111474 
L 646.14 243.82184 
L 648 245.355709 
L 649.86 246.393909 
L 651.72 247.155321 
L 653.58 250.047621 
L 657.3 256.137242 
L 659.16 257.500759 
L 661.02 257.159942 
L 666.6 253.914674 
L 668.46 251.513016 
L 670.32 249.417646 
L 674.04 246.255423 
L 679.62 238.507825 
L 683.34 232.213523 
L 687.06 224.962866 
L 688.92 223.837613 
L 690.78 223.545519 
L 692.64 225.087938 
L 694.5 231.257654 
L 696.36 236.761972 
L 700.08 242.93277 
L 701.94 246.433835 
L 703.8 247.969602 
L 705.66 249.869511 
L 707.52 252.144779 
L 709.38 253.585313 
L 711.24 252.894292 
L 713.1 250.891654 
L 714.96 247.781636 
L 716.82 246.130829 
L 718.68 247.424197 
L 720.54 249.142726 
L 721 249.237679 
L 721 249.237679 
" clip-path="url(#p581782289b)" style="fill: none; stroke: #1f77b4; stroke-width: 1.5; stroke-linecap: square"/>
   </g>
   <g id="line2d_9">
    <path d="M 90 306.400719 
L 91.86 218.661684 
L 93.72 218.263374 
L 95.58 218.444272 
L 97.44 222.022153 
L 101.16 237.109924 
L 103.02 243.972703 
L 104.88 252.150258 
L 106.74 258.116622 
L 108.6 259.732261 
L 114.18 253.059161 
L 116.04 249.466506 
L 117.9 246.391324 
L 119.76 244.361714 
L 121.62 242.671809 
L 123.48 241.188208 
L 125.34 240.017731 
L 129.06 240.467843 
L 130.92 239.198857 
L 132.78 235.442848 
L 134.64 227.957043 
L 136.5 216.92442 
L 138.36 201.272776 
L 140.22 187.486567 
L 142.08 177.494324 
L 143.94 170.76552 
L 145.8 170.424981 
L 147.66 173.506901 
L 149.52 175.582774 
L 151.38 177.421453 
L 153.24 179.521486 
L 155.1 184.200232 
L 156.96 191.765677 
L 160.68 210.344165 
L 162.54 218.151331 
L 164.4 223.94448 
L 166.26 230.430176 
L 168.12 233.80681 
L 169.98 233.140479 
L 171.84 231.466979 
L 173.7 229.621672 
L 175.56 225.27155 
L 177.42 223.565003 
L 179.28 223.816937 
L 183 224.53063 
L 184.86 224.745156 
L 186.72 223.885493 
L 188.58 223.340132 
L 190.44 224.550413 
L 192.3 226.635346 
L 194.16 228.29377 
L 196.02 227.836222 
L 197.88 224.889187 
L 199.74 218.431016 
L 201.6 209.886539 
L 207.18 177.145886 
L 209.04 170.411144 
L 210.9 169.174036 
L 212.76 173.825759 
L 216.48 197.891749 
L 218.34 205.983729 
L 220.2 211.640895 
L 222.06 216.250229 
L 223.92 219.735778 
L 225.78 225.471611 
L 227.64 230.416111 
L 229.5 233.138432 
L 231.36 231.872309 
L 233.22 227.850679 
L 235.08 224.217992 
L 236.94 223.721303 
L 242.52 224.395486 
L 244.38 223.717451 
L 248.1 220.481428 
L 249.96 219.124966 
L 251.82 219.228844 
L 253.68 220.99761 
L 255.54 223.335323 
L 257.4 226.003559 
L 259.26 226.720234 
L 261.12 222.693834 
L 262.98 218.166203 
L 264.84 211.864645 
L 266.7 206.23429 
L 268.56 205.931653 
L 270.42 205.931057 
L 272.28 204.865231 
L 274.14 204.992131 
L 276 209.044667 
L 277.86 208.52359 
L 281.58 215.726909 
L 283.44 218.061501 
L 285.3 217.314243 
L 287.16 214.672849 
L 289.02 208.446131 
L 290.88 203.190954 
L 292.74 201.399135 
L 294.6 202.573757 
L 296.46 205.165012 
L 298.32 208.300641 
L 300.18 211.998628 
L 302.04 216.518964 
L 303.9 220.238625 
L 305.76 222.059208 
L 307.62 222.405606 
L 309.48 222.188916 
L 311.34 222.177715 
L 313.2 223.635435 
L 315.06 225.639998 
L 316.92 226.816425 
L 318.78 227.479305 
L 320.64 227.94163 
L 322.5 229.748391 
L 324.36 233.584308 
L 326.22 234.575467 
L 329.94 232.875015 
L 331.8 229.285933 
L 333.66 218.933039 
L 337.38 205.711182 
L 339.24 203.213152 
L 342.96 204.007419 
L 344.82 204.938156 
L 348.54 203.739422 
L 352.26 201.771976 
L 354.12 200.729784 
L 355.98 200.584709 
L 357.84 201.053701 
L 359.7 202.839276 
L 361.56 203.903377 
L 363.42 204.831603 
L 365.28 206.096079 
L 367.14 208.744877 
L 369 212.685134 
L 370.86 217.059353 
L 374.58 221.734898 
L 376.44 225.599853 
L 378.3 233.080292 
L 380.16 241.065708 
L 382.02 247.56837 
L 383.88 250.806107 
L 385.74 251.519338 
L 387.6 246.568806 
L 391.32 228.276513 
L 393.18 223.160198 
L 395.04 219.994975 
L 396.9 214.145231 
L 398.76 210.97483 
L 400.62 204.55944 
L 402.48 194.928131 
L 404.34 191.066722 
L 406.2 187.76546 
L 408.06 186.198968 
L 411.78 192.284502 
L 413.64 195.084831 
L 415.5 198.310006 
L 417.36 200.844078 
L 419.22 201.650009 
L 422.94 202.299845 
L 424.8 203.130359 
L 428.52 208.894368 
L 430.38 211.555082 
L 432.24 216.228329 
L 434.1 222.579563 
L 435.96 231.49106 
L 437.82 239.332668 
L 439.68 244.773552 
L 441.54 247.85819 
L 443.4 249.714918 
L 447.12 244.199356 
L 448.98 241.684646 
L 450.84 238.571322 
L 452.7 234.51597 
L 456.42 223.135796 
L 458.28 215.98955 
L 460.14 205.389633 
L 462 196.580413 
L 463.86 189.912902 
L 465.72 182.813194 
L 467.58 179.469073 
L 471.3 178.974117 
L 473.16 180.272525 
L 476.88 189.673119 
L 480.6 200.460993 
L 482.46 205.197934 
L 486.18 210.463261 
L 488.04 211.89024 
L 489.9 215.30262 
L 491.76 221.59107 
L 493.62 229.486433 
L 499.2 246.144705 
L 501.06 247.021942 
L 504.78 244.671733 
L 506.64 242.596549 
L 508.5 241.502532 
L 510.36 240.622864 
L 512.22 239.173709 
L 514.08 233.796276 
L 515.94 226.208248 
L 517.8 216.479784 
L 519.66 207.830503 
L 521.52 202.823149 
L 523.38 196.446265 
L 525.24 191.866448 
L 527.1 186.923345 
L 530.82 176.242517 
L 532.68 176.00668 
L 534.54 178.373659 
L 536.4 181.088802 
L 538.26 185.266317 
L 540.12 193.677038 
L 541.98 200.856911 
L 543.84 205.945631 
L 545.7 212.614413 
L 547.56 221.136793 
L 549.42 227.247938 
L 551.28 229.951347 
L 553.14 231.038242 
L 555 230.867674 
L 556.86 228.013857 
L 558.72 228.401115 
L 562.44 241.088012 
L 564.3 246.141897 
L 566.16 249.382038 
L 568.02 249.035475 
L 569.88 245.611945 
L 571.74 241.314582 
L 573.6 234.929898 
L 575.46 226.62118 
L 579.18 209.184313 
L 581.04 200.8957 
L 582.9 195.885828 
L 584.76 194.779676 
L 588.48 193.473541 
L 590.34 190.812788 
L 592.2 188.459716 
L 594.06 187.421328 
L 595.92 189.424347 
L 597.78 191.978649 
L 599.64 193.311477 
L 601.5 196.241953 
L 605.22 209.7946 
L 607.08 215.369121 
L 608.94 220.142159 
L 610.8 223.356769 
L 612.66 222.317314 
L 614.52 221.70382 
L 616.38 223.461627 
L 620.1 228.073495 
L 623.82 235.781465 
L 625.68 237.418757 
L 627.54 239.911649 
L 629.4 239.850536 
L 631.26 238.198191 
L 633.12 235.515201 
L 634.98 232.580026 
L 636.84 229.364491 
L 640.56 219.517582 
L 642.42 212.578707 
L 644.28 202.937483 
L 646.14 194.579952 
L 648 191.985512 
L 649.86 193.493128 
L 651.72 196.651221 
L 653.58 196.851055 
L 655.44 196.834896 
L 657.3 198.499564 
L 659.16 201.232027 
L 661.02 205.559087 
L 662.88 207.270387 
L 664.74 208.774175 
L 666.6 209.500952 
L 668.46 208.215212 
L 670.32 207.511292 
L 672.18 209.162303 
L 674.04 211.739722 
L 677.76 219.850269 
L 679.62 223.569702 
L 681.48 225.713363 
L 683.34 229.139721 
L 685.2 232.071649 
L 687.06 233.273929 
L 688.92 232.387275 
L 690.78 229.114981 
L 692.64 226.636389 
L 694.5 226.455821 
L 696.36 226.069229 
L 698.22 226.448722 
L 700.08 226.427614 
L 701.94 224.718902 
L 703.8 221.958663 
L 705.66 218.524273 
L 707.52 213.177823 
L 709.38 208.542573 
L 711.24 206.619508 
L 713.1 204.206767 
L 714.96 206.645786 
L 716.82 206.169844 
L 718.68 206.19758 
L 720.54 206.826582 
L 721 206.5554 
L 721 206.5554 
" clip-path="url(#p581782289b)" style="fill: none; stroke: #ff7f0e; stroke-width: 1.5; stroke-linecap: square"/>
   </g>
   <g id="line2d_10">
    <path d="M 90 306.400719 
L 91.86 218.653299 
L 93.72 217.58592 
L 95.58 213.057638 
L 97.44 202.446292 
L 99.3 186.554379 
L 101.16 171.71196 
L 104.88 144.160563 
L 106.74 135.640183 
L 108.6 134.415108 
L 110.46 137.459378 
L 112.32 140.23612 
L 114.18 143.378533 
L 116.04 147.614446 
L 117.9 150.919434 
L 121.62 158.486361 
L 123.48 161.802079 
L 125.34 165.583245 
L 127.2 167.980055 
L 129.06 170.124477 
L 130.92 172.924343 
L 132.78 176.919422 
L 134.64 183.628954 
L 136.5 192.968474 
L 138.36 205.122019 
L 140.22 216.094416 
L 142.08 224.385618 
L 143.94 230.392313 
L 145.8 232.271302 
L 147.66 232.299948 
L 149.52 233.338014 
L 151.38 234.161963 
L 153.24 231.781899 
L 155.1 224.970294 
L 156.96 214.608717 
L 160.68 191.303595 
L 162.54 182.941263 
L 164.4 178.585298 
L 166.26 172.734723 
L 168.12 170.319259 
L 171.84 171.673697 
L 173.7 172.693165 
L 175.56 177.174634 
L 177.42 178.86052 
L 181.14 181.216879 
L 183 182.265111 
L 184.86 183.44906 
L 186.72 186.909547 
L 188.58 189.901693 
L 190.44 190.832822 
L 192.3 190.631412 
L 194.16 190.565765 
L 196.02 191.535769 
L 197.88 194.088047 
L 199.74 199.505634 
L 201.6 205.803498 
L 207.18 228.183099 
L 209.04 230.951699 
L 210.9 229.77248 
L 212.76 223.68857 
L 216.48 197.207399 
L 218.34 190.69083 
L 220.2 187.292193 
L 222.06 185.766716 
L 223.92 186.270748 
L 225.78 184.83849 
L 227.64 183.548647 
L 229.5 184.90685 
L 231.36 190.57983 
L 233.22 197.668312 
L 235.08 202.870731 
L 236.94 203.209795 
L 238.8 201.418165 
L 240.66 199.912157 
L 242.52 199.298529 
L 244.38 200.304733 
L 246.24 203.534591 
L 248.1 206.460809 
L 249.96 208.52763 
L 251.82 209.125735 
L 253.68 208.125069 
L 255.54 206.988184 
L 257.4 205.693392 
L 259.26 204.984326 
L 261.12 205.826779 
L 262.98 203.209442 
L 264.84 201.696548 
L 266.7 199.260839 
L 268.56 191.981198 
L 270.42 185.603867 
L 272.28 184.810118 
L 274.14 183.669696 
L 276 180.303619 
L 277.86 183.43185 
L 279.72 182.671563 
L 281.58 181.64935 
L 283.44 181.794158 
L 285.3 184.150399 
L 287.16 188.430866 
L 289.02 197.257758 
L 290.88 204.734377 
L 292.74 207.981225 
L 294.6 210.265796 
L 298.32 210.714943 
L 300.18 212.129301 
L 302.04 214.076792 
L 303.9 216.859127 
L 305.76 218.8272 
L 307.62 219.005777 
L 309.48 218.503463 
L 311.34 217.840489 
L 313.2 216.390127 
L 315.06 213.642078 
L 318.78 200.58343 
L 320.64 194.825218 
L 322.5 186.166564 
L 324.36 173.843314 
L 326.22 168.584388 
L 328.08 165.648695 
L 329.94 163.336568 
L 331.8 166.112385 
L 333.66 177.522492 
L 335.52 185.332559 
L 337.38 191.835143 
L 339.24 195.20533 
L 341.1 196.088697 
L 342.96 195.611108 
L 344.82 195.321602 
L 348.54 198.234421 
L 350.4 200.464531 
L 354.12 209.0253 
L 355.98 211.322374 
L 357.84 212.683134 
L 359.7 212.733634 
L 361.56 213.978577 
L 363.42 215.881232 
L 365.28 219.03367 
L 367.14 222.735744 
L 369 225.723317 
L 370.86 224.397078 
L 372.72 222.107825 
L 374.58 215.298823 
L 376.44 205.888746 
L 378.3 190.317519 
L 380.16 178.036917 
L 382.02 167.690518 
L 383.88 161.277363 
L 385.74 157.153792 
L 387.6 161.442934 
L 389.46 170.723068 
L 391.32 178.930065 
L 393.18 182.898474 
L 395.04 185.757978 
L 396.9 190.472869 
L 398.76 193.448213 
L 400.62 198.186165 
L 402.48 205.933881 
L 404.34 209.541513 
L 406.2 212.624383 
L 408.06 214.443546 
L 413.64 214.008996 
L 415.5 212.345427 
L 417.36 211.034994 
L 419.22 211.647759 
L 421.08 212.710196 
L 422.94 213.009076 
L 424.8 210.743181 
L 426.66 206.092965 
L 428.52 202.304708 
L 430.38 199.720928 
L 432.24 195.55296 
L 434.1 194.744927 
L 435.96 191.17322 
L 437.82 185.078877 
L 439.68 178.526358 
L 441.54 175.669035 
L 443.4 173.414954 
L 445.26 177.938726 
L 447.12 181.990658 
L 448.98 183.974152 
L 450.84 185.223089 
L 452.7 186.968753 
L 456.42 192.163759 
L 458.28 196.324409 
L 460.14 203.004196 
L 462 208.866161 
L 463.86 213.453179 
L 465.72 218.679874 
L 467.58 222.830876 
L 469.44 224.88852 
L 471.3 226.732698 
L 473.16 227.308651 
L 475.02 224.494579 
L 476.88 220.403984 
L 480.6 204.955593 
L 482.46 198.251152 
L 484.32 194.685062 
L 486.18 189.955048 
L 488.04 189.519871 
L 489.9 186.875622 
L 491.76 180.949477 
L 493.62 173.477768 
L 495.48 170.598349 
L 497.34 169.22383 
L 499.2 168.566048 
L 501.06 173.630052 
L 504.78 186.660281 
L 506.64 192.553817 
L 508.5 195.644805 
L 510.36 197.617468 
L 512.22 196.771485 
L 515.94 202.931396 
L 519.66 210.441847 
L 521.52 212.539934 
L 523.38 215.774507 
L 527.1 224.07247 
L 528.96 228.352874 
L 530.82 231.695388 
L 532.68 229.181357 
L 534.54 224.160692 
L 536.4 218.717839 
L 538.26 212.275725 
L 540.12 201.574542 
L 541.98 194.556616 
L 543.84 190.502762 
L 545.7 184.235702 
L 547.56 175.453874 
L 549.42 169.97643 
L 551.28 169.566487 
L 553.14 171.403895 
L 555 175.312314 
L 556.86 183.504046 
L 558.72 188.198966 
L 560.58 185.473649 
L 562.44 182.198869 
L 564.3 179.168177 
L 566.16 176.800884 
L 568.02 178.087181 
L 569.88 184.062993 
L 571.74 191.604545 
L 575.46 209.988746 
L 577.32 217.261618 
L 579.18 222.083579 
L 582.9 227.148171 
L 584.76 226.90889 
L 586.62 222.980414 
L 588.48 219.442146 
L 592.2 215.834796 
L 594.06 212.53966 
L 595.92 209.004286 
L 597.78 205.089545 
L 599.64 202.045629 
L 601.5 197.462572 
L 603.36 190.291986 
L 605.22 185.513591 
L 607.08 182.26195 
L 608.94 179.632526 
L 610.8 178.662099 
L 612.66 183.10696 
L 614.52 187.102439 
L 616.38 188.184894 
L 618.24 188.632252 
L 620.1 189.284755 
L 621.96 188.80093 
L 623.82 188.650451 
L 625.68 191.352667 
L 627.54 191.703944 
L 629.4 193.97427 
L 631.26 195.387617 
L 634.98 197.854576 
L 636.84 199.407914 
L 638.7 201.271749 
L 640.56 201.972547 
L 642.42 205.70806 
L 644.28 211.95249 
L 646.14 217.599663 
L 648 218.66021 
L 649.86 216.11441 
L 651.72 212.194885 
L 655.44 205.984537 
L 657.3 201.364637 
L 661.02 193.282422 
L 662.88 192.663735 
L 664.74 192.193857 
L 666.6 192.585837 
L 668.46 196.273219 
L 670.32 199.072513 
L 672.18 198.937753 
L 674.04 198.006302 
L 675.9 196.524713 
L 679.62 193.92392 
L 681.48 194.843997 
L 683.34 194.648187 
L 685.2 195.3458 
L 687.06 197.764637 
L 688.92 199.776566 
L 690.78 203.340947 
L 692.64 204.277104 
L 694.5 198.287972 
L 696.36 193.170238 
L 698.22 189.648638 
L 700.08 186.641047 
L 701.94 184.848703 
L 703.8 186.073166 
L 705.66 187.607639 
L 709.38 193.873538 
L 711.24 196.487635 
L 713.1 200.90301 
L 714.96 201.574009 
L 716.82 203.700774 
L 718.68 202.379642 
L 720.54 200.032155 
L 721 200.208378 
L 721 200.208378 
" clip-path="url(#p581782289b)" style="fill: none; stroke: #2ca02c; stroke-width: 1.5; stroke-linecap: square"/>
   </g>
   <g id="patch_3">
    <path d="M 90 315 
L 90 43.2 
" style="fill: none; stroke: #000000; stroke-width: 0.8; stroke-linejoin: miter; stroke-linecap: square"/>
   </g>
   <g id="patch_4">
    <path d="M 648 315 
L 648 43.2 
" style="fill: none; stroke: #000000; stroke-width: 0.8; stroke-linejoin: miter; stroke-linecap: square"/>
   </g>
   <g id="patch_5">
    <path d="M 90 315 
L 648 315 
" style="fill: none; stroke: #000000; stroke-width: 0.8; stroke-linejoin: miter; stroke-linecap: square"/>
   </g>
   <g id="patch_6">
    <path d="M 90 43.2 
L 648 43.2 
" style="fill: none; stroke: #000000; stroke-width: 0.8; stroke-linejoin: miter; stroke-linecap: square"/>
   </g>
   <g id="legend_1">
    <g id="patch_7">
     <path d="M 555.8975 126.455 
L 636.8 126.455 
Q 640 126.455 640 123.255 
L 640 54.4 
Q 640 51.2 636.8 51.2 
L 555.8975 51.2 
Q 552.6975 51.2 552.6975 54.4 
L 552.6975 123.255 
Q 552.6975 126.455 555.8975 126.455 
z
" style="fill: #ffffff; opacity: 0.8; stroke: #cccccc; stroke-linejoin: miter"/>
    </g>
    <g id="line2d_11">
     <path d="M 559.0975 64.1575 
L 575.0975 64.1575 
L 591.0975 64.1575 
" style="fill: none; stroke: #1f77b4; stroke-width: 1.5; stroke-linecap: square"/>
    </g>
    <g id="text_8">
     <text style="font: 16px 'Arial'; text-anchor: start" x="603.8975" y="69.7575" transform="rotate(-0, 603.8975, 69.7575)">A(t)</text>
    </g>
    <g id="line2d_12">
     <path d="M 559.0975 87.6425 
L 575.0975 87.6425 
L 591.0975 87.6425 
" style="fill: none; stroke: #ff7f0e; stroke-width: 1.5; stroke-linecap: square"/>
    </g>
    <g id="text_9">
     <text style="font: 16px 'Arial'; text-anchor: start" x="603.8975" y="93.2425" transform="rotate(-0, 603.8975, 93.2425)">E(t)</text>
    </g>
    <g id="line2d_13">
     <path d="M 559.0975 111.1275 
L 575.0975 111.1275 
L 591.0975 111.1275 
" style="fill: none; stroke: #2ca02c; stroke-width: 1.5; stroke-linecap: square"/>
    </g>
    <g id="text_10">
     <text style="font: 16px 'Arial'; text-anchor: start" x="603.8975" y="116.7275" transform="rotate(-0, 603.8975, 116.7275)">T(t)</text>
    </g>
   </g>
  </g>
 </g>
 <defs>
  <clipPath id="p581782289b">
   <rect x="90" y="43.2" width="558" height="271.8"/>
  </clipPath>
 </defs>
</svg>
