<?xml version="1.0" encoding="utf-8" standalone="no"?>
<!DOCTYPE svg PUBLIC "-//W3C//DTD SVG 1.1//EN"
  "http://www.w3.org/Graphics/SVG/1.1/DTD/svg11.dtd">
<svg xmlns:xlink="http://www.w3.org/1999/xlink" width="720pt" height="360pt" viewBox="0 0 720 360" xmlns="http://www.w3.org/2000/svg" version="1.1">
 <metadata>
  <rdf:RDF xmlns:dc="http://purl.org/dc/elements/1.1/" xmlns:cc="http://creativecommons.org/ns#" xmlns:rdf="http://www.w3.org/1999/02/22-rdf-syntax-ns#">
   <cc:Work>
    <dc:type rdf:resource="http://purl.org/dc/dcmitype/StillImage"/>
    <dc:date>2023-01-18T18:22:15.542204</dc:date>
    <dc:format>image/svg+xml</dc:format>
    <dc:creator>
     <cc:Agent>
      <dc:title>Matplotlib v3.5.2, https://matplotlib.org/</dc:title>
     </cc:Agent>
    </dc:creator>
   </cc:Work>
  </rdf:RDF>
 </metadata>
 <defs>
  <style type="text/css">*{stroke-linejoin: round; stroke-linecap: butt}</style>
 </defs>
 <g id="figure_1">
  <g id="patch_1">
   <path d="M 0 360 
L 720 360 
L 720 0 
L 0 0 
L 0 360 
z
" style="fill: none"/>
  </g>
  <g id="axes_1">
   <g id="patch_2">
    <path d="M 90 315 
L 648 315 
L 648 43.2 
L 90 43.2 
z
" style="fill: #ffffff"/>
   </g>
   <g id="matplotlib.axis_1">
    <g id="xtick_1">
     <g id="line2d_1">
      <defs>
       <path id="md2cdc783c7" d="M 0 0 
L 0 3.5 
" style="stroke: #000000; stroke-width: 0.8"/>
      </defs>
      <g>
       <use xlink:href="#md2cdc783c7" x="90" y="315" style="stroke: #000000; stroke-width: 0.8"/>
      </g>
     </g>
     <g id="text_1">
      <text style="font: 16px 'Arial'; text-anchor: middle" x="90" y="334.1575" transform="rotate(-0, 90, 334.1575)">0</text>
     </g>
    </g>
    <g id="xtick_2">
     <g id="line2d_2">
      <g>
       <use xlink:href="#md2cdc783c7" x="276" y="315" style="stroke: #000000; stroke-width: 0.8"/>
      </g>
     </g>
     <g id="text_2">
      <text style="font: 16px 'Arial'; text-anchor: middle" x="276" y="334.1575" transform="rotate(-0, 276, 334.1575)">0.1</text>
     </g>
    </g>
    <g id="xtick_3">
     <g id="line2d_3">
      <g>
       <use xlink:href="#md2cdc783c7" x="462" y="315" style="stroke: #000000; stroke-width: 0.8"/>
      </g>
     </g>
     <g id="text_3">
      <text style="font: 16px 'Arial'; text-anchor: middle" x="462" y="334.1575" transform="rotate(-0, 462, 334.1575)">0.2</text>
     </g>
    </g>
    <g id="xtick_4">
     <g id="line2d_4">
      <g>
       <use xlink:href="#md2cdc783c7" x="648" y="315" style="stroke: #000000; stroke-width: 0.8"/>
      </g>
     </g>
     <g id="text_4">
      <text style="font: 16px 'Arial'; text-anchor: middle" x="648" y="334.1575" transform="rotate(-0, 648, 334.1575)">0.3</text>
     </g>
    </g>
   </g>
   <g id="matplotlib.axis_2">
    <g id="ytick_1">
     <g id="line2d_5">
      <defs>
       <path id="m7a4fa2f53d" d="M 0 0 
L -3.5 0 
" style="stroke: #000000; stroke-width: 0.8"/>
      </defs>
      <g>
       <use xlink:href="#m7a4fa2f53d" x="90" y="302.645455" style="stroke: #000000; stroke-width: 0.8"/>
      </g>
     </g>
     <g id="text_5">
      <text style="font: 16px 'Arial'; text-anchor: end" x="83" y="308.724205" transform="rotate(-0, 83, 308.724205)">0.0</text>
     </g>
    </g>
    <g id="ytick_2">
     <g id="line2d_6">
      <g>
       <use xlink:href="#m7a4fa2f53d" x="90" y="179.099148" style="stroke: #000000; stroke-width: 0.8"/>
      </g>
     </g>
     <g id="text_6">
      <text style="font: 16px 'Arial'; text-anchor: end" x="83" y="185.177898" transform="rotate(-0, 83, 185.177898)">0.5</text>
     </g>
    </g>
    <g id="ytick_3">
     <g id="line2d_7">
      <g>
       <use xlink:href="#m7a4fa2f53d" x="90" y="55.552841" style="stroke: #000000; stroke-width: 0.8"/>
      </g>
     </g>
     <g id="text_7">
      <text style="font: 16px 'Arial'; text-anchor: end" x="83" y="61.631591" transform="rotate(-0, 83, 61.631591)">1.0</text>
     </g>
    </g>
   </g>
   <g id="line2d_8">
    <path d="M 90 302.645455 
L 91.86 220.281247 
L 183 220.281402 
L 184.86 221.072392 
L 186.72 223.463004 
L 188.58 230.782268 
L 190.44 238.826659 
L 192.3 247.880708 
L 194.16 255.615732 
L 196.02 262.100228 
L 197.88 267.473757 
L 199.74 271.991701 
L 201.6 275.749725 
L 203.46 278.78267 
L 205.32 281.240567 
L 207.18 283.30985 
L 209.04 285.048856 
L 210.9 285.824186 
L 212.76 284.608951 
L 216.48 281.107506 
L 218.34 279.291976 
L 220.2 277.811704 
L 223.92 276.040873 
L 225.78 273.849808 
L 229.5 266.910147 
L 235.08 254.637036 
L 236.94 251.048227 
L 238.8 247.836049 
L 240.66 244.924534 
L 242.52 242.298857 
L 244.38 239.941139 
L 246.24 237.830672 
L 248.1 235.945712 
L 249.96 234.264665 
L 251.82 232.766856 
L 253.68 231.432975 
L 257.4 229.187631 
L 261.12 227.406207 
L 264.84 225.990564 
L 268.56 224.863256 
L 272.28 223.963619 
L 276 223.24417 
L 281.58 222.423784 
L 287.16 221.8333 
L 294.6 221.293074 
L 303.9 220.875303 
L 316.92 220.563816 
L 335.52 220.379232 
L 369 220.297286 
L 370.86 222.29588 
L 372.72 225.570849 
L 374.58 233.250747 
L 376.44 242.971821 
L 378.3 251.433287 
L 380.16 258.599197 
L 382.02 264.575309 
L 383.88 269.597817 
L 385.74 273.767214 
L 387.6 277.049117 
L 389.46 279.815888 
L 391.32 282.199502 
L 393.18 285.538096 
L 395.04 288.497056 
L 396.9 289.979245 
L 398.76 289.549879 
L 400.62 288.499237 
L 402.48 287.26204 
L 404.34 286.189426 
L 406.2 284.867582 
L 408.06 281.733217 
L 409.92 276.672682 
L 411.78 270.096109 
L 413.64 262.442736 
L 415.5 256.151377 
L 417.36 251.442035 
L 419.22 248.088503 
L 421.08 244.9754 
L 422.94 242.161641 
L 424.8 239.649571 
L 426.66 237.420494 
L 428.52 235.449125 
L 430.38 233.709263 
L 432.24 232.175532 
L 434.1 230.82425 
L 435.96 229.633782 
L 439.68 227.659548 
L 443.4 226.122018 
L 447.12 224.92001 
L 450.84 223.976352 
L 454.56 223.232395 
L 460.14 222.39639 
L 465.72 221.803284 
L 473.16 221.267256 
L 482.46 220.857247 
L 495.48 220.55417 
L 514.08 220.375675 
L 551.28 220.292625 
L 555 220.329091 
L 556.86 222.722649 
L 558.72 228.195562 
L 560.58 236.013703 
L 562.44 245.425653 
L 564.3 253.528252 
L 566.16 260.354957 
L 568.02 266.04332 
L 569.88 270.823419 
L 571.74 274.711541 
L 573.6 277.847395 
L 577.32 283.110487 
L 579.18 286.471715 
L 581.04 289.190114 
L 582.9 289.451768 
L 584.76 288.53661 
L 590.34 284.230162 
L 592.2 283.265102 
L 594.06 280.494278 
L 597.78 274.552095 
L 599.64 272.301915 
L 601.5 269.588141 
L 605.22 261.923376 
L 608.94 254.549615 
L 610.8 251.254321 
L 612.66 248.224946 
L 614.52 245.456331 
L 616.38 242.937991 
L 618.24 240.655684 
L 620.1 238.59309 
L 621.96 236.733004 
L 623.82 235.058173 
L 625.68 233.551888 
L 627.54 232.198301 
L 631.26 229.891233 
L 634.98 228.032487 
L 638.7 226.535436 
L 642.42 225.329519 
L 646.14 224.357715 
L 648 223.944908 
L 648 223.944908 
" clip-path="url(#p91ff093bd1)" style="fill: none; stroke: #1f77b4; stroke-width: 1.5; stroke-linecap: square"/>
   </g>
   <g id="line2d_9">
    <path d="M 90 302.645455 
L 91.86 220.281247 
L 183 220.28149 
L 184.86 221.584531 
L 186.72 225.370565 
L 194.16 252.878407 
L 196.02 258.539357 
L 197.88 263.431476 
L 199.74 269.030423 
L 201.6 273.663681 
L 203.46 277.984495 
L 205.32 282.003857 
L 207.18 285.125478 
L 209.04 287.569818 
L 210.9 288.713688 
L 212.76 287.66983 
L 216.48 285.232561 
L 218.34 283.683581 
L 220.2 281.912108 
L 223.92 276.769725 
L 225.78 273.8812 
L 227.64 270.642207 
L 229.5 267.872691 
L 231.36 264.849531 
L 233.22 262.136356 
L 235.08 258.885919 
L 238.8 251.968089 
L 240.66 248.854772 
L 242.52 246.00856 
L 244.38 243.419968 
L 246.24 241.07499 
L 248.1 238.957082 
L 249.96 237.048564 
L 251.82 235.331604 
L 253.68 233.788815 
L 255.54 232.403704 
L 259.26 230.046052 
L 262.98 228.149795 
L 266.7 226.624886 
L 270.42 225.398209 
L 274.14 224.410802 
L 277.86 223.615489 
L 283.44 222.70206 
L 289.02 222.040152 
L 296.46 221.431133 
L 305.76 220.957853 
L 316.92 220.639621 
L 333.66 220.419513 
L 363.42 220.306712 
L 369 220.302176 
L 370.86 223.546828 
L 372.72 227.789632 
L 378.3 249.15229 
L 380.16 255.287842 
L 382.02 260.689387 
L 383.88 266.858445 
L 387.6 277.337811 
L 389.46 281.489615 
L 391.32 284.729319 
L 393.18 287.682263 
L 395.04 290.136355 
L 396.9 291.557607 
L 400.62 292.319489 
L 402.48 292.471412 
L 404.34 291.93158 
L 406.2 290.286911 
L 408.06 287.796009 
L 409.92 283.650847 
L 411.78 277.617242 
L 413.64 272.067614 
L 415.5 268.541332 
L 421.08 257.123019 
L 422.94 253.739483 
L 424.8 250.608544 
L 426.66 247.723937 
L 428.52 245.079408 
L 430.38 242.665172 
L 432.24 240.468544 
L 434.1 238.475215 
L 435.96 236.670131 
L 437.82 235.03818 
L 439.68 233.564642 
L 443.4 231.037392 
L 447.12 228.986397 
L 450.84 227.324592 
L 454.56 225.979378 
L 458.28 224.890959 
L 462 224.010505 
L 467.58 222.995078 
L 473.16 222.25638 
L 478.74 221.718923 
L 486.18 221.222719 
L 495.48 220.835965 
L 508.5 220.545811 
L 528.96 220.363915 
L 553.14 220.302168 
L 555 220.364298 
L 556.86 224.227233 
L 558.72 229.941528 
L 564.3 250.961428 
L 568.02 262.430773 
L 569.88 268.29492 
L 573.6 278.604924 
L 575.46 282.471791 
L 577.32 285.579069 
L 579.18 288.452461 
L 581.04 290.679419 
L 582.9 290.693638 
L 586.62 289.168934 
L 588.48 288.695507 
L 592.2 286.330063 
L 594.06 284.68795 
L 595.92 282.746381 
L 597.78 279.242247 
L 599.64 273.216268 
L 601.5 265.898089 
L 603.36 260.065301 
L 605.22 255.925154 
L 607.08 252.227016 
L 608.94 248.869982 
L 610.8 245.825758 
L 612.66 243.079585 
L 614.52 240.614033 
L 616.38 238.408447 
L 618.24 236.440516 
L 620.1 234.687709 
L 621.96 233.128248 
L 623.82 231.741642 
L 625.68 230.509 
L 629.4 228.438682 
L 633.12 226.800126 
L 636.84 225.500509 
L 640.56 224.46715 
L 644.28 223.643472 
L 648 222.985416 
L 648 222.985416 
" clip-path="url(#p91ff093bd1)" style="fill: none; stroke: #ff7f0e; stroke-width: 1.5; stroke-linecap: square"/>
   </g>
   <g id="line2d_10">
    <path d="M 90 302.645455 
L 91.86 220.281247 
L 183 220.280865 
L 184.86 218.186827 
L 186.72 212.01018 
L 190.44 182.668586 
L 192.3 166.518588 
L 194.16 152.349614 
L 196.02 140.204146 
L 199.74 119.821646 
L 201.6 111.430355 
L 203.46 104.076569 
L 205.32 97.599326 
L 207.18 92.408416 
L 209.04 88.225068 
L 210.9 86.30588 
L 212.76 88.564958 
L 216.48 94.503676 
L 223.92 108.033152 
L 225.78 113.112749 
L 227.64 119.861264 
L 229.5 126.060901 
L 236.94 154.447614 
L 238.8 161.039616 
L 240.66 167.064462 
L 242.52 172.536321 
L 244.38 177.482646 
L 246.24 181.938099 
L 248.1 185.940964 
L 249.96 189.530521 
L 251.82 192.74529 
L 253.68 195.621967 
L 255.54 198.194792 
L 257.4 200.495271 
L 259.26 202.552106 
L 261.12 204.391248 
L 262.98 206.03602 
L 264.84 207.507341 
L 266.7 208.823858 
L 270.42 211.057331 
L 274.14 212.849028 
L 277.86 214.288176 
L 281.58 215.445529 
L 285.3 216.377243 
L 289.02 217.127989 
L 294.6 217.990725 
L 300.18 218.616336 
L 307.62 219.192365 
L 316.92 219.64032 
L 328.08 219.941696 
L 344.82 220.150228 
L 369 220.244288 
L 370.86 215.001049 
L 372.72 207.483283 
L 374.58 192.705149 
L 376.44 175.586816 
L 378.3 160.25817 
L 380.16 146.956711 
L 383.88 124.387491 
L 385.74 115.097756 
L 387.6 106.456828 
L 389.46 99.53825 
L 391.32 93.914915 
L 393.18 87.623405 
L 395.04 82.21034 
L 396.9 79.306903 
L 398.76 79.356329 
L 400.62 80.025033 
L 402.48 81.110286 
L 404.34 82.722737 
L 406.2 85.689253 
L 408.06 91.314533 
L 409.92 100.520231 
L 413.64 126.333411 
L 415.5 136.151051 
L 417.36 144.718679 
L 419.22 151.9799 
L 421.08 158.745323 
L 422.94 164.942633 
L 424.8 170.585615 
L 426.66 175.699337 
L 428.52 180.315198 
L 430.38 184.469318 
L 432.24 188.199681 
L 434.1 191.544306 
L 435.96 194.539836 
L 437.82 197.220912 
L 439.68 199.619566 
L 441.54 201.765144 
L 443.4 203.684362 
L 445.26 205.401219 
L 447.12 206.937358 
L 448.98 208.312116 
L 452.7 210.644833 
L 456.42 212.516458 
L 460.14 214.019945 
L 463.86 215.229096 
L 467.58 216.202512 
L 471.3 216.986881 
L 476.88 217.888249 
L 482.46 218.541872 
L 489.9 219.143674 
L 499.2 219.611667 
L 510.36 219.926519 
L 527.1 220.144359 
L 553.14 220.250091 
L 555 220.150354 
L 556.86 213.89386 
L 558.72 202.706653 
L 560.58 187.814474 
L 562.44 171.126511 
L 564.3 156.354048 
L 566.16 143.615193 
L 569.88 121.725414 
L 571.74 112.524945 
L 573.6 104.391436 
L 575.46 97.884458 
L 577.32 92.154213 
L 579.18 85.919568 
L 581.04 80.974215 
L 582.9 80.698333 
L 584.76 82.335762 
L 586.62 84.533337 
L 588.48 86.480155 
L 590.34 89.102113 
L 592.2 91.248582 
L 594.06 95.661537 
L 595.92 100.578494 
L 597.78 107.049404 
L 599.64 115.325567 
L 603.36 134.914455 
L 605.22 142.995209 
L 607.08 150.505685 
L 608.94 157.42416 
L 610.8 163.763667 
L 612.66 169.539215 
L 614.52 174.773381 
L 616.38 179.497323 
L 618.24 183.747564 
L 620.1 187.562966 
L 621.96 190.982512 
L 623.82 194.043949 
L 625.68 196.782876 
L 627.54 199.23229 
L 629.4 201.422434 
L 631.26 203.380747 
L 633.12 205.131986 
L 634.98 206.698361 
L 636.84 208.09974 
L 640.56 210.47667 
L 644.28 212.382825 
L 648 213.913418 
L 648 213.913418 
" clip-path="url(#p91ff093bd1)" style="fill: none; stroke: #2ca02c; stroke-width: 1.5; stroke-linecap: square"/>
   </g>
   <g id="line2d_11">
    <path d="M 90 179.099148 
L 97.44 148.273856 
L 101.16 133.473922 
L 104.88 119.398339 
L 108.6 106.270574 
L 112.32 94.299044 
L 114.18 88.807063 
L 116.04 83.673811 
L 117.9 78.919681 
L 119.76 74.563562 
L 121.62 70.622761 
L 123.48 67.112933 
L 125.34 64.048025 
L 127.2 61.440211 
L 129.06 59.299854 
L 130.92 57.635457 
L 132.78 56.453632 
L 134.64 55.759075 
L 136.5 55.554545 
L 138.36 55.840856 
L 140.22 56.616868 
L 142.08 57.8795 
L 143.94 59.623734 
L 145.8 61.842642 
L 147.66 64.527407 
L 149.52 67.667362 
L 151.38 71.250034 
L 153.24 75.261188 
L 155.1 79.684887 
L 156.96 84.503557 
L 158.82 89.698054 
L 162.54 101.130563 
L 166.26 113.80091 
L 169.98 127.507941 
L 173.7 142.03404 
L 179.28 164.851807 
L 190.44 211.179762 
L 194.16 225.928173 
L 197.88 239.933121 
L 201.6 252.972262 
L 205.32 264.838584 
L 207.18 270.272255 
L 209.04 275.343696 
L 210.9 280.032761 
L 212.76 284.320818 
L 214.62 288.190833 
L 216.48 291.627428 
L 218.34 294.616951 
L 220.2 297.147525 
L 222.06 299.209095 
L 223.92 300.793471 
L 225.78 301.894359 
L 227.64 302.507384 
L 229.5 302.630111 
L 231.36 302.262052 
L 233.22 301.40467 
L 235.08 300.061371 
L 236.94 298.237492 
L 238.8 295.940278 
L 240.66 293.178858 
L 242.52 289.964202 
L 244.38 286.309081 
L 246.24 282.228018 
L 248.1 277.737227 
L 249.96 272.854548 
L 251.82 267.599381 
L 255.54 256.056496 
L 259.26 243.291826 
L 262.98 229.508025 
L 266.7 214.923927 
L 272.28 192.056285 
L 283.44 145.766753 
L 287.16 131.071492 
L 290.88 117.138724 
L 294.6 104.189648 
L 298.32 92.429843 
L 300.18 87.055083 
L 302.04 82.046012 
L 303.9 77.42253 
L 305.76 73.203008 
L 307.62 69.404208 
L 309.48 66.041223 
L 311.34 63.127416 
L 313.2 60.674361 
L 315.06 58.691805 
L 316.92 57.187625 
L 318.78 56.167796 
L 320.64 55.636371 
L 322.5 55.59546 
L 324.36 56.045227 
L 326.22 56.983884 
L 328.08 58.407703 
L 329.94 60.311025 
L 331.8 62.68629 
L 333.66 65.524061 
L 335.52 68.813063 
L 337.38 72.540229 
L 339.24 76.690751 
L 341.1 81.248139 
L 342.96 86.194287 
L 344.82 91.509544 
L 348.54 103.161532 
L 352.26 116.019115 
L 355.98 129.878164 
L 359.7 144.518652 
L 365.28 167.433643 
L 376.44 213.679643 
L 380.16 228.320131 
L 383.88 242.17918 
L 387.6 255.036763 
L 391.32 266.688751 
L 393.18 272.004008 
L 395.04 276.950156 
L 396.9 281.507544 
L 398.76 285.658066 
L 400.62 289.385232 
L 402.48 292.674234 
L 404.34 295.512005 
L 406.2 297.88727 
L 408.06 299.790592 
L 409.92 301.214411 
L 411.78 302.153068 
L 413.64 302.602835 
L 415.5 302.561924 
L 417.36 302.030499 
L 419.22 301.01067 
L 421.08 299.50649 
L 422.94 297.523934 
L 424.8 295.070879 
L 426.66 292.157072 
L 428.52 288.794087 
L 430.38 284.995288 
L 432.24 280.775765 
L 434.1 276.152283 
L 435.96 271.143212 
L 437.82 265.768452 
L 441.54 254.008648 
L 445.26 241.059571 
L 448.98 227.126803 
L 452.7 212.431542 
L 458.28 189.47173 
L 469.44 143.274369 
L 473.16 128.69027 
L 476.88 114.906469 
L 480.6 102.141799 
L 484.32 90.598914 
L 486.18 85.343747 
L 488.04 80.461069 
L 489.9 75.970277 
L 491.76 71.889214 
L 493.62 68.234093 
L 495.48 65.019437 
L 497.34 62.258017 
L 499.2 59.960804 
L 501.06 58.136924 
L 502.92 56.793625 
L 504.78 55.936243 
L 506.64 55.568184 
L 508.5 55.690911 
L 510.36 56.303936 
L 512.22 57.404824 
L 514.08 58.9892 
L 515.94 61.05077 
L 517.8 63.581344 
L 519.66 66.570867 
L 521.52 70.007463 
L 523.38 73.877477 
L 525.24 78.165534 
L 527.1 82.854599 
L 528.96 87.926041 
L 532.68 99.134022 
L 536.4 111.61154 
L 540.12 125.160499 
L 543.84 139.565795 
L 549.42 162.276261 
L 562.44 216.164255 
L 566.16 230.690354 
L 569.88 244.397385 
L 573.6 257.067732 
L 577.32 268.500241 
L 579.18 273.694738 
L 581.04 278.513408 
L 582.9 282.937107 
L 584.76 286.948261 
L 586.62 290.530933 
L 588.48 293.670889 
L 590.34 296.355653 
L 592.2 298.574561 
L 594.06 300.318796 
L 595.92 301.581427 
L 597.78 302.35744 
L 599.64 302.64375 
L 601.5 302.43922 
L 603.36 301.744663 
L 605.22 300.562838 
L 607.08 298.898441 
L 608.94 296.758084 
L 610.8 294.150271 
L 612.66 291.085362 
L 614.52 287.575534 
L 616.38 283.634733 
L 618.24 279.278614 
L 620.1 274.524484 
L 621.96 269.391232 
L 625.68 258.070362 
L 629.4 245.495735 
L 633.12 231.866988 
L 636.84 217.400492 
L 642.42 194.635119 
L 646.14 179.099148 
L 646.14 179.099148 
" clip-path="url(#p91ff093bd1)" style="fill: none; stroke-dasharray: 3.2,0.8,0.5,0.8; stroke-dashoffset: 0; stroke: #000000; stroke-width: 0.5"/>
   </g>
   <g id="patch_3">
    <path d="M 90 315 
L 90 43.2 
" style="fill: none; stroke: #000000; stroke-width: 0.8; stroke-linejoin: miter; stroke-linecap: square"/>
   </g>
   <g id="patch_4">
    <path d="M 648 315 
L 648 43.2 
" style="fill: none; stroke: #000000; stroke-width: 0.8; stroke-linejoin: miter; stroke-linecap: square"/>
   </g>
   <g id="patch_5">
    <path d="M 90 315 
L 648 315 
" style="fill: none; stroke: #000000; stroke-width: 0.8; stroke-linejoin: miter; stroke-linecap: square"/>
   </g>
   <g id="patch_6">
    <path d="M 90 43.2 
L 648 43.2 
" style="fill: none; stroke: #000000; stroke-width: 0.8; stroke-linejoin: miter; stroke-linecap: square"/>
   </g>
   <g id="legend_1">
    <g id="patch_7">
     <path d="M 555.8975 149.94 
L 636.8 149.94 
Q 640 149.94 640 146.74 
L 640 54.4 
Q 640 51.2 636.8 51.2 
L 555.8975 51.2 
Q 552.6975 51.2 552.6975 54.4 
L 552.6975 146.74 
Q 552.6975 149.94 555.8975 149.94 
z
" style="fill: #ffffff; opacity: 0.8; stroke: #cccccc; stroke-linejoin: miter"/>
    </g>
    <g id="line2d_12">
     <path d="M 559.0975 64.1575 
L 575.0975 64.1575 
L 591.0975 64.1575 
" style="fill: none; stroke: #1f77b4; stroke-width: 1.5; stroke-linecap: square"/>
    </g>
    <g id="text_8">
     <text style="font: 16px 'Arial'; text-anchor: start" x="603.8975" y="69.7575" transform="rotate(-0, 603.8975, 69.7575)">A(t)</text>
    </g>
    <g id="line2d_13">
     <path d="M 559.0975 87.6425 
L 575.0975 87.6425 
L 591.0975 87.6425 
" style="fill: none; stroke: #ff7f0e; stroke-width: 1.5; stroke-linecap: square"/>
    </g>
    <g id="text_9">
     <text style="font: 16px 'Arial'; text-anchor: start" x="603.8975" y="93.2425" transform="rotate(-0, 603.8975, 93.2425)">E(t)</text>
    </g>
    <g id="line2d_14">
     <path d="M 559.0975 111.1275 
L 575.0975 111.1275 
L 591.0975 111.1275 
" style="fill: none; stroke: #2ca02c; stroke-width: 1.5; stroke-linecap: square"/>
    </g>
    <g id="text_10">
     <text style="font: 16px 'Arial'; text-anchor: start" x="603.8975" y="116.7275" transform="rotate(-0, 603.8975, 116.7275)">T(t)</text>
    </g>
    <g id="line2d_15">
     <path d="M 559.0975 134.6125 
L 575.0975 134.6125 
L 591.0975 134.6125 
" style="fill: none; stroke-dasharray: 3.2,0.8,0.5,0.8; stroke-dashoffset: 0; stroke: #000000; stroke-width: 0.5"/>
    </g>
    <g id="text_11">
     <text style="font: 16px 'Arial'; text-anchor: start" x="603.8975" y="140.2125" transform="rotate(-0, 603.8975, 140.2125)">a(t)</text>
    </g>
   </g>
  </g>
 </g>
 <defs>
  <clipPath id="p91ff093bd1">
   <rect x="90" y="43.2" width="558" height="271.8"/>
  </clipPath>
 </defs>
</svg>
