<?xml version="1.0" encoding="utf-8" standalone="no"?>
<!DOCTYPE svg PUBLIC "-//W3C//DTD SVG 1.1//EN"
  "http://www.w3.org/Graphics/SVG/1.1/DTD/svg11.dtd">
<svg xmlns:xlink="http://www.w3.org/1999/xlink" width="720pt" height="360pt" viewBox="0 0 720 360" xmlns="http://www.w3.org/2000/svg" version="1.1">
 <metadata>
  <rdf:RDF xmlns:dc="http://purl.org/dc/elements/1.1/" xmlns:cc="http://creativecommons.org/ns#" xmlns:rdf="http://www.w3.org/1999/02/22-rdf-syntax-ns#">
   <cc:Work>
    <dc:type rdf:resource="http://purl.org/dc/dcmitype/StillImage"/>
    <dc:date>2023-01-18T18:22:10.018217</dc:date>
    <dc:format>image/svg+xml</dc:format>
    <dc:creator>
     <cc:Agent>
      <dc:title>Matplotlib v3.5.2, https://matplotlib.org/</dc:title>
     </cc:Agent>
    </dc:creator>
   </cc:Work>
  </rdf:RDF>
 </metadata>
 <defs>
  <style type="text/css">*{stroke-linejoin: round; stroke-linecap: butt}</style>
 </defs>
 <g id="figure_1">
  <g id="patch_1">
   <path d="M 0 360 
L 720 360 
L 720 0 
L 0 0 
L 0 360 
z
" style="fill: none"/>
  </g>
  <g id="axes_1">
   <g id="patch_2">
    <path d="M 90 315 
L 648 315 
L 648 43.2 
L 90 43.2 
z
" style="fill: #ffffff"/>
   </g>
   <g id="matplotlib.axis_1">
    <g id="xtick_1">
     <g id="line2d_1">
      <defs>
       <path id="m3bb3645303" d="M 0 0 
L 0 3.5 
" style="stroke: #000000; stroke-width: 0.8"/>
      </defs>
      <g>
       <use xlink:href="#m3bb3645303" x="90" y="315" style="stroke: #000000; stroke-width: 0.8"/>
      </g>
     </g>
     <g id="text_1">
      <text style="font: 16px 'Arial'; text-anchor: middle" x="90" y="334.1575" transform="rotate(-0, 90, 334.1575)">0</text>
     </g>
    </g>
    <g id="xtick_2">
     <g id="line2d_2">
      <g>
       <use xlink:href="#m3bb3645303" x="276" y="315" style="stroke: #000000; stroke-width: 0.8"/>
      </g>
     </g>
     <g id="text_2">
      <text style="font: 16px 'Arial'; text-anchor: middle" x="276" y="334.1575" transform="rotate(-0, 276, 334.1575)">0.1</text>
     </g>
    </g>
    <g id="xtick_3">
     <g id="line2d_3">
      <g>
       <use xlink:href="#m3bb3645303" x="462" y="315" style="stroke: #000000; stroke-width: 0.8"/>
      </g>
     </g>
     <g id="text_3">
      <text style="font: 16px 'Arial'; text-anchor: middle" x="462" y="334.1575" transform="rotate(-0, 462, 334.1575)">0.2</text>
     </g>
    </g>
    <g id="xtick_4">
     <g id="line2d_4">
      <g>
       <use xlink:href="#m3bb3645303" x="648" y="315" style="stroke: #000000; stroke-width: 0.8"/>
      </g>
     </g>
     <g id="text_4">
      <text style="font: 16px 'Arial'; text-anchor: middle" x="648" y="334.1575" transform="rotate(-0, 648, 334.1575)">0.3</text>
     </g>
    </g>
   </g>
   <g id="matplotlib.axis_2">
    <g id="ytick_1">
     <g id="line2d_5">
      <defs>
       <path id="m8ff9e12fdb" d="M 0 0 
L -3.5 0 
" style="stroke: #000000; stroke-width: 0.8"/>
      </defs>
      <g>
       <use xlink:href="#m8ff9e12fdb" x="90" y="306.487178" style="stroke: #000000; stroke-width: 0.8"/>
      </g>
     </g>
     <g id="text_5">
      <text style="font: 16px 'Arial'; text-anchor: end" x="83" y="312.565928" transform="rotate(-0, 83, 312.565928)">0.0</text>
     </g>
    </g>
    <g id="ytick_2">
     <g id="line2d_6">
      <g>
       <use xlink:href="#m8ff9e12fdb" x="90" y="174.843589" style="stroke: #000000; stroke-width: 0.8"/>
      </g>
     </g>
     <g id="text_6">
      <text style="font: 16px 'Arial'; text-anchor: end" x="83" y="180.922339" transform="rotate(-0, 83, 180.922339)">0.5</text>
     </g>
    </g>
    <g id="ytick_3">
     <g id="line2d_7">
      <g>
       <use xlink:href="#m8ff9e12fdb" x="90" y="43.2" style="stroke: #000000; stroke-width: 0.8"/>
      </g>
     </g>
     <g id="text_7">
      <text style="font: 16px 'Arial'; text-anchor: end" x="83" y="49.27875" transform="rotate(-0, 83, 49.27875)">1.0</text>
     </g>
    </g>
   </g>
   <g id="line2d_8">
    <path d="M 90 306.487178 
L 91.86 218.741394 
L 93.72 219.359139 
L 99.3 226.573314 
L 101.16 230.292203 
L 104.88 244.817682 
L 106.74 250.01871 
L 108.6 254.050266 
L 110.46 258.471533 
L 112.32 262.135496 
L 114.18 261.534434 
L 117.9 258.638159 
L 119.76 256.284039 
L 121.62 252.752043 
L 123.48 249.488192 
L 125.34 246.494592 
L 127.2 243.762354 
L 129.06 241.277083 
L 134.64 234.535856 
L 136.5 232.441771 
L 138.36 230.525796 
L 140.22 228.779361 
L 142.08 227.24702 
L 145.8 225.205147 
L 147.66 223.664528 
L 151.38 219.959072 
L 153.24 218.335483 
L 155.1 216.942207 
L 156.96 216.721836 
L 158.82 217.195714 
L 160.68 219.772614 
L 162.54 222.774076 
L 166.26 228.411381 
L 168.12 234.244387 
L 169.98 241.897609 
L 171.84 246.334605 
L 173.7 249.726037 
L 175.56 254.014901 
L 177.42 260.192113 
L 179.28 263.009981 
L 181.14 264.33773 
L 183 265.215357 
L 184.86 264.769072 
L 186.72 263.858305 
L 188.58 260.969696 
L 192.3 253.753552 
L 194.16 250.476656 
L 196.02 247.45934 
L 197.88 244.698014 
L 199.74 242.190498 
L 201.6 239.949322 
L 203.46 238.025806 
L 205.32 236.49483 
L 210.9 232.590071 
L 214.62 229.052092 
L 216.48 227.590151 
L 218.34 226.591887 
L 220.2 225.918847 
L 222.06 227.034943 
L 223.92 228.950471 
L 225.78 230.257867 
L 227.64 231.329128 
L 229.5 232.635832 
L 231.36 236.218741 
L 233.22 240.655568 
L 235.08 243.724267 
L 238.8 249.351034 
L 240.66 251.924387 
L 242.52 252.390713 
L 244.38 251.562405 
L 246.24 251.021953 
L 248.1 250.683793 
L 251.82 250.410101 
L 253.68 248.329756 
L 255.54 245.45451 
L 257.4 242.797434 
L 259.26 240.795782 
L 261.12 240.080595 
L 262.98 240.749024 
L 266.7 242.921618 
L 268.56 243.063935 
L 270.42 241.964642 
L 274.14 240.221496 
L 276 238.809458 
L 281.58 232.701336 
L 283.44 232.040686 
L 285.3 233.117392 
L 289.02 235.634234 
L 290.88 237.041226 
L 292.74 238.646469 
L 294.6 241.342762 
L 296.46 244.247543 
L 298.32 248.243177 
L 300.18 251.596522 
L 302.04 253.737588 
L 303.9 255.1961 
L 305.76 254.292356 
L 307.62 252.008098 
L 309.48 250.644168 
L 315.06 248.921999 
L 316.92 248.113877 
L 318.78 245.384774 
L 320.64 242.374751 
L 322.5 239.98704 
L 324.36 237.970691 
L 328.08 234.459885 
L 331.8 231.165032 
L 333.66 229.719608 
L 335.52 228.419541 
L 337.38 227.258178 
L 339.24 226.246269 
L 341.1 225.455146 
L 342.96 225.182761 
L 344.82 226.407846 
L 346.68 230.749894 
L 348.54 235.753298 
L 350.4 240.212268 
L 352.26 243.077745 
L 354.12 244.324749 
L 355.98 246.085476 
L 357.84 247.237043 
L 359.7 249.606236 
L 361.56 252.348192 
L 363.42 254.483549 
L 365.28 256.352834 
L 367.14 257.880624 
L 369 257.044069 
L 372.72 252.111653 
L 374.58 251.308318 
L 376.44 250.67269 
L 380.16 249.026088 
L 382.02 248.469346 
L 383.88 246.231356 
L 385.74 243.442391 
L 393.18 233.918362 
L 395.04 231.853121 
L 396.9 230.193368 
L 398.76 228.811909 
L 400.62 227.614413 
L 402.48 226.573032 
L 404.34 225.684643 
L 406.2 225.215677 
L 408.06 226.734969 
L 411.78 230.896782 
L 413.64 232.737194 
L 415.5 234.417906 
L 417.36 235.8837 
L 419.22 235.102645 
L 421.08 235.458228 
L 422.94 237.359012 
L 426.66 244.857927 
L 428.52 249.311695 
L 430.38 254.193634 
L 432.24 256.540481 
L 434.1 257.755942 
L 437.82 253.821687 
L 439.68 253.933266 
L 443.4 255.008148 
L 445.26 255.157472 
L 447.12 254.395735 
L 448.98 251.919369 
L 452.7 245.92838 
L 460.14 232.681774 
L 462 229.855471 
L 463.86 228.119347 
L 465.72 226.764276 
L 467.58 226.310713 
L 469.44 228.546546 
L 471.3 231.579449 
L 473.16 233.816647 
L 475.02 235.443107 
L 476.88 236.879171 
L 478.74 238.086931 
L 480.6 236.756537 
L 482.46 234.973412 
L 484.32 235.272209 
L 486.18 236.671488 
L 488.04 239.320552 
L 489.9 242.932175 
L 491.76 246.156962 
L 493.62 248.844526 
L 495.48 248.832278 
L 497.34 248.371284 
L 499.2 246.079132 
L 501.06 243.189405 
L 502.92 241.684076 
L 504.78 241.986962 
L 506.64 242.504345 
L 508.5 243.211199 
L 510.36 244.233905 
L 512.22 246.094406 
L 514.08 246.853008 
L 515.94 247.189375 
L 517.8 247.365824 
L 519.66 246.0501 
L 521.52 243.723816 
L 523.38 242.004672 
L 525.24 240.978682 
L 528.96 239.491976 
L 530.82 239.25315 
L 536.4 238.172584 
L 538.26 238.096794 
L 540.12 238.853399 
L 541.98 237.408916 
L 543.84 235.269471 
L 545.7 233.743289 
L 547.56 234.369053 
L 549.42 236.05922 
L 551.28 238.821471 
L 555 247.213012 
L 556.86 250.629464 
L 558.72 250.852816 
L 560.58 250.438341 
L 562.44 248.770125 
L 564.3 245.86425 
L 566.16 243.2791 
L 568.02 242.005578 
L 571.74 242.456913 
L 575.46 242.725006 
L 577.32 242.745243 
L 579.18 240.663869 
L 581.04 238.305583 
L 582.9 236.198183 
L 584.76 234.31317 
L 586.62 232.630489 
L 588.48 231.149143 
L 590.34 230.111199 
L 592.2 231.167221 
L 594.06 233.66305 
L 595.92 237.179412 
L 599.64 245.173944 
L 601.5 248.165076 
L 603.36 247.134288 
L 607.08 240.721659 
L 608.94 238.225901 
L 610.8 238.380322 
L 612.66 240.002553 
L 614.52 242.102444 
L 618.24 248.692291 
L 620.1 251.361988 
L 621.96 251.313692 
L 623.82 250.878675 
L 625.68 250.017686 
L 629.4 243.914299 
L 631.26 241.410423 
L 633.12 240.435503 
L 634.98 241.085607 
L 636.84 241.958546 
L 640.56 244.085429 
L 642.42 244.814367 
L 644.28 242.701753 
L 646.14 239.920352 
L 648 237.340683 
L 648 237.340683 
" clip-path="url(#p8f8c09d876)" style="fill: none; stroke: #1f77b4; stroke-width: 1.5; stroke-linecap: square"/>
   </g>
   <g id="line2d_9">
    <path d="M 90 306.487178 
L 91.86 218.752403 
L 93.72 219.772308 
L 97.44 227.346907 
L 99.3 230.728143 
L 101.16 234.817869 
L 104.88 247.630191 
L 106.74 251.778888 
L 108.6 253.463441 
L 110.46 255.415126 
L 112.32 257.125462 
L 114.18 255.209824 
L 119.76 247.219917 
L 121.62 244.094966 
L 123.48 241.289775 
L 125.34 238.784702 
L 127.2 236.555633 
L 129.06 234.585391 
L 130.92 232.957165 
L 132.78 232.471188 
L 140.22 236.239032 
L 142.08 236.668592 
L 143.94 235.040884 
L 145.8 233.789466 
L 147.66 234.049007 
L 151.38 236.727034 
L 153.24 237.907181 
L 155.1 238.803942 
L 158.82 236.215477 
L 160.68 237.613249 
L 164.4 241.640705 
L 166.26 243.642906 
L 168.12 247.455338 
L 169.98 252.500827 
L 171.84 254.3877 
L 173.7 255.162486 
L 175.56 256.114114 
L 177.42 257.820358 
L 179.28 256.933629 
L 181.14 254.990344 
L 183 253.452757 
L 184.86 251.698206 
L 186.72 249.788555 
L 188.58 246.936684 
L 190.44 243.767054 
L 192.3 240.878481 
L 194.16 238.31237 
L 196.02 236.042844 
L 197.88 234.044802 
L 199.74 232.301043 
L 201.6 230.819375 
L 203.46 229.675659 
L 205.32 229.120428 
L 207.18 229.885476 
L 209.04 232.031215 
L 210.9 234.002336 
L 212.76 235.149504 
L 214.62 235.987989 
L 216.48 235.942251 
L 218.34 234.288901 
L 220.2 233.090777 
L 222.06 234.532474 
L 223.92 237.883288 
L 225.78 242.486031 
L 231.36 257.616226 
L 233.22 261.512985 
L 235.08 262.253901 
L 236.94 262.763642 
L 238.8 262.831346 
L 240.66 262.722145 
L 242.52 261.071086 
L 246.24 255.26934 
L 248.1 252.665947 
L 249.96 250.291528 
L 251.82 248.185085 
L 255.54 243.423555 
L 261.12 236.846859 
L 262.98 235.052372 
L 264.84 233.56365 
L 266.7 232.366373 
L 268.56 231.622409 
L 270.42 231.009317 
L 274.14 230.126366 
L 276 229.375583 
L 277.86 228.449005 
L 279.72 228.409356 
L 281.58 229.973178 
L 283.44 233.46596 
L 285.3 238.633319 
L 287.16 243.111889 
L 289.02 246.403709 
L 292.74 249.168542 
L 294.6 250.917998 
L 296.46 251.714244 
L 300.18 255.400602 
L 302.04 257.544892 
L 303.9 260.000233 
L 305.76 260.67257 
L 307.62 259.963915 
L 309.48 259.066876 
L 311.34 256.788562 
L 313.2 254.832879 
L 316.92 251.757365 
L 318.78 249.404897 
L 324.36 241.237666 
L 326.22 239.015784 
L 328.08 237.104948 
L 331.8 233.828801 
L 333.66 232.416858 
L 335.52 231.194449 
L 339.24 229.182753 
L 342.96 227.405655 
L 344.82 226.946309 
L 346.68 229.377929 
L 350.4 235.925766 
L 352.26 239.739073 
L 355.98 248.843545 
L 357.84 251.049098 
L 361.56 256.178946 
L 365.28 257.351369 
L 367.14 257.750108 
L 369 256.334108 
L 370.86 253.625429 
L 372.72 250.460786 
L 374.58 248.167136 
L 376.44 246.511623 
L 378.3 246.321697 
L 380.16 247.273345 
L 382.02 248.544901 
L 383.88 249.286735 
L 385.74 249.413387 
L 389.46 245.454675 
L 391.32 244.135337 
L 393.18 243.138179 
L 395.04 241.922487 
L 396.9 240.03499 
L 400.62 235.999767 
L 402.48 234.201929 
L 404.34 232.577281 
L 406.2 231.516496 
L 408.06 233.226436 
L 409.92 235.792539 
L 411.78 238.125904 
L 413.64 240.224854 
L 415.5 242.106991 
L 417.36 243.705168 
L 419.22 242.345068 
L 421.08 241.341825 
L 422.94 241.639512 
L 424.8 243.994848 
L 428.52 251.361062 
L 430.38 254.763625 
L 432.24 256.132267 
L 434.1 256.326344 
L 435.96 253.200718 
L 437.82 250.379358 
L 439.68 248.626741 
L 441.54 247.273215 
L 445.26 244.864165 
L 447.12 243.212447 
L 450.84 238.442623 
L 452.7 236.615565 
L 454.56 236.344937 
L 456.42 237.16182 
L 460.14 239.140976 
L 462 239.883552 
L 463.86 238.769755 
L 465.72 238.105974 
L 467.58 238.222739 
L 469.44 240.819632 
L 471.3 243.938321 
L 473.16 246.038671 
L 475.02 247.371199 
L 476.88 248.517552 
L 478.74 249.458967 
L 480.6 247.513611 
L 482.46 244.871157 
L 484.32 243.698177 
L 486.18 243.412013 
L 488.04 244.192405 
L 491.76 247.549603 
L 493.62 248.989641 
L 495.48 248.549966 
L 497.34 248.46997 
L 499.2 248.249274 
L 501.06 247.74461 
L 502.92 247.627531 
L 504.78 247.880422 
L 506.64 247.566901 
L 510.36 243.466476 
L 512.22 241.670981 
L 515.94 237.44035 
L 517.8 235.563395 
L 521.52 232.204954 
L 523.38 230.856615 
L 525.24 229.918416 
L 527.1 229.274425 
L 528.96 229.567314 
L 530.82 233.837574 
L 532.68 239.605108 
L 534.54 244.879729 
L 536.4 249.564641 
L 538.26 253.243501 
L 540.12 254.361943 
L 541.98 252.458562 
L 543.84 249.705016 
L 545.7 247.530885 
L 547.56 246.825933 
L 549.42 246.793806 
L 551.28 247.486305 
L 556.86 253.51318 
L 558.72 252.8277 
L 560.58 251.496121 
L 562.44 249.138949 
L 564.3 245.869327 
L 566.16 242.966084 
L 568.02 240.810898 
L 569.88 240.001925 
L 571.74 240.661421 
L 575.46 242.398911 
L 577.32 243.093866 
L 579.18 242.581151 
L 581.04 240.124708 
L 582.9 237.864425 
L 584.76 235.841078 
L 586.62 234.034381 
L 588.48 232.439864 
L 590.34 231.365033 
L 592.2 232.999176 
L 594.06 235.676527 
L 599.64 242.936601 
L 601.5 245.207786 
L 603.36 244.697092 
L 605.22 243.012171 
L 607.08 243.128571 
L 608.94 244.718227 
L 612.66 250.048845 
L 614.52 252.004626 
L 616.38 252.755225 
L 620.1 254.628268 
L 621.96 253.892785 
L 623.82 253.006566 
L 625.68 251.709371 
L 629.4 245.398893 
L 631.26 242.676703 
L 633.12 240.612875 
L 634.98 239.254476 
L 636.84 238.271976 
L 638.7 237.712955 
L 640.56 237.519749 
L 648 239.157399 
L 648 239.157399 
" clip-path="url(#p8f8c09d876)" style="fill: none; stroke: #ff7f0e; stroke-width: 1.5; stroke-linecap: square"/>
   </g>
   <g id="line2d_10">
    <path d="M 90 306.487178 
L 91.86 218.680568 
L 93.72 217.04291 
L 97.44 204.60587 
L 99.3 198.872884 
L 101.16 191.064284 
L 104.88 163.726491 
L 106.74 154.37677 
L 108.6 148.660639 
L 110.46 142.287702 
L 112.32 136.913398 
L 114.18 139.430091 
L 116.04 143.639007 
L 117.9 147.520595 
L 119.76 152.670408 
L 121.62 159.327344 
L 123.48 165.396382 
L 125.34 170.89507 
L 127.2 175.856369 
L 129.06 180.311887 
L 130.92 184.211247 
L 132.78 186.911738 
L 134.64 188.20738 
L 138.36 190.248084 
L 140.22 191.155956 
L 142.08 192.258744 
L 143.94 194.906639 
L 145.8 197.179743 
L 147.66 198.460814 
L 151.38 199.488267 
L 155.1 200.4282 
L 156.96 201.923018 
L 158.82 202.763158 
L 160.68 198.788494 
L 162.54 193.698652 
L 166.26 184.120086 
L 168.12 174.474644 
L 169.98 161.775928 
L 171.84 155.452048 
L 173.7 151.28585 
L 175.56 146.04533 
L 177.42 138.161897 
L 179.28 136.230747 
L 183 137.506238 
L 184.86 139.707075 
L 186.72 142.527493 
L 188.58 148.267981 
L 190.44 155.11882 
L 192.3 161.542336 
L 194.16 167.385331 
L 196.02 172.672161 
L 197.88 177.431529 
L 199.74 181.6828 
L 201.6 185.40566 
L 203.46 188.4729 
L 205.32 190.559106 
L 207.18 191.078267 
L 209.04 190.228052 
L 210.9 189.581957 
L 212.76 190.207635 
L 214.62 191.134276 
L 216.48 192.64197 
L 218.34 195.293577 
L 220.2 197.164741 
L 222.06 194.606932 
L 223.92 189.340589 
L 229.5 171.317451 
L 231.36 162.339406 
L 233.22 154.0058 
L 235.08 150.196181 
L 236.94 146.867023 
L 238.8 143.991961 
L 240.66 141.52784 
L 242.52 142.712562 
L 244.38 146.542049 
L 246.24 149.883071 
L 248.1 152.824609 
L 249.96 155.350906 
L 251.82 157.579175 
L 253.68 162.097073 
L 257.4 172.176164 
L 259.26 176.430158 
L 261.12 179.246896 
L 262.98 180.372957 
L 264.84 180.761699 
L 266.7 180.88635 
L 268.56 181.488017 
L 270.42 183.200382 
L 274.14 185.826495 
L 276 187.989316 
L 277.86 190.962593 
L 279.72 193.02708 
L 281.58 193.499851 
L 283.44 190.667719 
L 285.3 184.423631 
L 287.16 178.718264 
L 289.02 174.136409 
L 290.88 171.413195 
L 292.74 168.359341 
L 294.6 163.913601 
L 296.46 160.212562 
L 298.32 154.395461 
L 300.18 149.177241 
L 302.04 144.8919 
L 303.9 140.978016 
L 305.76 141.209427 
L 307.62 144.202328 
L 309.48 146.463317 
L 311.34 149.338786 
L 313.2 151.817926 
L 316.92 156.303103 
L 318.78 161.384683 
L 320.64 167.179233 
L 322.5 172.392007 
L 324.36 176.966008 
L 326.22 180.981348 
L 329.94 188.009277 
L 331.8 191.180523 
L 333.66 194.037891 
L 335.52 196.560359 
L 337.38 198.782123 
L 339.24 200.745327 
L 341.1 202.433924 
L 342.96 203.585957 
L 344.82 202.820179 
L 346.68 196.04655 
L 348.54 187.743985 
L 350.4 180.036339 
L 352.26 173.357527 
L 354.12 167.505744 
L 355.98 161.245343 
L 357.84 157.88822 
L 359.7 152.95188 
L 361.56 147.647223 
L 363.42 144.875203 
L 365.28 142.470151 
L 367.14 140.543614 
L 369 142.796175 
L 370.86 147.921304 
L 372.72 153.601922 
L 374.58 156.6989 
L 376.44 158.990051 
L 378.3 160.008598 
L 380.16 159.874924 
L 382.02 159.160102 
L 383.88 160.65627 
L 385.74 163.31858 
L 389.46 172.123011 
L 391.32 175.815858 
L 396.9 185.945998 
L 398.76 189.40916 
L 400.62 192.560178 
L 402.48 195.399404 
L 404.34 197.912433 
L 406.2 199.442184 
L 408.06 196.212968 
L 409.92 191.489788 
L 411.78 187.151671 
L 413.64 183.212324 
L 415.5 179.649448 
L 417.36 176.585488 
L 419.22 178.72666 
L 421.08 179.3743 
L 422.94 177.175833 
L 424.8 171.192628 
L 426.66 163.622163 
L 430.38 147.21709 
L 432.24 143.501613 
L 434.1 142.092056 
L 437.82 151.973303 
L 439.68 153.614351 
L 441.54 154.425953 
L 443.4 155.066217 
L 445.26 156.152731 
L 447.12 158.566179 
L 448.98 163.385103 
L 450.84 168.830402 
L 452.7 173.630415 
L 454.56 177.191487 
L 456.42 179.850289 
L 458.28 182.218745 
L 462 186.435334 
L 463.86 189.285239 
L 465.72 191.304099 
L 467.58 191.640897 
L 469.44 186.808172 
L 471.3 180.656579 
L 473.16 176.31905 
L 475.02 173.360054 
L 476.88 170.777623 
L 478.74 168.628463 
L 480.6 171.904217 
L 482.46 176.329784 
L 484.32 177.203979 
L 486.18 176.090848 
L 488.04 172.661411 
L 489.9 167.342332 
L 491.76 162.467776 
L 493.62 158.340198 
L 497.34 159.333103 
L 499.2 161.845951 
L 501.06 165.240346 
L 502.92 166.862734 
L 504.78 166.306993 
L 506.64 166.103107 
L 508.5 167.499232 
L 510.36 168.473964 
L 512.22 168.408979 
L 514.08 169.786993 
L 517.8 173.245133 
L 519.66 176.185133 
L 521.52 180.245591 
L 523.38 183.313074 
L 525.24 185.277251 
L 527.1 186.698155 
L 528.96 187.115074 
L 530.82 183.083633 
L 532.68 177.698611 
L 534.54 172.791099 
L 536.4 168.437132 
L 538.26 164.834066 
L 540.12 162.959018 
L 541.98 166.306883 
L 543.84 171.199878 
L 545.7 174.900187 
L 547.56 174.979366 
L 549.42 173.321323 
L 551.28 169.866589 
L 555 157.268529 
L 556.86 152.031713 
L 558.72 152.493829 
L 560.58 154.239879 
L 562.44 158.265279 
L 564.3 164.44078 
L 566.16 169.929173 
L 568.02 173.357857 
L 569.88 173.908466 
L 571.74 173.056015 
L 575.46 171.050448 
L 577.32 170.335249 
L 579.18 172.929356 
L 581.04 177.744074 
L 582.9 182.111733 
L 584.76 186.020109 
L 586.62 189.509479 
L 588.48 192.58535 
L 590.34 194.69814 
L 592.2 192.00796 
L 594.06 186.834779 
L 595.92 180.888382 
L 599.64 168.063808 
L 601.5 162.801506 
L 603.36 164.342965 
L 605.22 169.192051 
L 607.08 172.324119 
L 608.94 173.230225 
L 610.8 170.362413 
L 614.52 162.067287 
L 618.24 153.801601 
L 620.1 150.184097 
L 621.96 150.967875 
L 623.82 152.289112 
L 625.68 154.447295 
L 629.4 166.861164 
L 631.26 172.087231 
L 633.12 175.125979 
L 634.98 175.834289 
L 636.84 175.943835 
L 638.7 175.457332 
L 640.56 174.569179 
L 642.42 173.406788 
L 644.28 174.994761 
L 646.14 177.44275 
L 648 179.676268 
L 648 179.676268 
" clip-path="url(#p8f8c09d876)" style="fill: none; stroke: #2ca02c; stroke-width: 1.5; stroke-linecap: square"/>
   </g>
   <g id="patch_3">
    <path d="M 90 315 
L 90 43.2 
" style="fill: none; stroke: #000000; stroke-width: 0.8; stroke-linejoin: miter; stroke-linecap: square"/>
   </g>
   <g id="patch_4">
    <path d="M 648 315 
L 648 43.2 
" style="fill: none; stroke: #000000; stroke-width: 0.8; stroke-linejoin: miter; stroke-linecap: square"/>
   </g>
   <g id="patch_5">
    <path d="M 90 315 
L 648 315 
" style="fill: none; stroke: #000000; stroke-width: 0.8; stroke-linejoin: miter; stroke-linecap: square"/>
   </g>
   <g id="patch_6">
    <path d="M 90 43.2 
L 648 43.2 
" style="fill: none; stroke: #000000; stroke-width: 0.8; stroke-linejoin: miter; stroke-linecap: square"/>
   </g>
   <g id="legend_1">
    <g id="patch_7">
     <path d="M 555.8975 126.455 
L 636.8 126.455 
Q 640 126.455 640 123.255 
L 640 54.4 
Q 640 51.2 636.8 51.2 
L 555.8975 51.2 
Q 552.6975 51.2 552.6975 54.4 
L 552.6975 123.255 
Q 552.6975 126.455 555.8975 126.455 
z
" style="fill: #ffffff; opacity: 0.8; stroke: #cccccc; stroke-linejoin: miter"/>
    </g>
    <g id="line2d_11">
     <path d="M 559.0975 64.1575 
L 575.0975 64.1575 
L 591.0975 64.1575 
" style="fill: none; stroke: #1f77b4; stroke-width: 1.5; stroke-linecap: square"/>
    </g>
    <g id="text_8">
     <text style="font: 16px 'Arial'; text-anchor: start" x="603.8975" y="69.7575" transform="rotate(-0, 603.8975, 69.7575)">A(t)</text>
    </g>
    <g id="line2d_12">
     <path d="M 559.0975 87.6425 
L 575.0975 87.6425 
L 591.0975 87.6425 
" style="fill: none; stroke: #ff7f0e; stroke-width: 1.5; stroke-linecap: square"/>
    </g>
    <g id="text_9">
     <text style="font: 16px 'Arial'; text-anchor: start" x="603.8975" y="93.2425" transform="rotate(-0, 603.8975, 93.2425)">E(t)</text>
    </g>
    <g id="line2d_13">
     <path d="M 559.0975 111.1275 
L 575.0975 111.1275 
L 591.0975 111.1275 
" style="fill: none; stroke: #2ca02c; stroke-width: 1.5; stroke-linecap: square"/>
    </g>
    <g id="text_10">
     <text style="font: 16px 'Arial'; text-anchor: start" x="603.8975" y="116.7275" transform="rotate(-0, 603.8975, 116.7275)">T(t)</text>
    </g>
   </g>
  </g>
 </g>
 <defs>
  <clipPath id="p8f8c09d876">
   <rect x="90" y="43.2" width="558" height="271.8"/>
  </clipPath>
 </defs>
</svg>
