<?xml version="1.0" encoding="utf-8" standalone="no"?>
<!DOCTYPE svg PUBLIC "-//W3C//DTD SVG 1.1//EN"
  "http://www.w3.org/Graphics/SVG/1.1/DTD/svg11.dtd">
<svg xmlns:xlink="http://www.w3.org/1999/xlink" width="720pt" height="360pt" viewBox="0 0 720 360" xmlns="http://www.w3.org/2000/svg" version="1.1">
 <metadata>
  <rdf:RDF xmlns:dc="http://purl.org/dc/elements/1.1/" xmlns:cc="http://creativecommons.org/ns#" xmlns:rdf="http://www.w3.org/1999/02/22-rdf-syntax-ns#">
   <cc:Work>
    <dc:type rdf:resource="http://purl.org/dc/dcmitype/StillImage"/>
    <dc:date>2023-01-18T18:27:50.159203</dc:date>
    <dc:format>image/svg+xml</dc:format>
    <dc:creator>
     <cc:Agent>
      <dc:title>Matplotlib v3.5.2, https://matplotlib.org/</dc:title>
     </cc:Agent>
    </dc:creator>
   </cc:Work>
  </rdf:RDF>
 </metadata>
 <defs>
  <style type="text/css">*{stroke-linejoin: round; stroke-linecap: butt}</style>
 </defs>
 <g id="figure_1">
  <g id="patch_1">
   <path d="M 0 360 
L 720 360 
L 720 0 
L 0 0 
L 0 360 
z
" style="fill: none"/>
  </g>
  <g id="axes_1">
   <g id="patch_2">
    <path d="M 49.78 149.36 
L 690.095 149.36 
L 690.095 38.28 
L 49.78 38.28 
z
" style="fill: #ffffff"/>
   </g>
   <g id="matplotlib.axis_1">
    <g id="xtick_1">
     <g id="line2d_1">
      <defs>
       <path id="mdb31aeffcf" d="M 0 0 
L 0 3.5 
" style="stroke: #000000; stroke-width: 0.8"/>
      </defs>
      <g>
       <use xlink:href="#mdb31aeffcf" x="49.78" y="149.36" style="stroke: #000000; stroke-width: 0.8"/>
      </g>
     </g>
     <g id="text_1">
      <text style="font: 16px 'Arial'; text-anchor: middle" x="49.78" y="168.5175" transform="rotate(-0, 49.78, 168.5175)">0</text>
     </g>
    </g>
    <g id="xtick_2">
     <g id="line2d_2">
      <g>
       <use xlink:href="#mdb31aeffcf" x="263.218333" y="149.36" style="stroke: #000000; stroke-width: 0.8"/>
      </g>
     </g>
     <g id="text_2">
      <text style="font: 16px 'Arial'; text-anchor: middle" x="263.218333" y="168.5175" transform="rotate(-0, 263.218333, 168.5175)">0.1</text>
     </g>
    </g>
    <g id="xtick_3">
     <g id="line2d_3">
      <g>
       <use xlink:href="#mdb31aeffcf" x="476.656667" y="149.36" style="stroke: #000000; stroke-width: 0.8"/>
      </g>
     </g>
     <g id="text_3">
      <text style="font: 16px 'Arial'; text-anchor: middle" x="476.656667" y="168.5175" transform="rotate(-0, 476.656667, 168.5175)">0.2</text>
     </g>
    </g>
    <g id="xtick_4">
     <g id="line2d_4">
      <g>
       <use xlink:href="#mdb31aeffcf" x="690.095" y="149.36" style="stroke: #000000; stroke-width: 0.8"/>
      </g>
     </g>
     <g id="text_4">
      <text style="font: 16px 'Arial'; text-anchor: middle" x="690.095" y="168.5175" transform="rotate(-0, 690.095, 168.5175)">0.3</text>
     </g>
    </g>
   </g>
   <g id="matplotlib.axis_2">
    <g id="ytick_1">
     <g id="line2d_5">
      <defs>
       <path id="mb98adc2462" d="M 0 0 
L -3.5 0 
" style="stroke: #000000; stroke-width: 0.8"/>
      </defs>
      <g>
       <use xlink:href="#mb98adc2462" x="49.78" y="149.36" style="stroke: #000000; stroke-width: 0.8"/>
      </g>
     </g>
     <g id="text_5">
      <text style="font: 16px 'Arial'; text-anchor: end" x="42.78" y="155.43875" transform="rotate(-0, 42.78, 155.43875)">0.0</text>
     </g>
    </g>
    <g id="ytick_2">
     <g id="line2d_6">
      <g>
       <use xlink:href="#mb98adc2462" x="49.78" y="96.71545" style="stroke: #000000; stroke-width: 0.8"/>
      </g>
     </g>
     <g id="text_6">
      <text style="font: 16px 'Arial'; text-anchor: end" x="42.78" y="102.7942" transform="rotate(-0, 42.78, 102.7942)">0.5</text>
     </g>
    </g>
    <g id="ytick_3">
     <g id="line2d_7">
      <g>
       <use xlink:href="#mb98adc2462" x="49.78" y="44.0709" style="stroke: #000000; stroke-width: 0.8"/>
      </g>
     </g>
     <g id="text_7">
      <text style="font: 16px 'Arial'; text-anchor: end" x="42.78" y="50.14965" transform="rotate(-0, 42.78, 50.14965)">1.0</text>
     </g>
    </g>
   </g>
   <g id="line2d_8">
    <path d="M 49.78 44.0709 
L 687.960617 44.0709 
L 687.960617 44.0709 
" clip-path="url(#p8f63ec257b)" style="fill: none; stroke: #1f77b4; stroke-width: 1.5; stroke-linecap: square"/>
   </g>
   <g id="patch_3">
    <path d="M 49.78 149.36 
L 49.78 38.28 
" style="fill: none; stroke: #000000; stroke-width: 0.8; stroke-linejoin: miter; stroke-linecap: square"/>
   </g>
   <g id="patch_4">
    <path d="M 690.095 149.36 
L 690.095 38.28 
" style="fill: none; stroke: #000000; stroke-width: 0.8; stroke-linejoin: miter; stroke-linecap: square"/>
   </g>
   <g id="patch_5">
    <path d="M 49.78 149.36 
L 690.095 149.36 
" style="fill: none; stroke: #000000; stroke-width: 0.8; stroke-linejoin: miter; stroke-linecap: square"/>
   </g>
   <g id="patch_6">
    <path d="M 49.78 38.28 
L 690.095 38.28 
" style="fill: none; stroke: #000000; stroke-width: 0.8; stroke-linejoin: miter; stroke-linecap: square"/>
   </g>
   <g id="text_8">
    <text style="font: 19.2px 'Arial'; text-anchor: middle" x="369.9375" y="32.28" transform="rotate(-0, 369.9375, 32.28)">input</text>
   </g>
  </g>
  <g id="axes_2">
   <g id="patch_7">
    <path d="M 49.78 320.72 
L 690.095 320.72 
L 690.095 209.64 
L 49.78 209.64 
z
" style="fill: #ffffff"/>
   </g>
   <g id="matplotlib.axis_3">
    <g id="xtick_5">
     <g id="line2d_9">
      <g>
       <use xlink:href="#mdb31aeffcf" x="49.78" y="320.72" style="stroke: #000000; stroke-width: 0.8"/>
      </g>
     </g>
     <g id="text_9">
      <text style="font: 16px 'Arial'; text-anchor: middle" x="49.78" y="339.8775" transform="rotate(-0, 49.78, 339.8775)">0</text>
     </g>
    </g>
    <g id="xtick_6">
     <g id="line2d_10">
      <g>
       <use xlink:href="#mdb31aeffcf" x="263.218333" y="320.72" style="stroke: #000000; stroke-width: 0.8"/>
      </g>
     </g>
     <g id="text_10">
      <text style="font: 16px 'Arial'; text-anchor: middle" x="263.218333" y="339.8775" transform="rotate(-0, 263.218333, 339.8775)">0.1</text>
     </g>
    </g>
    <g id="xtick_7">
     <g id="line2d_11">
      <g>
       <use xlink:href="#mdb31aeffcf" x="476.656667" y="320.72" style="stroke: #000000; stroke-width: 0.8"/>
      </g>
     </g>
     <g id="text_11">
      <text style="font: 16px 'Arial'; text-anchor: middle" x="476.656667" y="339.8775" transform="rotate(-0, 476.656667, 339.8775)">0.2</text>
     </g>
    </g>
    <g id="xtick_8">
     <g id="line2d_12">
      <g>
       <use xlink:href="#mdb31aeffcf" x="690.095" y="320.72" style="stroke: #000000; stroke-width: 0.8"/>
      </g>
     </g>
     <g id="text_12">
      <text style="font: 16px 'Arial'; text-anchor: middle" x="690.095" y="339.8775" transform="rotate(-0, 690.095, 339.8775)">0.3</text>
     </g>
    </g>
   </g>
   <g id="matplotlib.axis_4">
    <g id="ytick_4">
     <g id="line2d_13">
      <g>
       <use xlink:href="#mb98adc2462" x="49.78" y="315.670909" style="stroke: #000000; stroke-width: 0.8"/>
      </g>
     </g>
     <g id="text_13">
      <text style="font: 16px 'Arial'; text-anchor: end" x="42.78" y="321.749659" transform="rotate(-0, 42.78, 321.749659)">0.0</text>
     </g>
    </g>
    <g id="ytick_5">
     <g id="line2d_14">
      <g>
       <use xlink:href="#mb98adc2462" x="49.78" y="263.135338" style="stroke: #000000; stroke-width: 0.8"/>
      </g>
     </g>
     <g id="text_14">
      <text style="font: 16px 'Arial'; text-anchor: end" x="42.78" y="269.214088" transform="rotate(-0, 42.78, 269.214088)">0.5</text>
     </g>
    </g>
    <g id="ytick_6">
     <g id="line2d_15">
      <g>
       <use xlink:href="#mb98adc2462" x="49.78" y="210.599767" style="stroke: #000000; stroke-width: 0.8"/>
      </g>
     </g>
     <g id="text_15">
      <text style="font: 16px 'Arial'; text-anchor: end" x="42.78" y="216.678517" transform="rotate(-0, 42.78, 216.678517)">1.0</text>
     </g>
    </g>
   </g>
   <g id="line2d_16">
    <path d="M 49.78 315.670909 
L 51.914383 285.136355 
L 54.048767 289.528236 
L 56.18315 293.53005 
L 58.317533 296.995546 
L 60.451917 299.896343 
L 62.5863 302.274459 
L 64.720683 304.202546 
L 66.855067 305.759022 
L 68.98945 307.015829 
L 71.123833 308.033905 
L 73.258217 308.862722 
L 75.3926 309.54152 
L 79.661367 310.56535 
L 83.930133 311.279 
L 88.1989 311.788715 
L 94.60205 312.308865 
L 103.139583 312.730876 
L 113.8115 313.024818 
L 130.886567 313.244645 
L 160.767933 313.364203 
L 250.412033 313.397941 
L 690.095 313.39834 
L 690.095 313.39834 
" clip-path="url(#p9e8222ba98)" style="fill: none; stroke: #1f77b4; stroke-width: 1.5; stroke-linecap: square"/>
   </g>
   <g id="line2d_17">
    <path d="M 49.78 315.670909 
L 51.914383 285.814546 
L 54.048767 290.620235 
L 56.18315 294.837111 
L 58.317533 298.383107 
L 60.451917 301.281676 
L 62.5863 303.611652 
L 64.720683 305.469506 
L 66.855067 306.948001 
L 68.98945 308.127123 
L 71.123833 309.071961 
L 73.258217 309.833843 
L 77.526983 310.958801 
L 81.79575 311.722491 
L 86.064517 312.255772 
L 92.467667 312.787902 
L 101.0052 313.209428 
L 111.677117 313.496937 
L 128.752183 313.708339 
L 160.767933 313.825178 
L 261.08395 313.853959 
L 690.095 313.854157 
L 690.095 313.854157 
" clip-path="url(#p9e8222ba98)" style="fill: none; stroke: #ff7f0e; stroke-width: 1.5; stroke-linecap: square"/>
   </g>
   <g id="line2d_18">
    <path d="M 49.78 315.670909 
L 51.914383 270.990691 
L 54.048767 261.793117 
L 56.18315 253.574426 
L 58.317533 246.562932 
L 60.451917 240.763565 
L 62.5863 236.055465 
L 64.720683 232.269533 
L 66.855067 229.234559 
L 68.98945 226.798627 
L 71.123833 224.835712 
L 73.258217 223.245023 
L 75.3926 221.947493 
L 77.526983 220.881727 
L 79.661367 220.000172 
L 81.79575 219.265974 
L 86.064517 218.131305 
L 90.333283 217.31509 
L 94.60205 216.715641 
L 101.0052 216.086293 
L 109.542733 215.559698 
L 120.21465 215.182694 
L 135.155333 214.917843 
L 158.63355 214.759315 
L 209.85875 214.694596 
L 660.213633 214.689091 
L 690.095 214.689091 
L 690.095 214.689091 
" clip-path="url(#p9e8222ba98)" style="fill: none; stroke: #2ca02c; stroke-width: 1.5; stroke-linecap: square"/>
   </g>
   <g id="patch_8">
    <path d="M 49.78 320.72 
L 49.78 209.64 
" style="fill: none; stroke: #000000; stroke-width: 0.8; stroke-linejoin: miter; stroke-linecap: square"/>
   </g>
   <g id="patch_9">
    <path d="M 690.095 320.72 
L 690.095 209.64 
" style="fill: none; stroke: #000000; stroke-width: 0.8; stroke-linejoin: miter; stroke-linecap: square"/>
   </g>
   <g id="patch_10">
    <path d="M 49.78 320.72 
L 690.095 320.72 
" style="fill: none; stroke: #000000; stroke-width: 0.8; stroke-linejoin: miter; stroke-linecap: square"/>
   </g>
   <g id="patch_11">
    <path d="M 49.78 209.64 
L 690.095 209.64 
" style="fill: none; stroke: #000000; stroke-width: 0.8; stroke-linejoin: miter; stroke-linecap: square"/>
   </g>
   <g id="text_16">
    <text style="font: 19.2px 'Arial'; text-anchor: middle" x="369.9375" y="203.64" transform="rotate(-0, 369.9375, 203.64)">output</text>
   </g>
   <g id="legend_1">
    <g id="patch_12">
     <path d="M 597.9925 292.895 
L 678.895 292.895 
Q 682.095 292.895 682.095 289.695 
L 682.095 220.84 
Q 682.095 217.64 678.895 217.64 
L 597.9925 217.64 
Q 594.7925 217.64 594.7925 220.84 
L 594.7925 289.695 
Q 594.7925 292.895 597.9925 292.895 
z
" style="fill: #ffffff; opacity: 0.8; stroke: #cccccc; stroke-linejoin: miter"/>
    </g>
    <g id="line2d_19">
     <path d="M 601.1925 230.5975 
L 617.1925 230.5975 
L 633.1925 230.5975 
" style="fill: none; stroke: #1f77b4; stroke-width: 1.5; stroke-linecap: square"/>
    </g>
    <g id="text_17">
     <text style="font: 16px 'Arial'; text-anchor: start" x="645.9925" y="236.1975" transform="rotate(-0, 645.9925, 236.1975)">A(t)</text>
    </g>
    <g id="line2d_20">
     <path d="M 601.1925 254.0825 
L 617.1925 254.0825 
L 633.1925 254.0825 
" style="fill: none; stroke: #ff7f0e; stroke-width: 1.5; stroke-linecap: square"/>
    </g>
    <g id="text_18">
     <text style="font: 16px 'Arial'; text-anchor: start" x="645.9925" y="259.6825" transform="rotate(-0, 645.9925, 259.6825)">E(t)</text>
    </g>
    <g id="line2d_21">
     <path d="M 601.1925 277.5675 
L 617.1925 277.5675 
L 633.1925 277.5675 
" style="fill: none; stroke: #2ca02c; stroke-width: 1.5; stroke-linecap: square"/>
    </g>
    <g id="text_19">
     <text style="font: 16px 'Arial'; text-anchor: start" x="645.9925" y="283.1675" transform="rotate(-0, 645.9925, 283.1675)">T(t)</text>
    </g>
   </g>
  </g>
 </g>
 <defs>
  <clipPath id="p8f63ec257b">
   <rect x="49.78" y="38.28" width="640.315" height="111.08"/>
  </clipPath>
  <clipPath id="p9e8222ba98">
   <rect x="49.78" y="209.64" width="640.315" height="111.08"/>
  </clipPath>
 </defs>
</svg>
