<?xml version="1.0" encoding="UTF-8" standalone="no"?>
<svg
   width="1224pt"
   height="432pt"
   viewBox="0 0 1224 432"
   version="1.1"
   id="svg29375"
   sodipodi:docname="TE_temp_code_OJ_grant.svg"
   inkscape:version="1.1.2 (b8e25be833, 2022-02-05)"
   xmlns:inkscape="http://www.inkscape.org/namespaces/inkscape"
   xmlns:sodipodi="http://sodipodi.sourceforge.net/DTD/sodipodi-0.dtd"
   xmlns:xlink="http://www.w3.org/1999/xlink"
   xmlns="http://www.w3.org/2000/svg"
   xmlns:svg="http://www.w3.org/2000/svg"
   xmlns:rdf="http://www.w3.org/1999/02/22-rdf-syntax-ns#"
   xmlns:cc="http://creativecommons.org/ns#"
   xmlns:dc="http://purl.org/dc/elements/1.1/">
  <sodipodi:namedview
     id="namedview29377"
     pagecolor="#ffffff"
     bordercolor="#666666"
     borderopacity="1.0"
     inkscape:pageshadow="2"
     inkscape:pageopacity="0.0"
     inkscape:pagecheckerboard="0"
     inkscape:document-units="pt"
     showgrid="false"
     inkscape:zoom="0.45802696"
     inkscape:cx="1047.9732"
     inkscape:cy="93.880936"
     inkscape:window-width="1920"
     inkscape:window-height="1046"
     inkscape:window-x="-11"
     inkscape:window-y="-11"
     inkscape:window-maximized="1"
     inkscape:current-layer="svg29375" />
  <metadata
     id="metadata29224">
    <rdf:RDF>
      <cc:Work>
        <dc:type
           rdf:resource="http://purl.org/dc/dcmitype/StillImage" />
        <dc:date>2022-11-12T13:26:59.941702</dc:date>
        <dc:format>image/svg+xml</dc:format>
        <dc:creator>
          <cc:Agent>
            <dc:title>Matplotlib v3.5.2, https://matplotlib.org/</dc:title>
          </cc:Agent>
        </dc:creator>
      </cc:Work>
    </rdf:RDF>
  </metadata>
  <defs
     id="defs29228">
    <style
       type="text/css"
       id="style29226">*{stroke-linejoin: round; stroke-linecap: butt}</style>
  </defs>
  <path
     d="M 0,432 H 1224 V 0 H 0 Z"
     style="fill:none"
     id="path29230" />
  <g
     id="xtick_1">
    <g
       id="line2d_1">
      <defs
         id="defs29237">
        <path
           id="mb41758552e"
           d="M 0,0 V 3.5"
           style="stroke:#000000;stroke-width:0.8" />
      </defs>
      <g
         id="g29241">
        <use
           xlink:href="#mb41758552e"
           x="153"
           y="378"
           style="stroke:#000000;stroke-width:0.8"
           id="use29239"
           width="100%"
           height="100%" />
      </g>
    </g>
    <g
       id="text_1">
      <text
         style="font-style:normal;font-variant:normal;font-weight:normal;font-stretch:normal;font-size:20px;line-height:normal;font-family:Helvetica;text-anchor:middle"
         x="153"
         y="400.19687"
         id="text29244">0.0</text>
    </g>
  </g>
  <g
     id="xtick_2">
    <g
       id="line2d_2">
      <g
         id="g29250">
        <use
           xlink:href="#mb41758552e"
           x="390.14999"
           y="378"
           style="stroke:#000000;stroke-width:0.8"
           id="use29248"
           width="100%"
           height="100%" />
      </g>
    </g>
    <g
       id="text_2">
      <text
         style="font-style:normal;font-variant:normal;font-weight:normal;font-stretch:normal;font-size:20px;line-height:normal;font-family:Helvetica;text-anchor:middle"
         x="390.14999"
         y="400.19687"
         id="text29253">0.1</text>
    </g>
  </g>
  <g
     id="xtick_3">
    <g
       id="line2d_3">
      <g
         id="g29259">
        <use
           xlink:href="#mb41758552e"
           x="627.29999"
           y="378"
           style="stroke:#000000;stroke-width:0.8"
           id="use29257"
           width="100%"
           height="100%" />
      </g>
    </g>
    <g
       id="text_3">
      <text
         style="font-style:normal;font-variant:normal;font-weight:normal;font-stretch:normal;font-size:20px;line-height:normal;font-family:Helvetica;text-anchor:middle"
         x="627.29999"
         y="400.19687"
         id="text29262">0.2</text>
    </g>
  </g>
  <g
     id="xtick_4">
    <g
       id="line2d_4">
      <g
         id="g29268">
        <use
           xlink:href="#mb41758552e"
           x="864.45001"
           y="378"
           style="stroke:#000000;stroke-width:0.8"
           id="use29266"
           width="100%"
           height="100%" />
      </g>
    </g>
    <g
       id="text_4">
      <text
         style="font-style:normal;font-variant:normal;font-weight:normal;font-stretch:normal;font-size:20px;line-height:normal;font-family:Helvetica;text-anchor:middle"
         x="864.45001"
         y="400.19687"
         id="text29271">0.3</text>
    </g>
  </g>
  <g
     id="xtick_5">
    <g
       id="line2d_5">
      <g
         id="g29277">
        <use
           xlink:href="#mb41758552e"
           x="1101.6"
           y="378"
           style="stroke:#000000;stroke-width:0.8"
           id="use29275"
           width="100%"
           height="100%" />
      </g>
    </g>
    <g
       id="text_5">
      <text
         style="font-style:normal;font-variant:normal;font-weight:normal;font-stretch:normal;font-size:20px;line-height:normal;font-family:Helvetica;text-anchor:middle"
         x="1101.6"
         y="400.19687"
         id="text29280">0.4</text>
    </g>
  </g>
  <g
     id="text_6">
    <text
       style="font-style:normal;font-variant:normal;font-weight:normal;font-stretch:normal;font-size:20px;line-height:normal;font-family:Helvetica;text-anchor:middle"
       x="627.29999"
       y="423.55313"
       id="text29284">time (s)</text>
  </g>
  <g
     id="ytick_1">
    <g
       id="line2d_6">
      <defs
         id="defs29289">
        <path
           id="m31ad638dd4"
           d="M 0,0 H -3.5"
           style="stroke:#000000;stroke-width:0.8" />
      </defs>
      <g
         id="g29293">
        <use
           xlink:href="#m31ad638dd4"
           x="153"
           y="363.17453"
           style="stroke:#000000;stroke-width:0.8"
           id="use29291"
           width="100%"
           height="100%" />
      </g>
    </g>
    <g
       id="text_7">
      <text
         style="font-style:normal;font-variant:normal;font-weight:normal;font-stretch:normal;font-size:20px;line-height:normal;font-family:Helvetica;text-anchor:end"
         x="146"
         y="370.77298"
         id="text29296">0.0</text>
    </g>
  </g>
  <g
     id="ytick_2">
    <g
       id="line2d_7">
      <g
         id="g29302">
        <use
           xlink:href="#m31ad638dd4"
           x="153"
           y="214.91974"
           style="stroke:#000000;stroke-width:0.8"
           id="use29300"
           width="100%"
           height="100%" />
      </g>
    </g>
    <g
       id="text_8">
      <text
         style="font-style:normal;font-variant:normal;font-weight:normal;font-stretch:normal;font-size:20px;line-height:normal;font-family:Helvetica;text-anchor:end"
         x="146"
         y="222.51819"
         id="text29305">0.5</text>
    </g>
  </g>
  <g
     id="ytick_3">
    <g
       id="line2d_8">
      <g
         id="g29311">
        <use
           xlink:href="#m31ad638dd4"
           x="153"
           y="66.664948"
           style="stroke:#000000;stroke-width:0.8"
           id="use29309"
           width="100%"
           height="100%" />
      </g>
    </g>
    <g
       id="text_9">
      <text
         style="font-style:normal;font-variant:normal;font-weight:normal;font-stretch:normal;font-size:20px;line-height:normal;font-family:Helvetica;text-anchor:end"
         x="146"
         y="74.263382"
         id="text29314">1.0</text>
    </g>
  </g>
  <g
     id="text_10">
    <text
       style="font-style:normal;font-variant:normal;font-weight:normal;font-stretch:normal;font-size:20px;line-height:normal;font-family:Helvetica;text-anchor:middle"
       x="106.03438"
       y="214.92"
       transform="rotate(-90,106.03437,214.92)"
       id="text29318">activation</text>
  </g>
  <path
     d="m 153,363.17455 2.37546,-98.83654 h 116.3975 l 2.37545,4.36095 4.75092,7.48383 4.75092,24.24126 2.37546,10.50242 2.37546,8.72509 2.37546,7.09871 2.37546,5.70697 2.37546,5.39445 2.37545,4.6487 2.37546,1.01846 2.37546,-3.86645 2.37546,-2.72988 2.37546,-0.93606 2.37546,-0.0217 2.37546,-1.25341 2.37546,-2.56041 4.75092,-3.50654 2.37546,-1.06022 2.37545,-1.349 2.37546,-4.09476 2.37546,-5.60352 2.37546,-7.08575 2.37546,-5.14753 2.37546,-3.51192 2.37546,-3.24798 2.37546,-3.01845 2.37546,-2.79534 2.37546,-2.56937 2.37546,-2.35076 2.37545,-2.14494 2.37546,-1.95309 2.37546,-1.77537 2.37546,-1.6115 2.37546,-1.46096 4.75092,-2.52043 4.75092,-2.06082 4.75092,-1.68109 4.75091,-1.36889 4.75092,-1.11325 4.75092,-0.90446 7.12638,-1.04776 7.12637,-0.76555 7.12638,-0.55888 9.50184,-0.51751 11.87729,-0.40452 16.62822,-0.30427 23.75459,-0.18155 30.88097,-0.0723 2.37546,2.97756 2.37546,3.99849 2.37546,3.51801 2.37545,3.27627 2.37546,13.09893 2.37546,11.76219 2.37546,10.03739 2.37546,8.31329 2.37546,6.75343 2.37546,5.53624 2.37546,4.34883 2.37546,1.76032 2.37546,0.84084 2.37546,-2.59113 2.37545,-1.45411 2.37546,1.11682 2.37546,2.04504 2.37546,-3.46262 2.37546,-5.16223 2.37546,-5.68886 2.37546,-6.09762 2.37546,-7.4658 2.37546,-1.03571 2.37546,-0.52107 2.37546,-1.00009 2.37545,-2.36274 2.37546,-2.0919 7.12638,-9.32697 2.37546,-2.81852 2.37546,-2.59048 2.37546,-2.3799 2.37546,-2.18159 2.37546,-1.99509 2.37546,-1.82075 2.37545,-1.65865 2.37546,-1.50868 4.75092,-2.61384 4.75092,-2.14772 4.75092,-1.759 4.75092,-1.43702 4.75091,-1.17176 4.75092,-0.95405 4.75092,-0.7759 7.12638,-0.89974 7.12637,-0.65805 9.50184,-0.61021 11.8773,-0.47758 14.25275,-0.32293 21.37913,-0.22437 35.63189,-0.11253 2.37546,-0.003 2.37546,0.83633 2.37546,4.25654 2.37546,3.74374 2.37546,3.29543 2.37545,2.90652 4.75092,22.95029 2.37546,10.0607 2.37546,8.37837 2.37546,6.83114 2.37546,3.70258 2.37546,4.69302 2.37546,2.46628 2.37546,0.90266 2.37546,-2.99994 2.37545,-1.57496 2.37546,-0.44526 2.37546,2.00185 2.37546,-0.0515 2.37546,-0.70478 4.75092,-5.52053 2.37546,-3.19373 2.37546,-7.23349 2.37546,-9.62056 4.75091,-16.39025 2.37546,-2.47084 4.75092,-4.4487 2.37546,-2.69078 2.37546,-1.88703 2.37546,-1.50427 2.37546,-0.7665 2.37546,-0.058 2.37546,-0.46952 7.12637,-3.85797 4.75092,-2.08269 4.75092,-1.70149 4.75092,-1.38724 4.75092,-1.12933 4.75092,-0.91829 7.12637,-1.06462 7.12638,-0.77845 7.12638,-0.56863 9.50183,-0.52674 11.8773,-0.41191 16.62821,-0.30991 23.75459,-0.18496 40.38281,-0.0716 2.37546,4.34237 2.37546,3.83386 2.37545,3.37414 2.37546,3.6277 2.37546,12.85054 2.37546,11.55806 2.37546,9.85242 2.37546,8.15544 2.37546,6.62346 2.37546,3.72391 2.37546,4.40749 2.3755,2.05496 2.3754,0.8539 2.3755,-3.23634 2.3754,-1.55804 2.3755,-0.41507 2.3755,2.15049 2.3754,0.83566 2.3755,-1.15694 4.7509,-5.34534 2.3754,-4.01624 2.3755,-8.74089 2.3755,-7.43015 2.3754,-3.49126 2.3755,-0.58965 2.3754,-0.84343 2.3755,-3.76282 2.3755,-3.45958 2.3754,-3.19932 2.3755,-2.83535 2.3754,-2.34144 2.3755,-1.54732 2.3755,-0.93973 2.3754,-1.40756 4.7509,-3.86716 2.3755,-1.72316 2.3755,-1.56843 2.3754,-1.42555 4.7509,-2.46751 4.7509,-2.02551 4.751,-1.65766 4.7509,-1.35346 4.7509,-1.10316 4.7509,-0.89787 7.1264,-1.042 7.1264,-0.76259 7.1264,-0.5574 9.5018,-0.51664 11.8773,-0.40419 16.6282,-0.30423 23.7546,-0.18159 28.5055,-0.0697 2.3755,0.10623 2.3754,4.34334 2.3755,3.82094 2.3754,3.36287 2.3755,3.66038 3.0434,16.21667 v 0"
     clip-path="url(#p8a11df955e)"
     style="fill:none;stroke:#000000;stroke-width:2.26771654;stroke-linecap:square;stroke-opacity:1;stroke-miterlimit:4;stroke-dasharray:none"
     id="path29322" />
  <path
     d="m 153,363.17455 2.37546,-98.83654 h 116.3975 l 2.37545,-2.14002 2.37546,-1.87959 2.37546,-1.34989 2.37546,9.4597 2.37546,11.72513 2.37546,10.96173 2.37546,9.74623 2.37546,8.3787 2.37546,7.05062 2.37546,2.78914 2.37545,-3.36586 2.37546,-8.33261 2.37546,-26.8566 2.37546,-29.17626 2.37546,-26.48644 2.37546,-23.92851 2.37546,-14.46428 2.37546,-1.19698 2.37546,5.92476 2.37546,4.66443 2.37546,0.7064 2.37545,-0.34702 2.37546,1.37522 2.37546,2.79428 4.75092,13.30621 2.37546,5.15442 2.37546,4.65375 2.37546,4.18434 2.37546,3.75676 2.37546,3.37368 2.37546,3.02866 2.37545,2.71751 2.37546,2.43738 2.37546,2.18562 2.37546,1.95968 2.37546,1.75709 2.37546,1.57554 2.37546,1.4129 2.37546,1.26726 4.75092,2.15676 4.75092,1.73687 4.75091,1.39974 4.75092,1.12886 4.75092,0.91098 4.75092,0.73556 7.12637,0.84707 7.12638,0.61555 9.50184,0.56784 11.87729,0.44246 14.25276,0.29821 21.37913,0.20672 35.63189,0.10352 2.37546,-1.46017 2.37546,-1.95943 2.37546,-1.7219 2.37545,-1.31047 4.75092,23.63524 2.37546,10.91651 2.37546,9.62351 2.37546,8.22602 2.37546,5.08704 2.37546,-2.6231 2.37546,-9.25838 2.37546,-12.64668 7.12637,-81.26709 2.37546,-23.70114 2.37546,-6.72346 2.37546,6.87407 2.37546,4.90775 2.37546,4.19752 2.37546,7.44375 7.12638,19.30455 2.37545,4.36239 2.37546,2.70772 2.37546,3.20212 4.75092,5.7504 2.37546,2.6158 2.37546,2.3609 2.37546,2.13248 2.37546,1.92528 2.37546,1.73697 2.37546,1.56613 2.37545,1.41141 2.37546,1.27147 4.75092,2.17605 4.75092,1.7634 4.75092,1.42825 4.75092,1.15645 4.75091,0.93622 4.75092,0.75787 7.12638,0.8749 7.12638,0.63719 9.50183,0.58887 11.8773,0.45954 14.25275,0.31007 21.37913,0.21512 38.00735,0.11058 4.75092,0.005 2.37546,-0.4099 2.37546,-2.08774 2.37546,-1.83399 2.37546,-1.61253 2.37545,-1.41635 2.37546,9.80471 2.37546,12.16701 2.37546,11.28767 2.37546,9.98188 2.37546,8.548 2.37546,7.44537 2.37546,-0.95166 2.37546,-6.26861 2.37546,-12.25842 7.12637,-79.40292 2.37546,-25.67541 2.37546,-13.0957 2.37546,-2.00294 2.37546,2.16311 2.37546,1.1577 2.37546,2.10166 2.37546,7.62251 2.37546,13.54806 2.37546,11.17072 2.37545,9.09766 2.37546,3.85793 2.37546,4.34716 2.37546,5.13989 2.37546,3.62332 2.37546,2.49932 2.37546,2.07861 2.37546,1.54594 4.75092,2.21719 4.75091,2.94908 2.37546,1.28705 4.75092,2.19293 4.75092,1.76807 4.75092,1.42626 4.75092,1.15109 4.75092,0.92949 4.75091,0.75085 7.12638,0.86507 7.12638,0.6289 9.50183,0.58034 11.8773,0.45232 14.25275,0.30492 21.37914,0.21142 38.00734,0.10865 9.50184,0.003 2.37546,-2.13025 2.37546,-1.87846 2.37545,-1.65129 2.37546,-0.68486 4.75092,23.7942 2.37546,10.934 2.37546,9.61005 2.37546,8.19812 2.37546,6.81697 2.37546,-0.48698 2.3755,-7.48151 2.3754,-12.40192 4.7509,-54.32763 4.751,-51.46034 2.3754,-16.02119 2.3755,-1.81123 2.3754,2.90224 2.3755,1.48644 2.3754,3.19193 2.3755,9.33996 2.3755,14.36369 2.3754,10.60918 2.3755,7.37945 2.3754,3.57645 2.3755,4.1535 2.3755,3.27431 2.3754,2.9882 2.3755,2.72779 2.3754,2.35759 2.3755,1.81413 2.3755,1.38554 2.3754,1.5335 4.7509,3.35199 2.3755,1.45376 2.3755,1.31014 4.7509,2.24319 4.7509,1.81864 4.7509,1.47351 4.7509,1.19341 4.7509,0.96633 4.751,0.78236 7.1263,0.9033 7.1264,0.65796 9.5019,0.60812 11.8772,0.47458 14.2528,0.32027 21.3791,0.22217 38.0074,0.11423 7.1264,-0.0465 2.3754,-2.13076 2.3755,-1.87217 2.3754,-1.6458 2.3755,-0.63314 3.0434,15.45575 v 0"
     clip-path="url(#p8a11df955e)"
     style="fill:none;stroke:#297f8e;stroke-width:2.26771654;stroke-linecap:square;stroke-opacity:1;stroke-miterlimit:4;stroke-dasharray:none"
     id="path29325" />
  <path
     d="m 153,363.17455 2.37546,-98.83654 h 116.3975 l 2.37545,-2.22092 2.37546,-1.95531 2.37546,-2.29904 2.37546,-21.45364 2.37546,-23.97244 2.37546,-21.46416 2.37546,-18.47132 2.37546,-15.47742 2.37546,-12.75756 2.37546,-8.18361 2.37545,-1.28285 2.37546,7.31418 4.75092,62.62917 2.37546,27.4225 2.37546,23.95019 2.37546,15.71771 2.37546,3.75739 2.37546,-4.18643 2.37546,-2.89624 2.37546,0.35383 2.37545,1.69602 4.75092,5.52879 2.37546,0.31428 2.37546,-1.38722 2.37546,-1.64248 2.37546,-1.40579 2.37546,-1.16588 2.37546,-0.96143 2.37546,-0.80431 4.75091,-1.25047 4.75092,-0.89453 4.75092,-0.64432 7.12638,-0.65268 7.12638,-0.41275 9.50183,-0.33386 14.25276,-0.25906 23.75459,-0.16733 52.2601,-0.0733 28.50551,-0.006 2.37546,-1.51739 2.37546,-2.03907 2.37546,-1.79612 2.37545,-1.96578 2.37546,-24.91174 2.37546,-23.58463 2.37546,-20.95389 2.37546,-17.93679 2.37546,-14.97947 2.37546,-10.62328 2.37546,-1.72573 2.37546,7.49806 2.37546,11.80585 4.75091,57.89399 2.37546,26.30152 2.37546,21.6561 2.37546,10.18608 2.37546,-1.71183 2.37546,0.78109 2.37546,1.9001 2.37546,0.0221 2.37546,-5.37577 4.75092,-11.37192 2.37545,-1.99965 2.37546,-0.6158 2.37546,-0.0588 4.75092,0.43319 7.12638,0.67972 16.62821,1.6913 9.50184,0.71506 9.50183,0.51613 11.8773,0.42879 16.62821,0.33707 23.75459,0.20703 42.75827,0.0955 23.75459,0.011 2.37546,-0.42644 2.37546,-2.16877 2.37546,-1.90975 2.37546,-1.68291 2.37545,-1.49019 2.37546,-21.05203 2.37546,-23.86996 2.37546,-21.34836 2.37546,-18.36022 2.37546,-15.37918 2.37546,-11.14796 2.37546,-3.74136 2.37546,3.80234 2.37546,11.35576 4.75091,58.22749 2.37546,26.19559 2.37546,23.67356 2.37546,13.14724 2.37546,2.70771 2.37546,0.60882 2.37546,1.59088 2.37546,1.09208 2.37546,-0.38903 2.37546,-3.92749 2.37546,-2.86818 2.37545,-1.00995 2.37546,-1.38706 2.37546,-2.13733 2.37546,-2.90105 2.37546,-0.93255 4.75092,-1.18661 2.37546,-0.77944 2.37546,-0.99268 2.37546,-0.69704 4.75091,-0.29936 9.50184,-0.22662 16.62822,-0.10097 76.01469,0.0146 47.50918,-0.003 2.37546,-2.21212 2.37546,-1.9554 2.37545,-1.72287 2.37546,-2.94283 2.37546,-24.75187 2.37546,-23.45094 2.37546,-20.7864 2.37546,-17.76548 2.37546,-14.8216 2.37546,-10.54088 2.37546,-3.92051 2.3755,5.42655 2.3754,11.54801 2.3755,30.52182 2.3754,28.60023 2.3755,26.17758 2.3755,23.54733 2.3754,15.18551 2.3755,2.96819 2.3754,-0.26297 2.3755,1.21961 2.3754,0.82432 2.3755,-0.59906 7.1264,-20.84128 2.3754,-2.73299 2.3755,-0.39072 7.1264,0.50397 2.3754,-0.0162 2.3755,-0.26682 2.3755,-0.4458 2.3754,-0.12594 23.7546,2.29668 9.5018,0.56066 11.8773,0.46555 14.2528,0.32798 21.3791,0.23407 35.6319,0.11931 38.0074,-0.0302 2.3754,-2.21258 2.3755,-1.94877 2.3754,-1.71707 2.3755,-3.02723 3.0434,-31.67242 v 0"
     clip-path="url(#p8a11df955e)"
     style="fill:none;stroke:#8b3067;stroke-width:2.26771654;stroke-linecap:square;stroke-opacity:1;stroke-miterlimit:4;stroke-dasharray:none"
     id="path29328" />
  <path
     d="m 153,214.91974 9.50184,-36.92971 4.75091,-17.73326 4.75092,-16.86832 4.75092,-15.73645 2.37546,-7.36516 2.37546,-6.99044 2.37546,-6.58804 2.37546,-6.15956 2.37546,-5.70667 2.37546,-5.2312 2.37545,-4.735011 2.37546,-4.220073 2.37546,-3.688425 2.37546,-3.142171 2.37546,-2.583475 2.37546,-2.01455 2.37546,-1.437647 2.37546,-0.855052 2.37546,-0.269071 2.37546,0.317975 2.37546,0.903763 2.37545,1.485972 2.37546,2.062296 2.37546,2.630455 2.37546,3.188198 2.37546,3.733316 2.37546,4.263651 2.37546,4.777104 2.37546,5.27164 2.37546,5.745305 2.37546,6.19621 2.37546,6.62259 2.37546,7.02275 4.75091,15.13324 4.75092,16.3817 4.75092,17.37093 7.12638,27.30674 14.25275,55.52271 4.75092,17.70274 4.75092,16.82637 4.75092,15.68376 2.37545,7.33503 2.37546,6.95794 2.37546,6.5533 2.37546,6.12272 2.37546,5.66789 2.37546,5.19062 2.37546,4.69279 2.37546,4.17637 2.37546,3.64344 2.37546,3.09605 2.37546,2.53643 2.37545,1.96675 2.37546,1.38928 2.37546,0.80632 2.37546,0.22016 2.37546,-0.36687 2.37546,-0.95245 2.37546,-1.53426 2.37546,-2.10998 2.37546,-2.67737 2.37546,-3.23413 2.37546,-3.77811 2.37545,-4.30711 2.37546,-4.81906 2.37546,-5.31194 2.37546,-5.78377 2.37546,-6.23271 2.37546,-6.65696 2.37546,-7.05486 4.75092,-15.19019 4.75092,-16.42821 4.75091,-17.40628 7.12638,-27.33765 14.25276,-55.50206 4.75091,-17.67173 4.75092,-16.78397 4.75092,-15.63062 2.37546,-7.3047 2.37546,-6.92525 2.37546,-6.51839 2.37546,-6.085721 2.37546,-5.628948 2.37545,-5.149888 2.37546,-4.650436 2.37546,-4.132569 2.37546,-3.598339 2.37546,-3.04986 2.37546,-2.489305 2.37546,-1.918892 2.37546,-1.340881 2.37546,-0.757561 2.37546,-0.171241 2.37546,0.415757 2.37546,1.001108 2.37545,1.582497 2.37546,2.157617 2.37546,2.724196 2.37546,3.279986 2.37546,3.82279 2.37546,4.350454 2.37546,4.860895 2.37546,5.352085 2.37546,5.822086 2.37546,6.26903 2.37546,6.69115 2.37545,7.08677 4.75092,15.24673 4.75092,16.47427 4.75092,17.44115 7.12638,27.3678 14.25275,55.47988 4.75092,17.64025 4.75092,16.7411 4.75092,15.57705 2.37546,7.27416 2.37545,6.89238 2.37546,6.48329 2.37546,6.04856 2.37546,5.58985 2.37546,5.10902 2.37546,4.60795 2.37546,4.08865 2.37546,3.55315 2.37546,3.00357 2.37546,2.44212 2.37546,1.87098 2.37545,1.29245 2.37546,0.70878 2.37546,0.12232 2.37546,-0.46463 2.37546,-1.04974 2.37546,-1.6307 2.37546,-2.20519 2.37546,-2.77095 2.37546,-3.32575 2.37546,-3.86737 2.37546,-4.39367 2.37545,-4.90259 2.37546,-5.39209 2.37546,-5.86024 2.37546,-6.30517 2.37546,-6.72516 2.37546,-7.11849 4.75092,-15.30284 4.75092,-16.51989 4.75091,-17.47553 7.12638,-27.3972 14.25276,-55.45618 4.75091,-17.60827 4.75092,-16.69778 4.75092,-15.52306 2.37546,-7.24342 2.37546,-6.85931 2.37546,-6.44803 2.37546,-6.011214 2.37546,-5.550602 2.37545,-5.06801 2.37546,-4.565349 2.37546,-4.044611 2.37546,-3.507857 2.37546,-2.957214 2.37546,-2.394859 2.37546,-1.823024 2.37546,-1.243967 2.37546,-0.659987 2.37546,-0.07339 2.37546,0.513493 2.37545,1.098344 2.37546,1.678847 2.37546,2.252702 2.37546,2.817636 2.37546,3.371415 2.37546,3.911842 2.37546,4.43678 2.37546,4.944149 2.37546,5.431941 2.37546,5.898225 2.37546,6.34115 2.37546,6.75897 2.37546,7.15003 4.75091,15.35852 4.75092,16.56505 4.75092,17.50944 7.12638,27.42584 14.25275,55.43096 4.75092,17.57581 4.75092,16.65399 4.75092,15.46864 2.37545,7.21249 2.37546,6.82605 2.37546,6.41258 2.37546,5.97371 2.37546,5.5112 2.37546,5.02686 2.37546,4.52262 2.37546,4.00046 2.37546,3.46248 2.37546,2.91076 2.37546,2.34754 2.37545,1.77501 2.37546,1.19546 2.37546,0.61118 2.37546,0.0245 2.37546,-0.56234 2.37546,-1.14692 2.37546,-1.72695 2.37546,-2.30015 2.37546,-2.86424 2.37546,-3.41699 2.37546,-3.95621 2.37545,-4.47976 2.37546,-4.98558 2.37546,-5.47164 2.37546,-5.93605 2.37546,-6.37696 2.37546,-6.7926 2.37546,-7.18136 4.75092,-15.4138 4.75092,-16.60974 4.75091,-17.54287 7.12638,-27.45373 11.8773,-46.36913 4.75092,-17.90609 4.75091,-17.11019 4.75092,-16.04353 4.75092,-14.72303 2.37546,-6.7926 2.37546,-6.37696 2.37546,-5.936045 2.37546,-5.471646 2.37546,-4.985574 2.37545,-4.47976 2.37546,-3.956207 2.37546,-3.41699 2.37546,-2.864241 2.37546,-2.300152 2.37546,-1.726953 2.37546,-1.146918 2.37546,-0.56234 2.37546,0.02447 2.37546,0.611171 2.37545,1.19546 2.37546,1.775012 2.37546,2.347538 2.37546,2.910768 2.37546,3.462471 2.37546,4.000464 2.37546,4.522617 2.37546,5.02686 2.37546,5.5112 2.37546,5.973715 2.37546,6.41258 2.37545,6.82605 2.37546,7.21249 4.75092,15.46864 4.75092,16.65399 4.75092,17.57581 7.12638,27.48087 11.87729,46.35317 4.75092,17.87851 4.75092,17.07105 4.7509,15.99345 4.7509,14.66279 2.3755,6.75897 2.3755,6.34115 2.3754,5.89823 2.3755,5.43194 2.3754,4.94415 2.3755,4.43678 2.3754,3.91184 2.3755,3.37142 2.3755,2.81763 2.3754,2.2527 2.3755,1.67885 2.3754,1.09834 2.3755,0.5135 2.3755,-0.0734 2.3754,-0.65998 2.3755,-1.24397 2.3754,-1.82302 2.3755,-2.39486 2.3755,-2.95722 2.3754,-3.50785 2.3755,-4.04462 2.3754,-4.56534 2.3755,-5.06801 2.3755,-5.55061 2.3754,-6.01121 2.3755,-6.44803 2.3754,-6.85931 4.7509,-14.84228 4.751,-16.14238 4.7509,-17.18705 4.7509,-17.95977 9.5018,-37.09323 7.1264,-27.691 4.7509,-17.85044 4.751,-17.03143 4.7509,-15.94293 4.7509,-14.60215 2.3754,-6.72516 2.3755,-6.30517 2.3755,-5.86024 2.3754,-5.392087 2.3755,-4.90259 2.3754,-4.393677 2.3755,-3.867369 2.3755,-3.325746 2.3754,-2.770954 2.3755,-2.205191 2.3754,-1.630694 2.3755,-1.049741 2.3755,-0.464631 2.3754,0.122319 2.3755,0.708783 2.3754,1.292443 2.3755,1.870983 2.3755,2.442116 2.3754,3.003578 2.3755,3.553147 2.3754,4.088646 2.3755,4.607956 2.3754,5.109019 2.3755,5.589852 2.3755,6.048548 2.3754,6.4833 2.3755,6.89238 4.7509,14.9013 4.7509,16.19113 4.7509,17.22478 7.1264,27.17562 L 1225,233.8124 v 0"
     clip-path="url(#p8a11df955e)"
     style="fill:none;stroke:#0ca15f;stroke-dasharray:10.88503953,2.72125988,1.70078741,2.72125988;stroke-dashoffset:0;stroke-opacity:1;stroke-width:1.70078741;stroke-miterlimit:4"
     id="path29331" />
  <path
     d="M 153,378 V 51.84"
     style="fill:none;stroke:#000000;stroke-width:0.8;stroke-linecap:square;stroke-linejoin:miter"
     id="path29334" />
  <path
     d="m 153,378 h 948.6"
     style="fill:none;stroke:#000000;stroke-width:0.8;stroke-linecap:square;stroke-linejoin:miter"
     id="path29337" />
  <g
     id="line2d_13"
     transform="translate(123,-49.5)"
     style="stroke:#000000;stroke-opacity:1;stroke-width:1.98425197;stroke-miterlimit:4;stroke-dasharray:none">
    <path
       d="m 948.7125,78.036875 h 20 20"
       style="fill:none;stroke:#000000;stroke-width:1.98425197;stroke-linecap:square;stroke-miterlimit:4;stroke-dasharray:none;stroke-opacity:1"
       id="path29343" />
  </g>
  <g
     id="text_11"
     transform="translate(123,-49.5)">
    <text
       style="font-style:normal;font-variant:normal;font-weight:normal;font-stretch:normal;font-size:20px;line-height:normal;font-family:Helvetica;text-anchor:start"
       x="1004.7125"
       y="85.036873"
       id="text29346">A(t)</text>
  </g>
  <g
     id="line2d_14"
     transform="translate(123,-49.5)"
     style="stroke-width:1.98425197;stroke-miterlimit:4;stroke-dasharray:none">
    <path
       d="m 948.7125,107.39312 h 20 20"
       style="fill:none;stroke:#297f8e;stroke-width:1.98425197;stroke-linecap:square;stroke-miterlimit:4;stroke-dasharray:none;stroke-opacity:1"
       id="path29349" />
  </g>
  <g
     id="text_12"
     transform="translate(123,-49.5)">
    <text
       style="font-style:normal;font-variant:normal;font-weight:normal;font-stretch:normal;font-size:20px;line-height:normal;font-family:Helvetica;text-anchor:start"
       x="1004.7125"
       y="114.39313"
       id="text29352">E(t)</text>
  </g>
  <g
     id="line2d_15"
     transform="translate(123,-49.5)"
     style="stroke-width:1.98425197;stroke-miterlimit:4;stroke-dasharray:none">
    <path
       d="m 948.7125,136.74937 h 20 20"
       style="fill:none;stroke:#8b3067;stroke-width:1.98425197;stroke-linecap:square;stroke-miterlimit:4;stroke-dasharray:none;stroke-opacity:1"
       id="path29355" />
  </g>
  <g
     id="text_13"
     transform="translate(123,-49.5)">
    <text
       style="font-style:normal;font-variant:normal;font-weight:normal;font-stretch:normal;font-size:20px;line-height:normal;font-family:Helvetica;text-anchor:start"
       x="1004.7125"
       y="143.74937"
       id="text29358">T(t)</text>
  </g>
  <g
     id="line2d_16"
     transform="translate(123,-49.5)"
     style="stroke-width:1.98425;stroke-miterlimit:4;stroke-dasharray:none">
    <path
       d="m 948.7125,166.10562 h 20 20"
       style="fill:none;stroke:#0ca15f;stroke-width:1.98424995;stroke-miterlimit:4;stroke-dasharray:7.9369998,3.9684999,1.98424995,3.9684999;stroke-dashoffset:0;stroke-opacity:1"
       id="path29361" />
  </g>
  <g
     id="text_14"
     transform="translate(123,-49.5)">
    <text
       style="font-style:normal;font-variant:normal;font-weight:normal;font-stretch:normal;font-size:20px;line-height:normal;font-family:Helvetica;text-anchor:start"
       x="1004.7125"
       y="173.10562"
       id="text29364">α(t)</text>
  </g>
  <defs
     id="defs29373">
    <clipPath
       id="p8a11df955e">
      <rect
         x="153"
         y="51.84"
         width="948.6"
         height="326.16"
         id="rect29370" />
    </clipPath>
  </defs>
</svg>
